<?xml version="1.0" encoding="UTF-8"?>
<svg id="Layer_2" data-name="Layer 2" xmlns="http://www.w3.org/2000/svg" viewBox="0 0 400.75 122.32">
  <defs>
    <style>
      .cls-1 {
        fill: #fff;
      }
    </style>
  </defs>
  <g id="Layer_1-2" data-name="Layer 1">
    <g>
      <g>
        <path class="cls-1" d="M310.04,19.8c.27,1.4.52,2.8.8,4.2,1.41,7.12,2.9,14.22,4.22,21.36.78,4.19,1.39,8.42,1.9,12.66.38,3.18.48,6.41.13,9.61-.25,2.25-.71,4.47-1.54,6.6-.64,1.65-1.8,2.79-3.23,3.73-.35.23-.67.65-.79,1.05-.94,3.16-1.55,6.4-1.63,9.67-.09,3.45.27,6.88,1.8,10.08,1.36,2.85,3.59,4.69,6.46,5.9,3.83,1.61,7.78,1.77,11.78,1.02,5.47-1.02,10.64-2.91,15.62-5.41,5.09-2.56,9.9-5.55,14.45-8.97,1.42-1.06,2.77-2.22,4.08-3.41.91-.83.85-1.33.02-2.26-.93-1.04-2.18-1.44-3.46-1.7-2.01-.41-4.03-.76-6.05-1.05-3.18-.46-6.36-.84-9.54-1.28-.5-.07-1-.23-1.49-.4-.4-.13-.5-.41-.32-.82.67-1.56,1.32-3.14,2.01-4.7.1-.23.39-.43.63-.56,1.51-.82,3.16-1.46,4.53-2.47,1.38-1.01,2.56-2.31,3.7-3.59,1.24-1.39,1.68-3.14,1.61-4.96-.07-2.07-.26-4.13-.46-6.2-.18-1.91-.42-3.82-.69-5.72-.33-2.3-.71-4.58-1.1-6.87-.45-2.63-.94-5.25-1.39-7.88-.59-3.43-1.14-6.87-1.75-10.29-.76-4.25-1.56-8.5-2.35-12.74-.06-.31-.14-.63-.24-.93-.46-1.4-.32-2.75.14-4.13.4-1.19.66-2.43,1-3.64.06-.24.14-.48.26-.69.09-.15.28-.35.41-.35.13,0,.31.23.36.39.27.82.52,1.65.74,2.48,1.88,6.92,3.07,13.99,4.4,21.02.57,3.01,1.03,6.04,1.55,9.05.75,4.3,1.41,8.63,2.34,12.89.55,2.52,1.31,5.03,2.78,7.23.87,1.31,2.06,2.25,3.42,2.98.14.07.31.08.66.17-.17-.41-.26-.69-.39-.96-1.81-3.69-3-7.55-2.55-11.71.37-3.46,1.63-6.65,4.02-9.21,1.95-2.09,4.52-3.22,7.29-3.87,4.87-1.14,9.47-.28,13.84,1.99.94.49,1.73,1.27,2.59,1.91-.02.08-.05.16-.07.24-.23.01-.52.11-.7.02-2.74-1.43-5.59-.93-8.41-.41-3.45.63-6.9,1.34-10.13,2.75-1.66.73-3.22,1.69-4.83,2.54-.68.36-.75.96-.68,1.64.22,2.28.77,4.47,1.71,6.56,1.2,2.68,2.86,4.98,5.24,6.77,3.49,2.63,7.12,3.04,11,.99,3.52-1.86,6.83-4.07,9.88-6.62,1.4-1.17,2.74-2.41,4.12-3.6.16-.14.49-.27.63-.2.15.08.29.43.25.62-.45,1.97-.82,3.99-2.3,5.53-2.36,2.44-5.01,4.52-7.77,6.49-2.48,1.77-5.05,3.35-7.8,4.66-2.59,1.23-5.3,2.15-8.15,2.29-3.08.15-6.19-.09-8.99-1.64-1.9-1.05-3.3-2.63-4.41-4.48-.2-.33-.39-.67-.59-1-.08,0-.15-.01-.23-.02-.12.37-.32.73-.36,1.11-.34,3.07-1.2,6-2.45,8.81-.48,1.07-1.17,2.06-1.81,3.04-.46.7-.41.9.44,1.02,1.69.23,3.39.39,5.07.66,1.24.2,2.46.51,3.69.81,2.6.63,3.97,2.33,4.24,4.96.36,3.45-.17,6.79-2.21,9.59-1.26,1.73-3.07,3.15-4.83,4.43-3.36,2.45-6.79,4.85-10.34,7.02-3.81,2.33-7.75,4.45-11.98,5.96-3.19,1.14-6.39,2.23-9.74,2.75-4.37.68-8.58.21-12.6-1.8-3.58-1.79-5.63-4.75-6.87-8.41-1.64-4.85-1.47-9.77-.52-14.7.45-2.35,1.08-4.66,1.62-7,.05-.24.08-.48.14-.88-.49.07-.89.1-1.28.19-2.58.61-5.15,1.12-7.82.47-2.91-.7-5.41-2.07-7.26-4.42-2.24-2.85-4.33-5.83-6.54-8.7-1.17-1.52-2.45-2.94-3.69-4.41-.08.03-.15.07-.23.1.03.27.01.55.1.79,1.04,2.94,1.14,5.97.97,9.05-.13,2.38-.53,4.64-1.84,6.68-.79,1.23-1.82,2.23-3.04,2.98-.93.57-1.27,1.27-1.18,2.36.23,2.78-.23,5.53-.9,8.21-.84,3.36-2.87,5.97-5.56,8.09-1.25.99-2.45,2.06-3.77,2.94-2.31,1.54-4.68,3.01-7.07,4.43-2,1.19-4.04,2.3-6.1,3.38-1.24.65-2.54,1.15-3.81,1.74-1.18.54-2.33,1.14-3.52,1.65-1.83.78-3.68,1.55-5.54,2.25-2.23.84-4.47,1.67-6.74,2.38-2.39.75-4.81,1.31-7.36,1.3-2.33-.01-4.67.17-7,.27-1.52.07-3.04.11-4.55.24-2.38.2-4.75.47-7.12.71-.44.04-.88.09-1.32.11-.17,0-.34-.08-.5-.13.13-.15.22-.38.38-.43,1.47-.49,2.95-.97,4.44-1.42,2.38-.72,4.77-1.42,7.15-2.12,1.63-.48,3.26-.95,4.88-1.46,2.96-.93,5.93-1.86,8.87-2.86,3.83-1.3,7.69-2.52,11.44-4.02,3.91-1.56,7.79-3.25,11.53-5.18,4.09-2.11,8.07-4.48,11.99-6.91,2.76-1.72,5.34-3.73,7.39-6.33.75-.95,1.07-1.94.62-3.09-.45-1.15-.91-2.29-1.44-3.4-.08-.17-.53-.3-.76-.25-1.58.37-3.14.86-4.74,1.19-2.47.51-4.98.54-7.42-.13-1.84-.5-3.19-1.6-3.81-3.58-.71-2.28-.16-4.35.56-6.47.64-1.88,1.77-3.39,3.26-4.67,1.34-1.15,2.86-1.6,4.6-1.33,2.29.36,4.25,1.39,5.99,2.89,1.47,1.27,2.69,2.73,3.72,4.38.14.23.65.45.88.37,1.74-.6,3.37-1.41,4.71-2.71.47-.46.65-.99.56-1.67-.41-3.34-2-6.18-3.82-8.9-2.78-4.16-6.12-7.87-9.5-11.54-3.82-4.14-7.81-8.12-11.56-12.32-2.49-2.79-4.71-5.83-7.02-8.78-.18-.23-.21-.66-.15-.97.41-2.18.78-4.38,1.32-6.53.54-2.16,2-3.69,3.78-4.96,3.65-2.6,7.59-4.69,11.61-6.63,3.65-1.76,7.28-3.55,11-5.15,4.73-2.05,9.5-4.02,14.32-5.84,1.92-.72,4-1.19,6.04-1.35,3.44-.28,5.11,1.52,5.26,4.98.15,3.27-.58,6.39-1.5,9.47-1.34,4.48-3.17,8.78-5.43,12.86-1.82,3.28-3.84,6.45-5.8,9.65-.64,1.05-1.36,2.06-2.05,3.08-.14.21-.35.38-.52.57-.09-.03-.19-.06-.28-.09.09-.52.12-1.05.28-1.55.69-2.1,1.76-4.01,2.92-5.88,3.99-6.41,7.46-13.08,9.87-20.27.48-1.42.41-2.83.02-4.23-.36-1.29-1.34-1.98-2.83-2.09-2.57-.19-4.97.5-7.33,1.42-.54.21-1.14.27-1.68.48-.69.27-1.34.65-2.01.96-.14.07-.33.01-.48.07-.27.11-.52.26-.74.5-1.51-.02-2.71.89-4.02,1.46-2.09.91-4.19,1.82-6.25,2.78-4.07,1.9-8.18,3.72-12.16,5.78-3.12,1.62-6.08,3.56-9.11,5.37-.17.1-.31.25-.44.39-.82.83-.79,1.31-.14,2.26,1.56,2.3,3.69,4.05,5.75,5.84,3.47,3,7.04,5.89,10.51,8.89,3.32,2.87,6.62,5.78,9.84,8.77,3.4,3.16,6.52,6.6,9.35,10.3,1.29,1.68,2.48,3.44,3.84,5.07,1.29,1.55,2.63,3.08,4.12,4.43,1.67,1.51,3.78,2.25,6,2.49,3.9.41,7.49-.52,10.74-2.75.67-.46.99-.99.94-1.85-.28-4.64-1.01-9.22-1.88-13.78-1.02-5.33-1.99-10.67-3.02-16.01-.73-3.78-1.53-7.55-2.25-11.33-.47-2.5-.85-5.02-1.28-7.52-.31-1.82-.62-3.64-.98-5.46-.11-.55-.24-1.16-.56-1.59-.6-.81-.54-1.57-.16-2.41.61-1.35,1.17-2.72,1.78-4.07.13-.29.41-.5.63-.75.21.24.5.44.63.72,1.06,2.31,2.07,4.64,3.14,6.94,1.12,2.43,2.28,4.85,3.42,7.28.07.16.17.32.19.48.04.36.04.73.06,1.1-.38-.1-.85-.1-1.12-.33-.64-.53-1.19-1.18-1.79-1.76-.37-.37-.77-.71-1.15-1.07l-.27.17ZM269.51,79.35c.04-.13.08-.25.12-.38-.19-.12-.39-.21-.55-.36-1.31-1.13-2.82-1.86-4.49-2.29-.94-.24-1.75,0-2.44.67-.81.77-.59,1.85.49,2.07,1.41.29,2.85.52,4.29.61.85.05,1.72-.2,2.58-.32Z"/>
        <path class="cls-1" d="M141.09,20.06c.13,1.11.23,2.23.39,3.34.67,4.52,1.35,9.04,2.04,13.55.78,5.08,1.64,10.14,2.35,15.23,1.12,7.94,2.62,15.84,3.07,23.87.23,4.07-.25,8.09-.99,12.08-.37,2.02-1.13,3.88-2.37,5.53-.97,1.29-2.27,2.15-3.79,2.69-.44.16-.84.42-1.27.61-3.21,1.43-6.53,1.82-9.98,1.04-2.12-.48-3.84-1.64-5.37-3.12-.48-.46-.94-.95-1.4-1.42-.77-.78-.78-.79-1.63-.16-1.49,1.09-2.96,2.22-4.46,3.3-3.17,2.27-6.62,3.95-10.53,4.41-2.48.29-4.87-.2-7.07-1.42-2.38-1.32-3.79-3.44-4.78-5.9-1.44-3.56-2.13-7.29-2.51-11.09-.4-4.03-.7-8.07-1.03-12.1-.24-3-.48-6-.68-9-.19-2.91-.3-5.82-.51-8.72-.27-3.79-.55-7.58-.92-11.36-.44-4.49-.84-9-1.5-13.46-.61-4.07-1.21-8.16-2.51-12.1-.2-.62-.52-1.2-.92-1.79-2.1,5.92-3.63,11.92-3.97,18.19-.06,0-.12-.02-.19-.03,0-.85-.07-1.7.01-2.54.6-6.49,2.4-12.7,4.48-18.84.26-.77.48-1.56.82-2.3.14-.31.53-.65.83-.68.22-.03.6.38.73.67,1.38,3.02,2.41,6.16,3.06,9.42.39,1.98.82,3.97,1.12,5.96.31,2,.54,4.01.7,6.03.47,5.73.93,11.46,1.3,17.2.25,3.77.3,7.55.52,11.32.24,4.12.5,8.23.87,12.34.37,4.05.81,8.1,1.36,12.13.29,2.12.81,4.23,1.82,6.16,1.36,2.61,3.31,4.34,6.36,5.07,3.55.85,6.57-.36,9.6-1.7,1.69-.75,3.23-1.87,4.79-2.89.84-.55.81-.77.17-1.51-1.75-2.02-3.47-4.08-5.85-5.38-1.92-1.05-4.02-1.5-6.14-.8-.91.3-1.64,1.12-2.46,1.69-.19.14-.42.22-.63.34-.02-.23-.12-.5-.04-.68.93-2.01,1.9-4,2.85-6,.49-1.02,1.46-1.45,2.42-1.67,2.13-.48,4.3-.85,6.46-1.18,1.31-.2,2.65-.28,3.98-.33,3.43-.15,6.87-.04,10.26.51,2.45.39,4.88.96,7.28,1.6,1.63.43,1.66.56,1.41,2.19-.19,1.26-.53,2.49-.85,3.72-.17.66-.63,1.05-1.26,1.35-2.94,1.37-5.68,3.08-8.24,5.06-.73.57-.7.73.03,1.33,1.68,1.38,3.71,1.83,5.79,2.01,4.02.35,7.57-1.07,10.91-3.12.93-.57,1.32-1.41,1.3-2.55-.06-4.29-.63-8.52-1.29-12.74-1.11-7.07-2.24-14.15-3.39-21.21-.66-4.07-1.46-8.12-2.07-12.2-.85-5.64-1.57-11.3-2.35-16.95-.43-3.08-.84-6.16-1.3-9.23-.09-.57-.41-1.1-.57-1.66-.1-.37-.25-.84-.13-1.16.71-1.78,1.48-3.55,2.27-5.29.12-.27.48-.44.74-.66.18.24.43.45.53.72,1.83,4.9,3.64,9.8,5.43,14.71.33.9.54,1.85.77,2.78.07.28.01.59-.1.92-1.62-1.07-2.27-2.9-3.55-4.19-.08.02-.15.05-.23.07ZM120.23,80.53c.21.36.29.56.42.72,1.03,1.28,2.09,2.55,3.11,3.84.32.4.61.43.99.13,1.37-1.05,2.74-2.09,4.1-3.15.21-.16.34-.43.62-.78-3.1-.55-6.04-.83-9.24-.76Z"/>
        <path class="cls-1" d="M85.77,58.28c-.57-1.93-1.26-3.83-2.75-5.26-1.58-1.51-3.23-1.64-4.85-.15-1.2,1.11-1.95,2.46-2.55,3.94-1.13,2.76-1.61,5.63-1.51,8.61.05,1.65.08,3.3.12,4.95.01.5-.22.77-.7.74-.66-.05-1.31-.16-1.97-.26-3.66-.57-6.01-2.79-7.19-6.14-.87-2.48-1.42-5.08-1.92-7.67-.5-2.56-.78-5.16-1.1-7.75-.63-5.07-1.2-10.14-1.82-15.21-.35-2.89-.73-5.77-1.13-8.66-.22-1.61-.5-3.21-.75-4.82-.59-3.76-1.19-7.51-2.57-11.08-.14-.37-.49-.66-.75-.99-.2.35-.49.67-.59,1.05-.43,1.65-.82,3.31-1.21,4.97-.06.26-.07.54-.03.8.34,2.04.76,4.07,1.03,6.12.48,3.62.89,7.25,1.29,10.88.63,5.72,1.24,11.44,1.85,17.16.59,5.48,1.17,10.95,1.27,16.47.04,1.97-.62,3.62-1.73,5.15-2.28,3.13-5.44,5.1-8.86,6.73-.33.16-.73.42-.85.73-.64,1.58-1.19,3.19-1.78,4.79-.2.54-.1.82.52,1.02,3.17,1.04,6.46,1.3,9.73,1.74,2.15.29,4.32.48,6.45.9,1.76.35,3.39,1.06,4.44,2.69.33.51.3.91-.12,1.31-.52.49-1.02,1.01-1.57,1.46-4.53,3.71-9.5,6.76-14.79,9.22-3.44,1.6-7.01,2.93-10.57,4.25-3.66,1.35-7.44,2.1-11.37,1.97-2.49-.08-4.91-.33-7.21-1.38-2.56-1.17-4.6-2.82-5.78-5.45-1.67-3.73-2.11-7.65-1.81-11.66.4-5.23,1.97-10.16,4.17-14.89,1.46-3.15,3.07-6.22,4.64-9.31.71-1.41,1.17-2.88,1.24-4.46,0-.21-.14-.43-.22-.64-.16.13-.38.23-.47.4-.33.6-7.42,15.92-8.39,18.37-1.99,5-3.4,10.16-3.7,15.56-.22,3.9.2,7.75,1.78,11.38.74,1.69,1.76,3.2,3.17,4.4.89.75,1.83,1.49,2.85,2.03,1.29.68,2.65,1.34,4.06,1.67,3.84.88,7.7.58,11.52-.23,3.92-.83,7.68-2.19,11.3-3.88,2.97-1.38,5.92-2.84,8.72-4.53,2.96-1.79,5.78-3.84,8.56-5.91,1.41-1.05,2.74-2.29,3.87-3.64,2.34-2.82,2.85-6.29,2.94-9.82.04-1.74-.68-3.17-2.2-4.11-1.5-.92-3.15-1.43-4.87-1.65-2.1-.27-4.22-.4-6.33-.62-.33-.03-.65-.2-1.21-.37,4.34-3.97,5.89-8.93,6.44-14.38.25.99.52,1.97.75,2.97.44,1.94,1.11,3.82,2.3,5.41.69.93,1.59,1.76,2.54,2.43,2.09,1.49,4.5,2.02,7.06,1.97.5,0,.87.23.88.79.02.69.09,1.39-.02,2.06-.36,2.12-.8,4.22-1.19,6.33-.05.29-.11.59-.06.88.04.21.24.39.37.58.17-.15.42-.27.49-.45.25-.67.49-1.35.63-2.05.51-2.54,1-5.09,1.45-7.64.09-.5.33-.7.78-.84,1.43-.48,2.91-.88,4.26-1.53,1.76-.85,3.34-2.05,4.12-3.9,1.85-4.39,2.3-8.91.94-13.53ZM83.99,67.28c-.36.45-.84.83-1.32,1.16-1.76,1.19-3.78,1.77-5.8,2.33-.5.14-.75-.04-.79-.56-.08-1.13-.17-2.26-.25-3.39-.05-.01-.1-.03-.16-.04.32-1.74.52-3.51,1.02-5.19.27-.92.96-1.76,1.61-2.51.74-.86,1.45-.92,2.22-.06.9,1.02,1.7,2.18,2.32,3.39.61,1.19.98,2.52,1.37,3.81.1.32,0,.81-.21,1.07Z"/>
        <path class="cls-1" d="M157.58,66c.17.59.29,1.18.02,1.81-2.15,5.13-3.6,10.45-4.12,16-.28,2.97.12,5.85,1.56,8.47,1.55,2.82,3.82,4.86,6.86,6.12,3.23,1.35,6.58,1.98,10.03,1.85,3.71-.14,7.38-.76,10.9-1.97,3.19-1.09,6.42-2.19,9.44-3.68,3.62-1.78,7.06-3.95,10.54-6.01,1.44-.85,2.82-1.82,4.15-2.85,1.4-1.09,2.73-2.27,4.03-3.47.75-.7.77-1.04-.02-1.71-.78-.66-1.66-1.25-2.6-1.64-2.48-1.01-5.14-1.13-7.76-1.44-2.92-.35-5.82-.76-8.73-1.2-.9-.13-1.77-.44-2.66-.66-.52-.13-.68-.44-.5-.94.61-1.67,1.19-3.35,1.84-5,.1-.26.53-.51.84-.56,3-.45,5.89-1.27,8.7-2.36,2-.78,3.95-1.69,5.48-3.29.63-.66.81-1.31.53-2.21-.72-2.3-2.14-4.16-3.57-6.01-2.59-3.35-4.82-6.92-6.84-10.64-.14-.25-.18-.64-.09-.91.58-1.73,1.17-3.46,1.83-5.16.27-.71.55-.68,1.13-.16,1.32,1.19,2.69,2.32,4,3.52.85.78,1.65,1.63,2.44,2.47.19.21.26.53.39.8-.05.07-.11.13-.16.2-.41-.1-.82-.19-1.23-.32-.18-.06-.34-.26-.52-.27-.42-.02-.85.03-1.28.06.11.33.14.72.33.99,1.33,1.93,2.76,3.8,4.04,5.75,2.06,3.13,2.5,6.57,1.76,10.22-.45,2.22-.96,4.41-2.28,6.29-.67.96-1.53,1.78-2.4,2.78.3.09.62.24.95.29,2.33.32,4.63.7,6.78,1.75,1.48.72,2.46,1.87,2.74,3.46.5,2.78.31,5.58-1.05,8.08-.81,1.49-2.03,2.79-3.19,4.05-2.2,2.37-4.89,4.13-7.55,5.94-3.96,2.71-8.03,5.22-12.4,7.22-3.57,1.63-7.23,3.1-11.05,3.99-4.04.93-8.13,1.59-12.33,1-3.09-.43-6.05-1.26-8.71-2.88-3.01-1.83-5.04-4.45-5.9-7.97-.79-3.22-.88-6.46-.64-9.7.27-3.72,1.01-7.39,2.28-10.92.98-2.74,2.04-5.45,3.09-8.16.15-.39.44-.73.66-1.09.07.02.14.04.21.07Z"/>
        <path class="cls-1" d="M200.7,112.42c-3.05.11-6.1.19-9.15.34-3.4.18-6.79.43-10.18.63-.25.01-.51-.14-.76-.22.2-.2.37-.53.62-.6,3.57-.99,7.14-1.95,10.71-2.92,4.55-1.24,9.12-2.39,13.63-3.76,4.15-1.27,8.24-2.74,12.33-4.21,3.06-1.11,6.08-2.34,9.1-3.56,1.5-.61,2.96-1.32,4.43-2.01,2.23-1.04,4.51-1.99,6.66-3.17,2.65-1.45,5.22-3.05,7.77-4.67.73-.46,1.34-1.18,1.85-1.89.26-.36.39-1.03.25-1.44-.64-1.89-1.25-3.81-2.15-5.58-2.29-4.49-4.18-9.14-5.78-13.92-.17-.52-.14-.96.09-1.48.61-1.4,1.12-2.85,1.7-4.27.11-.27.34-.65.56-.69.21-.03.53.28.72.51,1.42,1.7,2.85,3.4,4.21,5.14.49.63.82,1.39,1.18,2.11.07.14-.01.36-.03.55-.18-.04-.37-.05-.53-.12-.57-.27-1.13-.58-1.7-.85-.44-.21-.63.03-.56.43.07.41.21.81.38,1.19.96,2.11,1.86,4.26,2.93,6.31,1.57,3.01,1.81,6.13,1.25,9.42-.48,2.86-1.13,5.65-2.87,8-.81,1.09-1.86,2.04-2.93,2.89-2.98,2.39-6.33,4.2-9.69,5.97-2.13,1.12-4.27,2.25-6.47,3.22-2.54,1.13-5.15,2.12-7.74,3.14-2.11.83-4.22,1.66-6.37,2.38-3.31,1.12-6.58,2.4-10.07,2.87-1.12.15-2.26.16-3.39.23,0,0,0-.01,0-.02Z"/>
        <path class="cls-1" d="M329.55,18.14c2.05,12.32,4.1,24.65,6.17,37.04.18-.08.36-.13.51-.24,3.54-2.4,6.5-5.37,8.85-8.94.68-1.04.66-1.07-.39-1.66-.75-.42-1.51-.84-2.23-1.31-.97-.63-1.22-1.23-.92-2.33.4-1.48.8-2.96,2.03-4.04,1.38-1.21,3.08-.77,3.44,1.04.25,1.24.24,2.55.15,3.82-.06.79-.2,1.37.56,1.99.94.77.97,2.22.29,3.63-.25-.36-.44-.67-.66-.96-.54-.72-.86-.7-1.29.08-2.36,4.28-5.61,7.73-9.64,10.47-.42.29-.56.58-.48,1.1.73,4.64,1.31,9.29,1.41,13.99.08,3.53.04,7.07-.88,10.52-.09.35-.22.72-.42,1.02-.13.19-.45.38-.63.34-.19-.04-.43-.35-.45-.56-.05-.48.08-.98.05-1.47-.17-2.66-.24-5.33-.57-7.97-.53-4.31-1.22-8.6-1.85-12.9-.03-.23-.12-.46-.22-.85-3.58,2.52-7.13,4.84-10.93,6.74-.04-.05-.09-.09-.13-.14.24-.25.44-.54.71-.74,2.4-1.81,4.82-3.6,7.23-5.42.85-.64,1.69-1.29,2.46-2.01.23-.22.36-.7.31-1.03-.54-3.54-1.12-7.07-1.7-10.6-.99-6.02-2.01-12.03-2.98-18.04-.59-3.65-1.08-7.32-1.63-10.98-.27-1.8-.55-3.61-.85-5.4-.06-.34-.14-.7-.32-.98-.47-.73-.38-1.38-.02-2.14.58-1.25,1.04-2.56,1.6-3.83.11-.26.4-.44.6-.65.17.22.41.41.51.66.94,2.17,1.89,4.34,2.79,6.52,1.11,2.71,2.19,5.44,3.27,8.16.1.25.18.53.17.79,0,.26-.13.53-.19.79-.26-.11-.59-.15-.76-.34-.72-.81-1.38-1.67-2.07-2.51-.21-.26-.45-.5-.68-.75-.07.03-.14.07-.21.1ZM345.98,42.44c.07-.07.15-.14.22-.22,0-1.16-.1-2.3-.77-3.3-.46-.69-1.24-.75-1.94-.22-.63.48-.88,1.55-.34,1.95.89.67,1.88,1.2,2.83,1.79Z"/>
        <path class="cls-1" d="M161.75,5.12c.2.55.41,1.09.61,1.64,1.73,4.73,3.46,9.45,5.17,14.18.26.71.42,1.47.54,2.22.05.28-.14.6-.21.91-.36-.16-.84-.23-1.05-.51-.57-.74-1.02-1.57-1.54-2.35-.36-.54-.76-1.05-1.15-1.57-.07.03-.15.07-.22.1.12.84.25,1.68.36,2.52.83,5.91,1.65,11.83,2.48,17.74.64,4.55,1.3,9.09,1.91,13.64.32,2.4.56,4.8.85,7.2.41,3.36.84,6.71,1.26,10.06.71,5.64,1,11.31.84,17-.07,2.58-.06,5.2-.99,7.67-.1.28-.17.6-.35.81-.2.23-.52.35-.78.52-.13-.26-.35-.52-.36-.79-.07-2.1.02-4.21-.16-6.29-.39-4.57-.86-9.14-1.41-13.7-.59-4.85-1.31-9.69-1.96-14.53-.59-4.33-1.16-8.66-1.75-12.99-.94-6.97-1.9-13.94-2.83-20.92-.46-3.47-.82-6.96-1.31-10.43-.27-1.89-.31-3.85-1.21-5.61-.11-.21-.1-.56,0-.77.85-1.75,1.74-3.49,2.62-5.22.1-.2.27-.38.4-.57.08.01.16.02.24.03Z"/>
        <path class="cls-1" d="M219.01,19.35c.05.7.05,1.41.15,2.1.31,2.29.65,4.58.97,6.87.44,3.22.88,6.43,1.3,9.66.71,5.51,1.45,11.01,2.09,16.52.57,4.93,1.1,9.87,1.49,14.81.28,3.59.42,7.2.43,10.8.02,4.59-.23,9.17-1.32,13.66-.11.45-.2.94-.43,1.33-.17.29-.54.47-.82.7-.13-.32-.36-.63-.36-.95,0-2.86.19-5.73.04-8.58-.23-4.58-.6-9.16-1.03-13.73-.44-4.6-.98-9.18-1.56-13.76-.59-4.7-1.29-9.39-1.92-14.08-.49-3.72-.95-7.44-1.41-11.17-.45-3.65-.9-7.3-1.34-10.95-.31-2.55-.57-5.1-.95-7.64-.14-.96-.6-1.87-.87-2.81-.09-.32-.12-.73,0-1.03.6-1.51,1.26-3,1.91-4.49.09-.2.17-.42.31-.59.34-.43.77-.39.97.11.85,2.13,1.66,4.27,2.52,6.39.98,2.41,2.01,4.81,2.99,7.22.34.84.6,1.72.87,2.6.06.2.07.46,0,.65-.06.19-.24.42-.4.46-.13.03-.38-.15-.49-.31-.77-1.05-1.51-2.13-2.28-3.19-.18-.25-.41-.46-.62-.7-.08.03-.16.06-.24.09Z"/>
        <path class="cls-1" d="M112.52,24.94c-.03,5.13-1.02,9.27-2.35,13.34-.38,1.17-.7,2.36-1.18,3.49-.26.61-.8,1.11-1.25,1.63-.12.14-.39.14-.58.21-.05-.22-.2-.47-.15-.65.25-.83.58-1.63.83-2.45.94-3.13,1.73-6.29,1.84-9.57.15-4.36-1.13-8.36-3.32-12.05-1.43-2.41-3.14-4.67-4.68-7.02-.18-.28-.27-.77-.16-1.07.47-1.25,1.01-2.47,1.58-3.67.39-.84.67-.86,1.25-.11,3.03,3.87,5.75,7.93,7.1,12.72.55,1.96.82,3.99,1.06,5.2Z"/>
        <path class="cls-1" d="M232.87,59.72c-.17-5.36-1.74-10.26-4.44-14.83-.08-.13-.13-.28-.24-.37-1.02-.91-.85-1.88-.23-2.95.48-.83.79-1.76,1.26-2.59.42-.76.74-.74,1.21,0,1.36,2.11,2.3,4.42,3.04,6.81.68,2.19,1.3,4.4,1.46,6.71.25,3.66.33,7.31-.69,10.88-.79,2.77-1.71,5.5-2.61,8.23-.24.72-.62,1.39-.98,2.06-.13.24-.38.47-.62.58-.37.18-.64.04-.57-.43.03-.19.11-.38.17-.57.9-2.84,1.91-5.66,2.66-8.54.42-1.6.41-3.32.6-4.99Z"/>
        <path class="cls-1" d="M125.59,59.84c.08-1.39.08-2.65.26-3.88.24-1.63.53-3.27.99-4.85.73-2.56,2.41-2.9,4.2-.97.91.98.95,2.04.09,3.37-.4-.44-.78-.88-1.18-1.28-1.2-1.18-2.23-.92-2.52.75-.32,1.79-.36,3.63-.62,5.43-.24,1.63-.61,3.24-.97,4.84-.05.24-.37.41-.56.62-.16-.25-.4-.47-.47-.74-.53-2.23-1.37-4.33-2.59-6.27-.46-.73-.8-.73-1.1.07-1.16,3.16-3.74,4.96-6.36,6.69-3.74,2.48-7.85,4.24-12.06,5.75-.88.32-1.74.7-2.61,1.04-.21.09-.44.15-.65.23-.03-.06-.06-.13-.1-.19.27-.17.54-.37.82-.51,5.32-2.66,10.62-5.37,15.47-8.85,1.57-1.12,2.92-2.56,4.27-3.96.83-.86.68-1.14-.44-1.48-.33-.1-.66-.2-.98-.34-1.23-.54-1.54-1.18-1.23-2.47.14-.58.29-1.15.45-1.72.14-.52.54-.79,1.01-.59.73.32,1.51.66,2.09,1.18,2.08,1.89,3.39,4.27,4.25,6.93.1.31.21.61.33.9.02.06.09.11.23.29Z"/>
        <path class="cls-1" d="M371.76,107.88c.21-.6.4-1.13.59-1.65,1.26-3.45,1.58-7.01,1.31-10.65-.36-4.85-2.21-9.07-5.4-12.71-.31-.35-.37-.65-.21-1.06.51-1.23.99-2.48,1.52-3.7.32-.73.67-.78,1.19-.18,2.15,2.49,3.51,5.4,4.48,8.52,1.39,4.48,1.27,8.99.54,13.56-.42,2.59-1.37,4.93-2.73,7.13-.24.38-.49.89-1.29.74Z"/>
        <path class="cls-1" d="M143.09,103.12c-.77,1-1.44,2.1-2.33,2.97-2.34,2.28-4.88,4.31-7.94,5.6-4.07,1.71-8.28,2.56-12.71,2.17-1.03-.09-1.96-.47-2.78-1.11-.82-.64-1.03-1.49-.58-2.42.63-1.3,1.44-2.48,2.63-3.34.24-.17.51-.31.87-.53-.72-.48-1.18-.76-1.61-1.08-.54-.4-.7-.9-.4-1.55.75-1.6,1.63-3.1,3.06-4.21,1.03-.79,1.94-.89,2.76-.25.45.35.7.74.3,1.32-.34.49-.6,1.03-.94,1.64-.32-.38-.49-.7-.75-.88-.8-.57-2.66.22-2.77,1.2-.03.27.21.72.46.85.85.44,1.74.82,2.64,1.13.25.09.62-.1.9-.22.76-.35,1.51-.74,2.26-1.1.14-.07.31-.06.66-.11-.57.95-.75,1.86-1.8,2.36-1.98.94-3.89,2.04-5.77,3.17-1.37.83-1.29,1.71.17,2.39,1.55.72,3.21.73,4.87.61,3.4-.23,6.69-.96,9.8-2.38,3.08-1.4,5.66-3.48,7.99-5.9.21-.22.48-.38.72-.56.09.09.18.18.27.26Z"/>
        <path class="cls-1" d="M288.87,94.18c-.19.45-.32.75-.46,1.08-1-.54-1.99-.98-2.88-1.56-.83-.55-.53-1.46-.45-2.25.04-.41.24-.8.39-1.19.34-.85.79-1.1,1.54-.59,1.13.76,2.26,1.6,3.2,2.58,1.32,1.37,2.02,3.14,2.56,4.96.05.17.1.33.16.49.01.04.06.07.2.19.06-.38.13-.7.16-1.01.25-2.24.58-4.46,1.41-6.57.28-.71.76-1.36,1.24-1.97.38-.48.93-.47,1.48-.2,1.23.59,1.73,1.73,1.28,3.01-.14.4-.28.8-.48,1.36-.4-.62-.64-1.07-.95-1.47-.75-.98-1.81-.83-2.16.36-.34,1.15-.53,2.36-.72,3.55-.42,2.68-.69,5.39-1.7,7.94-1.16,2.93-3.14,5.26-5.65,7.08-1.77,1.28-3.67,2.41-5.61,3.43-1.09.58-2.38.79-3.58,1.18-1.16.37-2.32.75-3.55.97.92-.51,1.82-1.03,2.75-1.51,3.45-1.81,6.91-3.61,9.99-6.04,1.88-1.49,3.52-3.18,4.68-5.28.26-.48.39-1.13.32-1.67-.25-2.17-1.1-4.13-2.37-5.91-.21-.3-.47-.56-.8-.94Z"/>
        <path class="cls-1" d="M269.68,37.17c-.97-.16-1.86-.16-2.64-.46-.9-.35-1.69-.96-2.52-1.48-.07-.05-.09-.35-.07-.36.19-.08.41-.17.6-.14.65.11,1.29.32,1.95.4,2.38.3,4.73-.04,7.05-.54,2.62-.56,5.23-1.13,7.84-1.72.2-.04.52-.18.53-.3.02-.2-.12-.46-.28-.62-.82-.81-1.87-1-2.95-.93-1.3.09-2.59.31-3.89.47-1.08.13-2.16.25-3.24.35-.29.03-.6,0-.88-.06-1.38-.33-1.7-1.11-1-2.35,1.44-2.57,3.52-4.43,6.24-5.54.58-.24,1.23-.37,1.86-.41.9-.07,1.2.48.76,1.25-.18.32-.37.66-.63.91-.15.15-.45.19-.68.2-.58.03-1.2-.11-1.74.04-1.63.45-2.99,1.38-4.13,2.62-.51.55-.42.94.31,1.09.64.13,1.33.17,1.97.09,1.47-.17,2.92-.54,4.39-.64,1.26-.09,2.57-.05,3.79.2.62.13,1.18.82,1.65,1.36.4.45.38,1.05.07,1.6-.22.41-.45.82-.64,1.25-.49,1.08-1.34,1.51-2.49,1.69-2.02.33-4,.85-6.01,1.22-1.77.32-3.55.55-5.24.81Z"/>
        <path class="cls-1" d="M78.13,105.18c.06,3.26-.4,6.45-1.4,9.55-.17.54-.41,1.06-.69,1.55-.1.18-.4.26-.62.38-.1-.23-.31-.47-.28-.68.09-.61.3-1.2.42-1.8,1.34-6.47.39-12.47-3.81-17.74-.48-.61-1.17-1.05-1.7-1.63-.19-.2-.34-.63-.25-.85.55-1.37,1.18-2.72,1.79-4.06.26-.58.63-.41,1-.09,1.91,1.69,3.23,3.76,4.15,6.12,1.16,2.98,1.34,6.1,1.39,9.25Z"/>
        <path class="cls-1" d="M135.13,30.84c-.32,1.47-.8,2.47-2.18,3.08-2.73,1.21-5.36,2.63-8.03,3.97-1.43.72-2.86,1.45-4.28,2.19-2.84,1.47-5.68,2.94-8.5,4.45-1.26.67-2.45,1.46-3.7,2.15-2.99,1.66-6.01,3.29-9,4.95-.75.42-1.46.92-2.2,1.37-.18.11-.37.2-.57.31-.19-.79.3-2.06,1-2.48,2.34-1.43,4.66-2.88,7.04-4.23,3.65-2.07,7.33-4.09,11.02-6.08,2.52-1.36,5.09-2.63,7.64-3.92,2.79-1.42,5.59-2.83,8.39-4.23.88-.44,1.77-.87,2.66-1.29.16-.08.35-.11.69-.21Z"/>
        <path class="cls-1" d="M152.89,32.17c1.57.95,2.78,2.23,3.85,3.65,2.37,3.13,2.92,6.67,2.19,10.41-.62,3.17-1.5,6.28-2.25,9.43-.22.91-.4,1.83-.55,2.75-.06.38-.06.79-.01,1.18.1.79.25,1.63,1.13,1.94.92.32,1.53-.33,2.14-.86.37-.33.44-.76.04-1.09-.58-.48-1.19-.95-1.85-1.33-.52-.3-.7-.57-.46-1.17.65-1.65.66-1.68,2.17-.72.98.62,1.95,1.34,1.66,2.7-.18.83-.44,1.71-.9,2.41-.55.82-1.27,1.57-2.06,2.17-1.02.77-2.45.22-2.92-.98-.47-1.18-.36-2.39-.09-3.58.4-1.73.91-3.44,1.36-5.16.7-2.68,1.31-5.38,1.39-8.16.13-4.6-1.76-8.21-5.41-10.95-.96-.72-.98-1.28,0-2.04.21-.16.37-.38.58-.6Z"/>
        <path class="cls-1" d="M388.18,75.89c-.25-.27-.38-.41-.5-.56-.63-.76-1.35-.89-2.12-.28-.4.31-.8.7-1.03,1.14-.14.26-.06.89.14,1.02.8.55,1.68.99,2.56,1.42.16.08.48-.05.68-.16.65-.36,1.27-.77,1.91-1.12.26-.14.57-.2.91-.21-.43.86-.66,1.74-1.57,2.32-1.8,1.16-3.52,2.44-5.21,3.76-.83.64-.74,1.4.2,1.93.61.34,1.32.6,2.01.66,3.49.3,6.6-.84,9.5-2.7,1.63-1.05,3.09-2.29,4.32-3.79.14-.17.37-.27.55-.4.08.06.16.12.24.18-.37.61-.67,1.26-1.11,1.81-2.04,2.5-4.46,4.54-7.41,5.88-2.09.94-4.29,1.48-6.6,1.36-1.08-.05-2.09-.34-2.94-1.06-.79-.66-.98-1.27-.61-2.23.51-1.32,1.09-2.59,2.18-3.57.25-.22.42-.53.65-.84-.54-.43-1.01-.81-1.49-1.19-.54-.42-.66-.95-.42-1.58.65-1.71,1.59-3.23,2.91-4.5,1.05-1.02,2.05-.97,2.8.11.16.22.23.6.16.86-.15.55-.41,1.07-.68,1.73Z"/>
        <path class="cls-1" d="M75.38,37.85c.03.23.1.46.07.68-.24,1.58-.72,3.07-1.63,4.4-.43.62-.99.67-1.63.39-1.2-.54-1.75-1.55-1.96-2.78-.31-1.81-.08-3.59.29-5.36.61-2.92,1.24-5.83,1.81-8.76.9-4.58-.3-8.65-3.16-12.27-.7-.89-1.44-1.75-2.22-2.57-.39-.41-.42-.74-.11-1.16.09-.12.17-.25.23-.38.63-1.24.7-1.26,1.65-.27,2.38,2.49,4.39,5.18,5.19,8.64.45,1.93.42,3.83.02,5.72-.64,3.04-1.46,6.04-2.04,9.09-.36,1.9-.74,3.86-.18,5.79.18.61.53,1.23.97,1.68.55.57,1.15.42,1.49-.3.3-.62.46-1.3.69-1.95.08-.22.17-.43.25-.64.09.01.17.02.26.04Z"/>
        <path class="cls-1" d="M92.29,108.6c-.92.82-1.7.39-2.47.2-.96-.25-1.45-1.05-1.68-1.86-.16-.57.15-1.27.26-1.91.01-.07.08-.12.13-.18.46-.52.32-1.67,1.44-1.47.71.12,1.39.53,2.1.59,1.09.09.93,1.01,1.23,1.61.77,1.54,1.49,3.1,2.19,4.67.25.57.4,1.18.59,1.78.07,0,.14-.01.2-.02.16-1.03.28-2.07.47-3.09.3-1.55.64-3.09.98-4.63.06-.29.19-.56.32-.83.37-.8.73-1.62,1.8-1.61.73,0,1.9.95,1.99,1.87.08.77-.26,1.58-.41,2.38-.09,0-.17.02-.26.02-.15-.17-.31-.34-.45-.52-.21-.27-.39-.57-.62-.83-.63-.71-1.29-.67-1.56.22-.43,1.4-.67,2.86-.96,4.3-.41,2.08-.78,4.16-1.2,6.23-.05.22-.37.39-.56.59-.14-.23-.35-.44-.4-.68-.38-1.78-1.01-3.44-2.03-4.96-.38-.57-.7-1.19-1.1-1.87Z"/>
        <path class="cls-1" d="M186.29,86.9c-.14.35-.27.71-.42,1.07-.69,1.68-2.47,2.44-3.84,1.6-1.13-.69-1.19-1.86-1.15-3.02.03-.79.17-1.57.2-2.36.02-.41,0-.86-.14-1.24-.14-.35-.47-.86-.72-.86-.35,0-.8.33-1.04.64-.31.41-.45.94-.83,1.38-.02-.15-.08-.33-.04-.46.34-1,.65-2.02,1.09-2.98.27-.59.81-1.05,1.54-.92.75.13,1.06.74,1.08,1.41.03,1.03-.11,2.06-.09,3.09.02.8.1,1.62.32,2.38.21.72.86.97,1.61.84,1.32-.24,2.18-1.33,2-2.67-.18-1.29-.29-2.6-1.35-3.58-.3-.28.15-1.64.55-1.77.46-.15.81.06.93.49.32,1.13.65,2.27.87,3.42.23,1.17.75,2.03,1.95,2.34.28.07.59.08.88.03,1.25-.24,1.39-.59.73-1.67-.22-.36-.44-.71-.68-1.06-.07-.1-.21-.14-.32-.21-.14-.4-.27-.87-.47-1.3-.24-.52-.05-2.25.38-2.6.09-.07.5.04.57.17.5.98.9,2.01,1.44,2.96.54.94.85,1.88.55,2.96-.07.24-.09.49-.12.73-.24,2.05-1.98,3.06-3.89,2.21-.55-.25-1.03-.65-1.61-1.03Z"/>
        <path class="cls-1" d="M191.7,12.59c-.39.9-.84.78-1.46.35-.56-.39-1.27-.55-1.86-.89-.34-.2-.66-.52-.86-.85-.31-.54.09-2.81.6-3.13.33-.2.91-.23,1.29-.09,1.57.55,2.81,1.61,3.88,2.87,1.21,1.43,2.14,3.02,2.65,4.83.1.37.23.73.51,1.08.03-.31.07-.61.08-.92.16-2.56.18-5.15,1.07-7.6.26-.71.62-1.39,1.03-2.03.39-.61,1.04-.83,1.68-.42.57.36,1.06.85,1.55,1.32.11.1.17.33.14.48-.16.67-.35,1.33-.56,1.99-.03.11-.21.17-.23.19-.46-.51-.82-1.04-1.3-1.42-.72-.56-1.32-.43-1.65.42-.29.74-.43,1.57-.52,2.37-.28,2.37-.46,4.76-.77,7.13-.08.65-.46,1.27-.75,1.89-.06.13-.31.18-.47.27-.08-.17-.22-.32-.24-.5-.33-2.64-1.55-4.86-3.26-6.84-.12-.14-.29-.25-.54-.47Z"/>
        <path class="cls-1" d="M33.9,67.4c.85.91,1.19,1.8,1.33,2.79.11.76.12,1.54.35,2.26.22.71.61,1.38,1.03,2,.18.26.61.42.95.49.31.06.78.03.95-.16.15-.16.03-.64-.08-.93-.56-1.5-1.33-2.95-1.04-4.63.09-.56.3-1.09.45-1.64.08.01.15.02.23.04.13.61.23,1.22.38,1.82.11.45.22.92.43,1.34.77,1.52.9,3.06.58,4.74-.36,1.89-1.82,2.53-3.38,1.35-.43-.33-.87-.65-1.32-.99-.02.05-.16.29-.25.54-.28.87-.84,1.5-1.63,1.93-.96.52-1.99.34-2.49-.63-.35-.67-.56-1.48-.59-2.23-.04-.9.2-1.81.28-2.72.05-.56.11-1.13.06-1.69-.03-.27-.3-.73-.46-.73-.28,0-.66.23-.82.47-.34.54-.55,1.15-.85,1.72-.14.28-.34.54-.52.81-.08-.04-.15-.07-.23-.11.1-.42.16-.85.31-1.25.35-.92.72-1.84,1.13-2.74.13-.28.32-.61.57-.75.38-.21.9-.46,1.25-.35.3.09.63.66.63,1.03.02,1.35-.11,2.71-.14,4.07-.01.66,0,1.34.15,1.98.24,1.02,1.03,1.28,1.94.77,1.14-.64,1.6-1.62,1.37-2.85-.2-1.08-.54-2.13-.87-3.18-.27-.85.06-1.58.3-2.58Z"/>
        <path class="cls-1" d="M325.99,73.68c.23.38.56.72.67,1.13.33,1.21.6,2.44.86,3.67.18.85.56,1.58,1.34,1.92.35.15.91.06,1.28-.11.46-.21.48-.7.28-1.17-.34-.79-.68-1.59-1.01-2.39-.45-1.12-.22-2.91.44-3.59.39,1.08.71,2.2,1.19,3.25.77,1.66.53,3.33-.02,4.91-.72,2.09-2.16,2.16-3.7.73-.16-.14-.27-.33-.42-.51-.35.64-.61,1.28-1,1.82-.71.98-1.82,1.39-2.68,1.1-1.05-.36-1.73-1.33-1.77-2.57-.01-.47.04-.94.09-1.4.1-1.01.05-1.98-.22-2.99-.17-.67.22-1.48.36-2.23.11-.01.23-.03.34-.04.15.27.41.54.44.83.07.8.1,1.62.05,2.42-.06.94-.19,1.87.29,2.75.44.82,1.08,1.1,1.98.82,1.1-.34,1.88-1.52,1.62-2.65-.26-1.12-.67-2.21-1.02-3.31-.04-.14-.13-.29-.1-.42.14-.64.31-1.28.46-1.91.08-.02.16-.05.24-.07Z"/>
        <path class="cls-1" d="M388.89,10.36c-.51.91-.96,1.8-1.95,2.39-2.98,1.79-5.91,3.67-8.86,5.51-4.69,2.91-9.39,5.82-14.09,8.73-.94.58-1.87,1.17-2.82,1.77-.19-.74.31-1.8,1.04-2.26,3.03-1.9,6.07-3.79,9.1-5.68,3.14-1.96,6.27-3.93,9.41-5.88,2.37-1.47,4.75-2.91,7.13-4.36.28-.17.6-.27.9-.4.04.06.09.13.13.19Z"/>
        <path class="cls-1" d="M185.71,40.61c-.32.88-.54,1.62-.85,2.31-.22.49-.54.94-.84,1.39-.83,1.23-1.14,1.31-2.37.53-1.39-.89-2.75-1.82-4.13-2.74-.46-.31-.49-.7-.21-1.15.72-1.18,1.4-2.38,2.15-3.55.49-.75.71-.73,1.38-.21,1.24.96,2.65,1.71,3.96,2.58.34.23.61.55.91.82Z"/>
        <path class="cls-1" d="M336.09,87.8c.13.06.26.13.4.19,1.39.61,2.79,1.22,4.18,1.83.18.08.37.13.55.2.53.21.72.51.4,1.07-.67,1.21-1.27,2.45-1.94,3.65-.34.62-.76.97-1.58.55-1.49-.77-3.03-1.41-4.56-2.11-.52-.24-.6-.61-.34-1.09.69-1.22,1.39-2.45,2.08-3.67.17-.3.33-.6.5-.9.09.09.19.17.28.26Z"/>
        <path class="cls-1" d="M329.01,98.34c-.52-.12-.86-.14-1.14-.27-1.44-.69-2.87-1.41-4.3-2.13-.57-.29-.62-.71-.29-1.22.77-1.17,1.53-2.36,2.33-3.51.13-.19.53-.39.68-.32,1.65.77,3.26,1.62,4.9,2.4.55.26.59.56.33,1.05-.57,1.04-1.08,2.11-1.68,3.13-.21.37-.6.64-.83.88Z"/>
        <path class="cls-1" d="M37.77,90.63c.14.05.28.1.41.16,1.41.65,2.82,1.29,4.23,1.94.88.41.99.52.57,1.39-.64,1.3-1.4,2.54-2.15,3.78-.22.36-.49.43-.97.14-1.12-.65-2.34-1.15-3.51-1.71-.36-.17-.69-.39-1.05-.53-.64-.26-.73-.65-.37-1.21.72-1.12,1.42-2.25,2.13-3.38.17-.27.3-.56.45-.84l.27.25Z"/>
        <path class="cls-1" d="M30.69,100.19c-.68-.29-1.28-.51-1.84-.81-1.1-.6-2.17-1.25-3.26-1.88-.49-.29-.54-.65-.22-1.1.77-1.11,1.53-2.23,2.31-3.35.36-.52.69-.64,1.33-.23,1.17.76,2.44,1.37,3.7,2,1.08.54,1.17.64.57,1.7-.61,1.07-1.27,2.11-1.94,3.14-.14.22-.42.35-.64.54Z"/>
        <path class="cls-1" d="M175.31,108.92c.22.1.36.15.49.21,1.32.67,2.63,1.34,3.95,2,.85.43.98.77.53,1.63-.51.98-1.01,1.97-1.57,2.92-.2.34-.58.59-.9.85-.07.06-.25.05-.34,0-1.41-.74-2.82-1.48-4.23-2.23-.04-.02-.09-.05-.13-.08-1.09-.73-1.11-.82-.36-1.89.67-.97,1.33-1.95,2.01-2.92.14-.2.37-.35.54-.51Z"/>
        <path class="cls-1" d="M166.8,110.35c1.6.95,3.04,1.81,4.49,2.64.4.23.57.47.32.88-.49.79-.98,1.59-1.49,2.37-.26.39-.54.77-.85,1.11-.71.77-.78.79-1.68.24-1.13-.69-2.24-1.43-3.37-2.12-.61-.37-.65-.77-.23-1.32.97-1.27,1.91-2.56,2.82-3.79Z"/>
        <path class="cls-1" d="M235,23.14c.25-.21.48-.43.74-.62,2.39-1.78,4.84-3.49,7.17-5.34,2.14-1.7,4.29-3.41,6.22-5.34,2.12-2.12,3.99-4.5,5.96-6.76.18-.2.3-.48.52-.62.21-.13.51-.12.77-.17,0,.24.12.55,0,.71-.88,1.31-1.72,2.66-2.72,3.87-2.84,3.45-6.12,6.44-9.76,9.01-1.79,1.26-3.65,2.42-5.5,3.61-1.04.67-2.12,1.3-3.18,1.94-.08-.1-.15-.2-.23-.29Z"/>
        <path class="cls-1" d="M297.36,42.72c-.17.49-.32.99-.51,1.47-.47,1.16-1.03,2.3-1.43,3.49-.21.63-.27,1.36-.21,2.03.14,1.55,1.43,2.23,2.84,1.58,1.42-.65,1.53-1.27.37-2.31-.47-.43-1.02-.78-1.56-1.12-.37-.24-.48-.47-.33-.91.64-1.82.67-1.84,2.23-.71.16.12.33.22.48.35,1.01.87,1.65,1.79,1.09,3.27-.49,1.29-.94,2.52-2.12,3.36-1.05.74-2.14.91-3.24.22-1.05-.66-1.38-1.75-1.09-2.85.45-1.73,1.09-3.42,1.69-5.11.25-.69.59-1.36.92-2.02.16-.31.41-.57.61-.85.08.04.16.08.24.12Z"/>
        <path class="cls-1" d="M182.37,52.18c-.14.42-.25.85-.42,1.25-.44,1.07-.92,2.13-1.36,3.19-.09.23-.15.47-.18.72-.21,1.43.69,2.37,2.11,2.2.32-.04.63-.12.93-.24,1.12-.43,1.32-1.05.53-1.96-.54-.63-1.2-1.18-1.84-1.71-.39-.32-.5-.64-.29-1.09.03-.07.06-.14.09-.2q.52-1.49,1.73-.54c2.36,1.84,2.58,2.95,1.29,5.67-.66,1.39-1.67,2.24-3.2,2.41-1.66.19-2.93-1.06-2.64-2.71.42-2.44,1.49-4.64,2.62-6.82.07-.14.26-.21.4-.32.08.05.16.09.24.14Z"/>
        <path class="cls-1" d="M124.22,13.62c-.1.4-.2.8-.32,1.19-.44,1.49-.92,2.96-1.31,4.46-.23.87-.18,1.83.66,2.33.81.48,1.72.24,2.51-.29.72-.48.82-.91.22-1.56-.41-.45-.9-.84-1.4-1.19-.54-.38-.68-.75-.45-1.42.58-1.7.66-1.43,1.83-.56.34.25.67.51.96.81.66.68,1.05,1.44.63,2.41-.38.88-.67,1.81-1.13,2.64-.64,1.17-2.39,1.95-3.51,1.7-1.11-.25-1.7-.87-1.7-2.01,0-.85.08-1.74.33-2.55.58-1.83,1.27-3.62,1.94-5.42.09-.24.3-.43.46-.64.09.04.18.08.27.12Z"/>
        <path class="cls-1" d="M254.43,47.45c-.3.65-.6,1.29-.89,1.94-.39.88-.81,1.75-1.15,2.65-.16.43-.23.92-.23,1.38,0,.71.15,1.39.89,1.74.79.38,1.58.41,2.34-.06.64-.39.78-.9.29-1.48-.5-.6-1.11-1.12-1.73-1.6-.38-.3-.52-.56-.28-.99.05-.09.08-.18.12-.27.57-1.44.59-1.45,1.79-.5.42.33.79.74,1.16,1.14.63.69.76,1.49.35,2.33-.46.95-.85,1.95-1.45,2.8-.83,1.17-2.11,1.46-3.36.97-1.02-.4-1.56-1.11-1.49-2.22.05-.75.16-1.54.44-2.23.74-1.75,1.58-3.46,2.4-5.17.11-.23.33-.41.51-.61.1.06.2.11.29.17Z"/>
        <path class="cls-1" d="M230.23,5.14c-.22.65-.43,1.31-.65,1.96-.34.98-.69,1.95-1.02,2.93-.09.25-.14.53-.14.8-.01.81.05,1.69.84,2.08.75.36,1.48-.12,2.12-.54.51-.33.62-.79.21-1.25-.47-.54-.98-1.05-1.52-1.51-.43-.36-.56-.69-.38-1.27.55-1.78.53-1.64,1.79-.55.43.37.85.76,1.19,1.21.23.3.43.72.41,1.07-.1,1.61-.99,4.21-3.01,5.01-1.63.64-2.85,0-2.97-1.76-.06-.82.04-1.7.3-2.47.58-1.73,1.3-3.41,1.98-5.1.11-.27.34-.5.51-.75.11.05.22.09.33.14Z"/>
        <path class="cls-1" d="M63.3,109.37c-.77,1.73-1.23,3.63-2.66,5.02-.73.71-1.79.6-2.5-.14-1.03-1.08-1.3-2.39-1.09-3.77.52-3.25,2.06-6.04,4.03-8.62.46-.61.9-1.23,1.36-1.84.18-.24.41-.45.61-.68.06.03.13.06.19.09-.04.24-.03.5-.14.71-.16.33-.38.64-.61.92-1.69,2.03-2.84,4.37-3.82,6.79-.5,1.24-.39,2.49.24,3.65.71,1.31,1.9,1.36,2.74.13.34-.5.54-1.1.83-1.65.15-.28.37-.53.55-.79l.26.17Z"/>
        <path class="cls-1" d="M323.55,31.39c-.5,1.61-.99,3.24-2.09,4.58-.63.77-1.39.81-2.11.13-1.29-1.21-1.44-2.79-1.17-4.39.5-2.94,1.57-5.7,2.76-8.42.44-1.02.93-2.01,1.43-3.01.13-.26.35-.47.52-.7l.27.13c-.1.32-.17.67-.32.97-1.32,2.66-2.44,5.4-3.12,8.29-.25,1.07-.14,2.24-.18,3.36,0,.14.05.29.11.43.27.63.5,1.38,1.31,1.47.86.1,1.12-.69,1.47-1.26.33-.55.57-1.14.86-1.71.09.05.18.1.27.15Z"/>
        <path class="cls-1" d="M178.66,18.61c-.25,1.64-.51,3.28-1.57,4.64-.77.99-1.74.82-2.61.16-.91-.69-1.31-1.73-1.3-2.8.01-1.42.02-2.91.46-4.23.88-2.63,2.05-5.17,3.12-7.74.08-.19.28-.32.52-.43.05.96-.35,1.73-.77,2.53-1.3,2.43-2.41,4.94-2.18,7.79.06.69.32,1.39.58,2.05.24.62.75.96,1.46.94.69-.02,1.07-.47,1.32-1.03.18-.4.28-.84.43-1.26.09-.24.2-.47.3-.71.08.03.17.06.25.09Z"/>
        <path class="cls-1" d="M77.21,91.94c.3-.99.54-1.83,1.34-2.26,2.98-1.59,5.98-3.14,8.98-4.7,1.01-.52,2.02-1.04,3.03-1.55.19-.09.39-.16.66-.15-.42.86-.53,1.83-1.54,2.34-3.04,1.53-6.03,3.14-9.05,4.7-1.04.54-2.13,1.01-3.41,1.61Z"/>
        <path class="cls-1" d="M341.33,6.78c-.29.65-.57,1.3-.87,1.95-1.03,2.27-2.07,4.54-2.45,7.02-.16,1.02-.05,2.02.49,2.94.69,1.18,1.76,1.23,2.48.1.34-.54.56-1.15.85-1.72.14-.27.3-.53.45-.79.07.03.15.06.22.09-.09.32-.14.66-.26.97-.47,1.16-.9,2.35-1.48,3.46-1,1.91-2.43,1.19-3.3.16-.86-1.02-.99-2.29-.75-3.51.32-1.59.76-3.16,1.33-4.68.67-1.77,1.51-3.48,2.31-5.21.16-.35.46-.63.7-.94.09.05.19.11.28.16Z"/>
        <path class="cls-1" d="M370.42,2.85c-.26.51-.5,1.04-.78,1.54-1.09,1.92-2.09,3.88-2.56,6.04-.17.79-.12,1.67,0,2.48.07.46.45.93.81,1.26.48.45,1.08.41,1.47-.16.4-.58.73-1.22,1.09-1.84.14-.23.29-.45.43-.68.07.03.14.06.21.1-.12.4-.2.82-.37,1.21-.46,1.06-.87,2.16-1.47,3.14-.73,1.19-1.67,1.24-2.72.3-.69-.61-.95-1.41-1.01-2.31-.13-1.89.52-3.61,1.27-5.28.8-1.77,1.75-3.48,2.66-5.2.16-.3.46-.53.69-.79.09.06.18.13.27.19Z"/>
        <path class="cls-1" d="M209.64,20.68c-.37.68-.74,1.36-1.12,2.03-1.12,1.92-2.21,3.85-2.62,6.08-.17.92-.17,1.82.24,2.68.58,1.21,1.66,1.35,2.49.3.38-.48.65-1.04.98-1.56.15-.23.32-.44.48-.66.09.04.18.09.27.13-.35.89-.65,1.81-1.08,2.66-.34.67-.78,1.32-1.28,1.88-.78.85-1.75.82-2.58,0-.77-.76-1.05-1.71-.97-2.77.15-2.11.95-4.03,1.9-5.87.76-1.47,1.58-2.9,2.4-4.34.16-.28.43-.49.64-.74.09.06.18.13.26.19Z"/>
      </g>
      <g>
        <path class="cls-1" d="M37.39,40.9c.1.28.18.56.19.85.02.58.34,2.73.39,3.01.35,1.87,1.74,3.17,3.61,3.37,1.66.18,3.16-.37,4.59-1.11.51-.27,1.03-.59,1.21-1.21.15-.53.32-1.07.38-1.62.16-1.27-.06-2.51-.51-3.7-.52-1.38-1.31-2.58-2.62-3.33-1.17-.67-2.19-.68-3.13.54-.48.63-.84,1.32-.93,2.09-.22,1.91.35,2.93,2.42,2.94.11,0,.23-.01.34-.02.47-.02.94-.07,1.41-.06.81.02,1.55.23,2.08.91.39.49.34.93-.23,1.26-1.23.71-2.54,1.16-3.97,1.24-1.37.08-2.9-.69-3.51-2.12-.46-1.08-.66-2.22-.77-3.37-.25-2.81-.59-5.61-1.57-8.27-.53-1.43-1.16-2.83-1.75-4.23-.05-.12-.22-.27-.33-.26-.11,0-.24.18-.29.31-.14.36-.27.73-.35,1.1-.05.24-.05.52.02.75.29,1.05.62,2.08.9,3.13.47,1.72.93,3.44,1.35,5.18.17.69.13,1.43.33,2.11.22.75.02,1.38-.37,1.94-.49.69-1.05,1.36-1.67,1.94-1.54,1.45-3.31,2.57-5.24,3.44-1.08.49-2.2.88-3.43.84-.94-.03-1.66-.51-1.97-1.38-.12-.35-.19-.72-.23-1.09-.12-1.25.16-2.44.56-3.61.06-.17.14-.35.25-.49.33-.42.69-.83,1.04-1.24.08-.09.18-.17.3-.28.53.9,1.35,1.22,2.27,1.32.98.1,1.94-.38,2.3-1.16.64-1.36.87-2.77.53-4.25-.03-.12-.08-.22-.12-.36-.1.05-.18.07-.19.1-.29.76-.88,1.44-.53,2.37.24.63.01.98-.65,1.13-.93.22-1.76,0-2.47-.64-.35-.32-.4-.64-.19-1.08.19-.41.37-.82.55-1.23-.03-.03-.06-.06-.1-.09-.16.13-.38.23-.48.4-.32.51-.65,1.02-.88,1.56-.75,1.78-2.75,2.27-4.13,2.14-.39-.04-.7-.2-.85-.61-.13-.33-.31-.64-.49-.95-.06-.1-.17-.2-.27-.22-.05-.01-.17.14-.21.24-.14.36-.24.74-.41,1.08-.18.37-.08.65.12.99.78,1.36,1.42,2.77,1.53,4.36.03.41-.06.77-.37,1.05-.42.38-.82.8-1.29,1.13-2.86,2.01-5.93,3.6-9.36,4.4-1.8.42-3.63.53-5.42-.03-1.31-.41-2.35-1.22-2.93-2.46-.75-1.61-.84-3.31-.4-5.03.18-.69.45-1.37.68-2.08.16.08.24.11.31.15.66.48,1.38.65,2.18.43.83-.23,1.56-.69,2.14-1.3,1.35-1.45,2.65-2.94,3.93-4.45,1.36-1.61,2.76-3.16,4.57-4.28,1.37-.84,2.82-1.13,4.39-.85.75.14,1.35.52,1.69,1.25.2.42.56.66,1,.81,1.41.49,3.52-.43,4.14-1.88.07-.17.19-.32.29-.5.91,1.12,1.26,1.37,2.34,1.47.89.08,1.75-.05,2.23-.93.8-1.46.79-3.01.39-4.58-.02-.08-.13-.22-.18-.21-.09.02-.21.1-.25.18-.33.77-.86,1.52-.27,2.4.03.04.03.11.05.16.09.44-.05.68-.48.82-.87.28-1.67.08-2.39-.45-.48-.36-.59-.86-.4-1.44.1-.32.18-.64.28-.96-.04-.02-.08-.05-.12-.07-.13.14-.28.26-.37.42-.32.57-.63,1.15-.93,1.74-.62,1.23-1.67,1.8-3,1.9-.56.04-1.15-.08-1.43-.59-.26-.48-.68-.74-1.08-1.01-1.36-.95-2.86-.88-4.36-.42-1.29.4-2.35,1.22-3.36,2.1-1.57,1.35-2.81,3-4.14,4.57-.94,1.11-1.91,2.2-2.99,3.18-.96.87-2.12,1.45-3.5,1.41-.47-.01-.82-.2-1.09-.57-.41-.55-.57-1.18-.64-1.84-.21-1.93.3-3.69,1.32-5.3.88-1.4,1.86-2.73,2.81-4.09.12-.17.25-.38.42-.45.41-.16.84-.26,1.26-.38.34-.09.73-.11,1.02-.29.85-.52,1.72-1.03,2.47-1.67,1.83-1.55,3.34-3.4,4.82-5.27.12-.16.25-.32.4-.45.06-.06.21-.09.29-.05.8.39.9.76.43,1.5,0,.01-.01.02-.02.04-.98,1.4-1.41,3.02-1.84,4.63-.16.58.07,1.03.63,1.25.37.14.82.27,1.19.2.83-.17,1.67-.4,2.44-.75.82-.37,1.48-.98,1.63-1.96.06-.35.17-.7.18-1.05.05-1.14.01-2.29-.76-3.21-.52-.62-.45-.85.11-1.43.66-.69,1.34-1.37,1.93-2.12.88-1.13,1.26-2.48,1.52-3.87.11-.56-.19-.84-.78-.82-.74.03-1.35.36-1.91.78-1.56,1.16-2.76,2.68-4.09,4.08-.35.37-.57.35-.75-.13-.06-.16-.04-.34-.09-.5-.07-.19-.15-.41-.29-.53-.34-.28-.72-.51-1.08-.76-.2-.15-.36-.18-.44.12-.14.47-.3.93-.42,1.39-.03.12-.02.3.05.39.37.5.74,1.01,1.16,1.46.35.37.23.66-.02.97-2.48,3.05-5.23,5.78-8.76,7.63-.78.41-1.54.86-2.3,1.29.01.03.02.06.03.1.39-.09.79-.18,1.29-.3-.27.38-.44.68-.67.93-1.35,1.49-2.51,3.12-3.26,4.99-.49,1.22-.9,2.47-.62,3.83.18.88.33,1.78,1.06,2.41.38.32.34.65.17,1.06-.9,2.12-1.43,4.31-1.06,6.64.15.95.4,1.88.98,2.67,1.07,1.46,2.57,2.12,4.33,2.3,2.42.24,4.72-.26,6.94-1.16,2.2-.89,4.28-2.02,6.22-3.39,1.59-1.13,2.7-2.53,2.87-4.54.06-.7.08-1.39.14-2.09.01-.16.07-.42.17-.44.52-.15,1.06-.25,1.67-.38-.08.28-.12.48-.19.68-.42,1.22-.7,2.47-.69,3.78,0,.8.02,1.61.37,2.35.39.83,1.06,1.3,1.96,1.41.92.12,1.83-.02,2.7-.34,2.61-.96,4.92-2.39,6.89-4.36.95-.94,1.78-1.98,2.11-3.32.14-.57.24-1.16.36-1.73ZM44.56,40.49c-.29.05-.6.05-.89.08,0,.01,0,.03,0,.04-.38-.03-.77-.05-1.14-.11-.48-.08-.71-.36-.7-.77.01-.4.38-.8.81-.79.91.01,1.63.49,2.21,1.13.21.23-.08.38-.29.42ZM19.62,24.68c.24.55.16.85-.36,1.19-.83.54-1.76.8-2.74.84-.12,0-.24,0-.35-.02-.52-.06-.77-.4-.6-.89.41-1.16,1.14-2.12,2.03-2.96.06-.06.25-.07.33-.02.71.48,1.34,1.06,1.69,1.87ZM17.3,19.25c1.02-1.17,2-2.39,3.36-3.19.28-.16.6-.24.9-.36.45.06.64.26.47.65-.14.32-.36.61-.6.87-.96,1.03-1.95,2.05-2.93,3.06-.07.07-.24.17-.27.14-.34-.27-.66-.56-.97-.86-.04-.04-.02-.23.04-.3Z"/>
        <path class="cls-1" d="M13.07,45.64c-.28-.33-.44-.56-.65-.75-.41-.39-.81-.28-.89.27-.09.6-.09,1.22-.15,1.83-.06.67-.13,1.33-.21,2-.03.24-.1.47-.33.51-.42-.92-.82-1.79-1.22-2.66-.03-.07-.12-.11-.23-.2-.11.16-.24.28-.28.43-.22.8-.77,1.32-1.43,1.74-.8.5-1.62.93-2.58,1.09.39-.24.8-.47,1.17-.74.77-.56,1.54-1.13,2.27-1.73.2-.16.29-.46.46-.75-.29-.09-.49-.15-.69-.22-.65-.25-.86-1.21-.33-1.67.11-.1.38-.09.54-.03.93.33,1.39,1.14,1.84,1.94.19.34.32.71.58,1.06.02-.16.04-.32.06-.47.06-.71.12-1.42.19-2.13.02-.2.09-.39.17-.57.16-.35.33-.72.79-.74.35-.01,1,.42,1.06.77.04.3-.08.62-.15,1.04Z"/>
        <path class="cls-1" d="M0,29.51c.75-.47,1.51-.92,2.25-1.4,1.94-1.28,3.89-2.56,5.59-4.17.48-.45.94-.92,1.11-1.62-.27-.13-.53-.24-.78-.37-.75-.39-.97-.89-.62-1.65.19-.43.45-.87.79-1.19.59-.58,1.27-.35,1.41.46.08.48,0,.99.02,1.48.02.28.02.66.19.82.43.4.4.8.19,1.29-.05-.03-.1-.05-.14-.09-.49-.54-.57-.55-.95.06-.76,1.22-1.88,2.06-2.99,2.9-1.69,1.28-3.52,2.33-5.4,3.3-.2.1-.42.15-.64.23,0-.02,0-.04-.01-.06ZM9.53,21.21c-.16-.51-.26-.96-.44-1.37-.05-.12-.29-.25-.43-.24-.55.04-.84.55-.64,1.06.14.38.78.85,1.17.82.12,0,.23-.17.35-.26Z"/>
        <path class="cls-1" d="M35.55,20.29c.29.78.67,1.5.8,2.27.09.55-.1,1.17-.27,1.73-.04.15-.49.25-.73.23-.27-.02-.54-.18-.77-.35-.26-.19-.44-.14-.63.06-.12.12-.24.25-.36.37-.29.3-.63.46-1.04.3-.45-.17-.73-.51-.75-1-.02-.38.03-.77.04-1.16,0-.27.01-.54-.02-.81-.01-.12-.1-.31-.18-.32-.11-.02-.28.07-.36.16-.15.19-.25.41-.36.62-.07.15-.13.3-.22.53-.12-.65.49-1.88.99-2.11.31-.14.58-.01.6.36.03.51-.03,1.03,0,1.54.02.36.09.74.23,1.07.18.42.6.48.96.2.36-.28.58-.64.53-1.11-.06-.51-.16-1.01-.25-1.52-.01-.07-.08-.15-.06-.2.07-.22.17-.43.25-.65.12.17.3.32.34.5.1.44.14.9.2,1.36.06.52.22.99.72,1.23.17.08.4.05.6.07.01-.21.08-.44.03-.63-.15-.49-.37-.96-.53-1.44-.16-.48-.03-.9.24-1.29Z"/>
        <path class="cls-1" d="M23.03,35.67c-.11.49-.4.74-.79.93-2.24,1.07-4.47,2.15-6.71,3.23-2.04.99-4.08,1.98-6.11,2.98-.51.25-.99.55-1.52.85-.03-.44.19-.67.5-.84,1.89-.98,3.76-1.99,5.66-2.93,1.85-.92,3.73-1.79,5.6-2.68,1.03-.49,2.06-.98,3.09-1.47.07-.03.15-.04.27-.07Z"/>
        <path class="cls-1" d="M5.85,31.54c.24-.46.44-.95.73-1.38.11-.16.44-.26.66-.23.29.03.38.31.36.6-.02.34-.06.68-.06,1.03,0,.24,0,.48.05.72.06.32.19.62.58.65.38.04.62-.2.79-.5.34-.6.3-1.23.06-1.86-.2-.51-.2-.51.14-1.12.14.19.3.33.35.51.09.31.1.65.17.97.1.4.19.8.35,1.17.12.27.44.41.68.23.15-.11.22-.44.19-.66-.04-.33-.21-.65-.31-.98-.15-.51-.13-1.01.2-1.52.05.08.09.12.11.18.09.34.12.71.26,1.03.3.7.23,1.39.03,2.09-.22.77-.95,1.01-1.52.45-.34-.33-.47-.2-.67.11-.41.64-.7.79-1.2.66-.49-.13-.72-.4-.73-.92,0-.37.04-.74.06-1.11,0-.21.02-.43-.02-.64-.03-.13-.14-.34-.24-.35-.14-.02-.35.07-.43.18-.18.23-.3.51-.44.76-.04-.02-.09-.05-.13-.07Z"/>
        <path class="cls-1" d="M43.59,23.84c-.15-.24-.26-.46-.41-.64-.2-.24-.42-.28-.6.05-1.22,2.19-3.34,3.29-5.41,4.45-.03.02-.08.01-.16-.05.58-.42,1.17-.82,1.72-1.27,1.05-.86,2.07-1.74,3.1-2.62.04-.04.08-.09.11-.13.59-.75.56-.88-.28-1.28-.86-.41-1.01-.79-.57-1.62.17-.32.39-.64.64-.9.26-.27.61-.51.99-.35.38.16.57.52.55.94-.02.37-.04.74-.13,1.1-.09.37-.05.67.25.92.47.39.38.85.19,1.39ZM42.82,21.34c-.08-.27-.12-.56-.25-.8-.07-.14-.33-.33-.41-.29-.28.14-.61.31-.74.57-.15.3.08.59.39.76.11.06.23.12.34.18.52.25.61.19.66-.41Z"/>
        <path class="cls-1" d="M42.57,29.31c-.3.54-.58,1.07-.89,1.57-.04.07-.28.1-.36.05-.51-.38-1.02-.77-1.5-1.2-.1-.09-.13-.38-.06-.51.24-.44.53-.84.8-1.26.11-.18.23-.22.42-.06.41.35.85.67,1.27,1.01.11.09.18.22.32.4Z"/>
        <path class="cls-1" d="M28.75,55.78c.19-.22.34-.52.59-.66,1.34-.77,2.69-1.51,4.04-2.24,1.42-.77,2.85-1.51,4.28-2.26.19-.1.38-.18.63-.3-.08.43-.28.68-.62.85-1.61.85-3.22,1.72-4.83,2.58-1.13.6-2.26,1.2-3.39,1.81-.2.11-.38.26-.56.38-.05-.05-.1-.11-.15-.16Z"/>
        <path class="cls-1" d="M43.21,33.22c-.05.13-.08.24-.14.34-.15.26-.3.52-.46.77-.41.66-.42.68-1.05.24-.39-.28-.75-.61-1.1-.95-.07-.06-.07-.28-.02-.37.28-.45.57-.89.89-1.31.06-.08.3-.12.38-.06.45.33.88.68,1.3,1.03.09.07.13.2.2.31Z"/>
        <path class="cls-1" d="M26.53,23.78c-.29.56-.56,1.13-.87,1.67-.15.26-.4.28-.68.17-.66-.26-1.1-.93-1.01-1.71.2-1.66.86-3.16,1.73-4.57.04-.06.12-.09.27-.09-.07.16-.13.32-.22.46-.64.99-1.02,2.07-1.2,3.22-.09.59.01,1.15.41,1.61.4.47.74.4.99-.16.11-.25.24-.48.36-.73l.23.11Z"/>
        <path class="cls-1" d="M20.85,53.73c-.32.64-.6,1.31-.99,1.91-.33.52-.66.51-1.15.14-.73-.57-.88-1.32-.64-2.15.34-1.22.94-2.33,1.66-3.37.03-.04.09-.06.2-.05-.09.16-.18.32-.26.49-.35.75-.73,1.48-1.02,2.25-.24.62-.11,1.25.28,1.79.15.2.42.47.61.45.22-.02.45-.3.61-.52.15-.2.2-.47.32-.7.06-.12.17-.22.26-.33.04.03.08.05.12.08Z"/>
        <path class="cls-1" d="M19.16,44.55c-.22.23-.4.54-.67.68-1.73.94-3.48,1.84-5.23,2.75-.03.02-.08,0-.15.01.08-.41.29-.68.64-.86,1.38-.72,2.76-1.44,4.14-2.15.38-.2.76-.39,1.14-.58.04.05.09.09.13.14Z"/>
      </g>
    </g>
  </g>
</svg>