<svg width="53" height="156" viewBox="0 0 53 156" fill="none" xmlns="http://www.w3.org/2000/svg">
<path d="M39.4153 46.2202C39.4153 46.2202 41.3454 44.6702 42.8854 43.8702C44.5854 43.0002 45.8254 42.6702 47.2454 43.2202C48.5354 43.7202 48.5354 45.4302 48.5354 45.4302C48.7054 45.3702 49.9954 44.0802 50.4254 43.6402C54.1754 39.7902 51.9554 38.4202 50.7754 38.2602C50.1454 38.1602 49.4954 38.1402 48.8654 38.1602C46.8854 38.2202 45.3654 38.5302 42.9354 38.4002C40.6654 38.2802 40.3254 38.0801 40.3254 38.0801C40.3254 38.0801 45.1154 33.4602 44.8454 27.3502C44.8954 26.2902 44.4254 20.3002 40.4254 23.0502C38.1254 24.5102 32.9654 29.3602 32.8854 34.2102C32.6254 39.1102 37.5954 41.9802 38.1154 42.2802C37.0454 43.1302 36.1954 43.9902 36.1954 43.9902L34.6854 42.8602C29.5354 38.9802 28.8054 31.5202 33.1254 26.7302C36.7054 22.7502 44.6554 15.3602 47.6054 11.7202C51.4754 6.96016 48.3254 0.39019 47.9854 0.000190125C47.9654 -0.0198099 48.0654 1.54015 47.7454 3.71015C47.5554 5.00015 45.9654 7.48019 45.1454 8.50019C43.7354 10.2402 34.6754 18.8302 29.6854 24.3902C23.9454 30.7902 24.8854 40.7301 31.7354 45.9401L33.2154 47.0701C33.2154 47.0701 25.4854 54.3102 25.4854 62.3502C25.4854 71.2702 32.8454 74.4502 33.6954 74.8402C38.4954 76.7502 42.6254 76.1602 45.7254 73.5102C51.6654 68.9102 52.8754 60.0902 49.6854 55.3502C46.6954 50.9002 39.4254 46.2302 39.4254 46.2302L39.4153 46.2202ZM36.8154 30.9002C37.6254 27.1702 42.2054 24.7402 42.2054 24.7402C42.2054 24.7402 44.9254 29.7501 41.8654 34.8301C41.1654 36.0801 39.8154 37.7402 39.7554 37.7802C36.9454 36.0402 36.2254 33.6402 36.8154 30.9002ZM45.0854 69.1702C39.7254 73.5202 32.5954 69.4602 30.6154 63.5502C28.5254 55.9602 36.0254 49.3502 36.0254 49.3502C36.0254 49.3502 41.8454 53.1002 45.3854 56.8802C49.0954 60.8302 48.9254 65.3502 45.0754 69.1702H45.0854Z" fill="#EBDEBE"/>
<path d="M13.0952 35.7202C13.0952 35.7202 11.1652 37.2702 9.62523 38.0702C7.92523 38.9402 6.68523 39.2702 5.26523 38.7202C3.97523 38.2202 3.97523 36.5103 3.97523 36.5103C3.80523 36.5703 2.51523 37.8603 2.08523 38.3003C-1.66477 42.1503 0.55523 43.5203 1.73523 43.6803C2.36523 43.7803 3.01523 43.8003 3.64523 43.7803C5.62523 43.7203 7.14523 43.4103 9.57523 43.5403C11.8452 43.6603 12.1852 43.8602 12.1852 43.8602C12.1852 43.8602 7.39523 48.4802 7.66523 54.5902C7.61523 55.6502 8.08523 61.6403 12.0852 58.8903C14.3852 57.4303 19.5452 52.5802 19.6252 47.7302C19.8852 42.8302 14.9152 39.9603 14.3952 39.6603C15.4652 38.8103 16.3152 37.9502 16.3152 37.9502L17.8252 39.0802C22.9752 42.9602 23.7052 50.4202 19.3852 55.2102C15.8052 59.1902 7.85523 66.5802 4.90523 70.2202C1.03523 74.9802 4.93523 81.7703 5.26523 82.1603C5.28523 82.1803 4.43523 80.4002 4.76523 78.2302C4.95523 76.9402 6.54523 74.4602 7.36523 73.4402C8.77523 71.7002 17.8352 63.1103 22.8252 57.5503C28.5652 51.1503 27.6252 41.2103 20.7752 36.0003L19.2952 34.8703C19.2952 34.8703 27.0252 27.6302 27.0252 19.5902C27.0252 10.6702 19.6652 7.49024 18.8152 7.10024C14.0152 5.19024 9.88523 5.78032 6.78523 8.43032C0.84523 13.0303 -0.36477 21.8502 2.82523 26.5902C5.81523 31.0402 13.0852 35.7102 13.0852 35.7102L13.0952 35.7202ZM15.6952 51.0503C14.8852 54.7803 10.3052 57.2102 10.3052 57.2102C10.3052 57.2102 7.58523 52.2003 10.6452 47.1203C11.3452 45.8703 12.6952 44.2103 12.7552 44.1703C15.5652 45.9103 16.2852 48.3103 15.6952 51.0503ZM7.42523 12.7803C12.7852 8.43029 19.9152 12.4903 21.8952 18.4003C23.9852 25.9903 16.4852 32.6002 16.4852 32.6002C16.4852 32.6002 10.6652 28.8502 7.12523 25.0702C3.41523 21.1202 3.58523 16.6003 7.43523 12.7803H7.42523Z" fill="#EBDEBE"/>
<path d="M39.4153 119.74C39.4153 119.74 41.3454 118.19 42.8854 117.39C44.5854 116.52 45.8254 116.19 47.2454 116.74C48.5354 117.24 48.5354 118.95 48.5354 118.95C48.7054 118.89 49.9954 117.6 50.4254 117.16C54.1754 113.31 51.9554 111.94 50.7754 111.78C50.1454 111.68 49.4954 111.66 48.8654 111.68C46.8854 111.74 45.3654 112.05 42.9354 111.92C40.6654 111.8 40.3254 111.6 40.3254 111.6C40.3254 111.6 45.1154 106.98 44.8454 100.87C44.8954 99.8104 44.4254 93.8204 40.4254 96.5704C38.1254 98.0304 32.9654 102.88 32.8854 107.73C32.6254 112.63 37.5954 115.5 38.1154 115.8C37.0454 116.65 36.1954 117.51 36.1954 117.51L34.6854 116.38C29.5354 112.5 28.8054 105.04 33.1254 100.25C36.7054 96.2704 44.6554 88.8804 47.6054 85.2404C51.4754 80.4804 47.5754 73.6905 47.2454 73.3005C47.2254 73.2805 48.0754 75.0604 47.7454 77.2304C47.5554 78.5204 45.9654 81.0004 45.1454 82.0204C43.7354 83.7604 34.6754 92.3504 29.6854 97.9104C23.9454 104.31 24.8854 114.25 31.7354 119.46L33.2154 120.59C33.2154 120.59 25.4854 127.83 25.4854 135.87C25.4854 144.79 32.8454 147.97 33.6954 148.36C38.4954 150.27 42.6254 149.68 45.7254 147.03C51.6654 142.43 52.8754 133.61 49.6854 128.87C46.6954 124.42 39.4254 119.75 39.4254 119.75L39.4153 119.74ZM36.8154 104.42C37.6254 100.69 42.2054 98.2604 42.2054 98.2604C42.2054 98.2604 44.9254 103.27 41.8654 108.35C41.1654 109.6 39.8154 111.26 39.7554 111.3C36.9454 109.56 36.2254 107.16 36.8154 104.42ZM45.0854 142.69C39.7254 147.04 32.5954 142.98 30.6154 137.07C28.5254 129.48 36.0254 122.87 36.0254 122.87C36.0254 122.87 41.8454 126.62 45.3854 130.4C49.0954 134.35 48.9254 138.87 45.0754 142.69H45.0854Z" fill="#EBDEBE"/>
<path d="M13.0952 109.24C13.0952 109.24 11.1652 110.79 9.62523 111.59C7.92523 112.46 6.68523 112.79 5.26523 112.24C3.97523 111.74 3.97523 110.03 3.97523 110.03C3.80523 110.09 2.51523 111.38 2.08523 111.82C-1.66477 115.67 0.55523 117.04 1.73523 117.2C2.36523 117.3 3.01523 117.32 3.64523 117.3C5.62523 117.24 7.14523 116.93 9.57523 117.06C11.8452 117.18 12.1852 117.38 12.1852 117.38C12.1852 117.38 7.39523 122 7.66523 128.11C7.61523 129.17 8.08523 135.16 12.0852 132.41C14.3852 130.95 19.5452 126.1 19.6252 121.25C19.8852 116.35 14.9152 113.48 14.3952 113.18C15.4652 112.33 16.3152 111.47 16.3152 111.47L17.8252 112.6C22.9752 116.48 23.7052 123.94 19.3852 128.73C15.8052 132.71 7.85523 140.1 4.90523 143.74C1.03523 148.5 4.66523 155.6 5.00523 156C5.02523 156.02 4.44523 153.92 4.76523 151.75C4.95523 150.46 6.54523 147.98 7.36523 146.96C8.77523 145.22 17.8352 136.63 22.8252 131.07C28.5652 124.67 27.6252 114.73 20.7752 109.52L19.2952 108.39C19.2952 108.39 27.0252 101.15 27.0252 93.1103C27.0252 84.1903 19.6652 81.0103 18.8152 80.6203C14.0152 78.7103 9.88523 79.3003 6.78523 81.9503C0.84523 86.5503 -0.36477 95.3703 2.82523 100.11C5.81523 104.56 13.0852 109.23 13.0852 109.23L13.0952 109.24ZM15.6952 124.57C14.8852 128.3 10.3052 130.73 10.3052 130.73C10.3052 130.73 7.58523 125.72 10.6452 120.64C11.3452 119.39 12.6952 117.73 12.7552 117.69C15.5652 119.43 16.2852 121.83 15.6952 124.57ZM7.42523 86.3004C12.7852 81.9504 19.9152 86.0103 21.8952 91.9203C23.9852 99.5103 16.4852 106.12 16.4852 106.12C16.4852 106.12 10.6652 102.37 7.12523 98.5903C3.41523 94.6403 3.58523 90.1204 7.43523 86.3004H7.42523Z" fill="#EBDEBE"/>
</svg>
