<svg width="3973" height="1316" viewBox="0 0 3973 1316" fill="none" xmlns="http://www.w3.org/2000/svg">
<g filter="url(#filter0_d_1_59)">
<path d="M3021.91 245.264C3024.59 259.157 3027.07 272.95 3029.85 286.842C3043.83 357.296 3058.51 427.651 3071.6 498.303C3079.24 539.782 3085.39 581.657 3090.35 623.632C3094.12 655.187 3095.11 687.04 3091.64 718.794C3089.16 741.022 3084.6 763.051 3076.37 784.088C3070.02 800.461 3058.61 811.675 3044.33 821.101C3040.86 823.384 3037.68 827.551 3036.49 831.521C3027.27 862.778 3021.12 894.83 3020.33 927.279C3019.43 961.414 3023 995.45 3038.08 1027.1C3051.57 1055.29 3073.59 1073.54 3101.96 1085.45C3139.84 1101.43 3178.92 1102.92 3218.5 1095.57C3272.65 1085.55 3323.83 1066.8 3373.03 1041.99C3423.41 1016.59 3471.02 987.016 3516.05 953.178C3530.04 942.659 3543.43 931.248 3556.42 919.439C3565.45 911.203 3564.85 906.242 3556.62 897.013C3547.4 886.792 3535 882.724 3522.3 880.144C3502.47 876.075 3482.43 872.702 3462.39 869.725C3430.95 865.16 3399.41 861.389 3367.97 857.122C3363.01 856.428 3358.05 854.84 3353.29 853.153C3349.32 851.863 3348.33 849.085 3350.12 845.016C3356.76 829.536 3363.11 813.957 3369.95 798.477C3370.95 796.194 3373.72 794.309 3376.2 792.92C3391.18 784.783 3407.45 778.432 3421.03 768.509C3434.62 758.586 3446.33 745.686 3457.63 732.984C3469.83 719.291 3474.2 701.925 3473.6 683.865C3472.91 663.423 3471.02 642.982 3469.04 622.54C3467.25 603.587 3464.97 584.733 3462.2 565.879C3458.92 543.156 3455.15 520.531 3451.38 497.906C3446.92 471.908 3442.06 445.909 3437.6 419.911C3431.75 385.974 3426.29 351.938 3420.24 318.001C3412.7 275.927 3404.77 233.952 3396.93 191.878C3396.34 188.802 3395.54 185.726 3394.55 182.65C3389.99 168.856 3391.38 155.361 3395.94 141.766C3399.81 129.958 3402.49 117.752 3405.86 105.746C3406.45 103.364 3407.25 100.982 3408.44 98.8986C3409.33 97.4102 3411.21 95.4255 3412.5 95.5248C3413.79 95.5248 3415.58 97.8071 3416.07 99.3948C3418.75 107.532 3421.23 115.669 3423.41 124.004C3442.06 192.473 3453.77 262.431 3466.96 332.091C3472.61 361.861 3477.07 391.828 3482.33 421.697C3489.77 464.267 3496.32 507.135 3505.44 549.308C3510.9 574.215 3518.33 599.023 3532.91 620.853C3541.54 633.753 3553.25 643.18 3566.84 650.424C3568.22 651.119 3569.91 651.218 3573.28 652.012C3571.6 647.943 3570.7 645.165 3569.42 642.486C3551.56 605.869 3539.76 567.765 3544.22 526.584C3547.89 492.349 3560.39 460.794 3584 435.391C3603.24 414.651 3628.73 403.538 3656.1 397.088C3704.31 385.775 3749.83 394.309 3792.98 416.735C3802.3 421.598 3810.14 429.338 3818.67 435.688C3818.47 436.482 3818.17 437.276 3817.97 438.07C3815.69 438.169 3812.91 439.162 3811.13 438.268C3783.95 424.078 3755.88 429.04 3727.91 434.2C3693.79 440.452 3659.67 447.497 3627.74 461.389C3611.27 468.534 3595.9 478.06 3579.93 486.495C3573.18 490.067 3572.49 496.021 3573.18 502.669C3575.37 525.195 3580.72 546.926 3590.05 567.666C3601.95 594.26 3618.31 616.983 3641.82 634.746C3676.34 660.843 3712.34 664.813 3750.63 644.57C3785.54 626.113 3818.17 604.282 3848.42 578.978C3862.31 567.368 3875.5 555.162 3889.19 543.354C3890.78 541.965 3894.05 540.675 3895.44 541.369C3896.92 542.163 3898.31 545.636 3897.92 547.522C3893.45 567.07 3889.78 587.016 3875.2 602.198C3851.89 626.311 3825.61 646.951 3798.33 666.4C3773.84 683.865 3748.35 699.544 3721.17 712.543C3695.58 724.748 3668.7 733.878 3640.53 735.267C3609.98 736.755 3579.33 734.374 3551.66 718.993C3532.82 708.574 3519.03 692.895 3508.12 674.637C3506.13 671.362 3504.25 668.087 3502.27 664.713C3501.47 664.713 3500.78 664.614 3499.99 664.515C3498.8 668.187 3496.81 671.759 3496.41 675.43C3493.04 705.795 3484.51 734.87 3472.21 762.654C3467.55 773.272 3460.71 782.997 3454.26 792.821C3449.7 799.767 3450.19 801.751 3458.63 802.942C3475.29 805.224 3492.15 806.812 3508.71 809.491C3521.01 811.476 3533.11 814.552 3545.21 817.529C3571 823.781 3584.49 840.65 3587.17 866.648C3590.64 900.784 3585.48 933.927 3565.35 961.513C3552.85 978.68 3535 992.672 3517.54 1005.37C3484.21 1029.68 3450.39 1053.4 3415.18 1074.84C3377.49 1097.86 3338.51 1118.89 3296.66 1133.88C3265.11 1145.19 3233.47 1156.01 3200.25 1161.07C3157 1167.72 3115.34 1163.15 3075.57 1143.21C3040.16 1125.44 3019.93 1096.27 3007.63 1059.95C2991.46 1011.92 2993.05 963.299 3002.47 914.478C3006.94 891.258 3013.09 868.335 3018.44 845.215C3018.94 842.833 3019.23 840.452 3019.83 836.482C3014.97 837.177 3011 837.475 3007.13 838.368C2981.64 844.421 2956.15 849.482 2929.77 843.032C2901.01 836.085 2876.21 822.59 2857.96 799.271C2835.84 770.99 2815.11 741.617 2793.29 713.138C2781.79 698.154 2768.99 684.063 2756.79 669.477C2756 669.774 2755.3 670.171 2754.51 670.469C2754.81 673.049 2754.61 675.927 2755.5 678.308C2765.82 707.383 2766.81 737.45 2765.12 767.914C2763.83 791.431 2759.96 813.858 2746.97 834.101C2739.14 846.306 2729.02 856.13 2716.82 863.572C2707.59 869.228 2704.32 876.175 2705.21 886.991C2707.5 914.577 2702.93 941.667 2696.39 968.261C2688.15 1001.5 2668.02 1027.3 2641.44 1048.34C2629.04 1058.16 2617.24 1068.78 2604.14 1077.51C2581.23 1092.8 2557.82 1107.28 2534.12 1121.37C2514.38 1133.08 2494.15 1144.1 2473.72 1154.82C2461.52 1161.17 2448.52 1166.23 2436.03 1171.98C2424.42 1177.34 2412.92 1183.29 2401.21 1188.26C2383.06 1196 2364.81 1203.54 2346.36 1210.48C2324.34 1218.82 2302.13 1226.96 2279.71 1234C2256.1 1241.34 2232.1 1247 2206.91 1246.8C2183.8 1246.7 2160.69 1248.49 2137.58 1249.48C2122.6 1250.18 2107.52 1250.57 2092.55 1251.86C2069.04 1253.85 2045.63 1256.53 2022.13 1258.91C2017.76 1259.31 2013.4 1259.8 2009.03 1260C2007.35 1260 2005.76 1259.21 2004.07 1258.71C2005.36 1257.22 2006.26 1254.94 2007.84 1254.44C2022.42 1249.58 2037 1244.92 2051.68 1240.45C2075.19 1233.31 2098.89 1226.46 2122.4 1219.41C2138.47 1214.65 2154.64 1209.99 2170.61 1204.93C2199.96 1195.7 2229.32 1186.47 2258.38 1176.65C2296.27 1163.85 2334.46 1151.64 2371.56 1136.85C2410.24 1121.37 2448.62 1104.7 2485.62 1085.55C2526.09 1064.61 2565.46 1041.2 2604.24 1017.18C2631.62 1000.21 2657.11 980.268 2677.34 954.567C2684.68 945.239 2687.96 935.316 2683.49 923.905C2679.13 912.592 2674.47 901.28 2669.31 890.265C2668.52 888.578 2664.05 887.288 2661.77 887.785C2646.1 891.456 2630.63 896.319 2614.96 899.494C2590.46 904.555 2565.66 904.852 2541.56 898.204C2523.41 893.242 2510.02 882.426 2503.87 862.778C2496.83 840.253 2502.28 819.712 2509.32 798.774C2515.67 780.119 2526.88 765.234 2541.66 752.533C2554.95 741.221 2569.93 736.656 2587.18 739.335C2609.9 742.907 2629.24 753.029 2646.4 767.914C2660.88 780.516 2673.08 795.004 2683.19 811.278C2684.58 813.56 2689.64 815.743 2691.92 814.949C2709.08 808.995 2725.25 800.958 2738.54 788.157C2743.2 783.592 2744.99 778.432 2744.09 771.585C2740.03 738.541 2724.36 710.459 2706.31 683.468C2678.73 642.287 2645.7 605.572 2612.28 569.253C2574.49 528.37 2535.01 488.876 2497.92 447.298C2473.22 419.712 2451.3 389.645 2428.49 360.471C2426.7 358.189 2426.4 353.922 2427 350.846C2431.07 329.214 2434.74 307.482 2440.09 286.147C2445.45 264.813 2459.93 249.63 2477.48 237.127C2513.59 211.327 2552.57 190.687 2592.34 171.536C2628.44 154.17 2664.45 136.408 2701.15 120.531C2747.96 100.288 2795.18 80.7393 2842.88 62.6793C2861.83 55.5347 2882.46 50.8708 2902.59 49.2831C2936.71 46.5047 2953.08 64.267 2954.66 98.5017C2956.15 130.95 2948.91 161.712 2939.79 192.176C2926.6 236.532 2908.44 279.102 2886.03 319.489C2868.08 351.938 2848.04 383.294 2828.7 415.048C2822.35 425.468 2815.31 435.49 2808.37 445.512C2806.98 447.596 2804.9 449.283 2803.21 451.168C2802.32 450.871 2801.32 450.573 2800.43 450.275C2801.32 445.115 2801.62 439.856 2803.21 434.895C2810.05 414.056 2820.57 395.202 2832.17 376.646C2871.65 313.138 2905.96 247.15 2929.87 176.001C2934.53 162.01 2933.94 148.018 2930.07 134.126C2926.6 121.325 2916.88 114.577 2902.1 113.486C2876.61 111.6 2852.9 118.348 2829.49 127.477C2824.14 129.561 2754.11 156.254 2741.12 161.811C2720.39 170.841 2699.66 179.871 2679.23 189.397C2638.96 208.152 2598.29 226.212 2558.92 246.653C2527.97 262.729 2498.71 281.881 2468.86 299.742C2467.17 300.734 2465.88 302.223 2464.49 303.612C2456.46 311.749 2456.66 316.611 2463.1 326.038C2478.58 348.861 2499.6 366.128 2520.04 383.791C2554.35 413.461 2589.66 442.138 2624.08 471.808C2656.91 500.288 2689.54 528.966 2721.38 558.636C2755.01 589.993 2785.95 624.029 2813.82 660.546C2826.52 677.217 2838.42 694.582 2851.81 710.757C2864.51 726.137 2877.8 741.32 2892.58 754.617C2909.04 769.501 2929.97 776.944 2951.89 779.226C2990.47 783.195 3025.98 774.066 3058.12 752.037C3064.76 747.472 3067.93 742.213 3067.44 733.778C3064.66 687.834 3057.52 642.486 3048.79 597.336C3038.67 544.545 3029.05 491.655 3018.94 438.864C3011.7 401.454 3003.76 364.143 2996.62 326.733C2991.96 302.024 2988.29 277.117 2984.02 252.31C2980.95 234.25 2977.87 216.289 2974.3 198.328C2973.21 192.87 2971.92 186.916 2968.75 182.55C2962.8 174.513 2963.49 167.07 2967.16 158.636C2973.21 145.239 2978.67 131.645 2984.82 118.348C2986.11 115.569 2988.88 113.386 2990.97 110.906C2993.05 113.287 2995.93 115.272 2997.22 118.05C3007.73 140.873 3017.75 163.994 3028.26 186.817C3039.37 210.93 3050.87 234.845 3062.08 258.859C3062.78 260.447 3063.77 261.935 3063.97 263.622C3064.36 267.194 3064.36 270.866 3064.56 274.537C3060.79 273.545 3056.23 273.545 3053.45 271.263C3047.11 266.004 3041.65 259.653 3035.8 253.798C3032.13 250.127 3028.16 246.753 3024.39 243.18L3021.71 244.867L3021.91 245.264ZM2620.91 834.795C2621.3 833.505 2621.7 832.315 2622.1 831.025C2620.31 829.834 2618.23 828.941 2616.64 827.552C2603.65 816.338 2588.77 809.095 2572.31 804.828C2563.08 802.446 2555.05 804.828 2548.2 811.377C2540.27 819.018 2542.35 829.635 2553.06 831.918C2567.05 834.795 2581.23 836.978 2595.42 837.971C2603.85 838.467 2612.48 835.986 2621.01 834.795H2620.91Z" fill="white"/>
<path d="M1350.24 247.943C1351.53 258.958 1352.53 269.973 1354.11 280.987C1360.76 325.741 1367.4 370.394 1374.25 415.148C1381.98 465.358 1390.41 515.569 1397.56 565.879C1408.66 644.47 1423.44 722.664 1427.91 802.148C1430.19 842.436 1425.43 882.228 1418.09 921.722C1414.42 941.766 1406.88 960.223 1394.68 976.398C1385.06 989.199 1372.26 997.633 1357.19 1002.99C1352.82 1004.58 1348.86 1007.16 1344.69 1009.04C1312.85 1023.23 1280.02 1027.01 1245.9 1019.36C1224.87 1014.6 1207.91 1003.09 1192.74 988.504C1187.98 983.939 1183.51 979.077 1178.85 974.413C1171.31 966.673 1171.22 966.574 1162.69 972.826C1147.91 983.642 1133.43 994.855 1118.55 1005.47C1087.21 1028 1053.09 1044.57 1014.3 1049.13C989.806 1052.01 966.1 1047.15 944.379 1035.04C920.872 1021.94 906.887 1001.01 897.067 976.596C882.884 941.369 875.941 904.356 872.271 866.847C868.403 826.956 865.328 786.966 862.055 747.075C859.675 717.405 857.294 687.735 855.311 657.966C853.426 629.189 852.335 600.412 850.252 571.635C847.574 534.125 844.797 496.616 841.127 459.107C836.763 414.651 832.895 369.998 826.249 325.84C820.199 285.552 814.248 245.066 801.453 206.068C799.469 199.916 796.295 194.26 792.328 188.405C771.499 246.951 756.423 306.391 753.051 368.509C752.455 368.509 751.86 368.311 751.265 368.211C751.265 359.876 750.571 351.441 751.364 343.106C757.316 278.903 775.07 217.48 795.7 156.651C798.279 149.01 800.461 141.171 803.833 133.927C805.222 130.851 808.991 127.477 812.066 127.179C814.248 126.882 818.017 130.95 819.306 133.828C832.994 163.696 843.21 194.756 849.558 227.006C853.426 246.653 857.592 266.301 860.667 286.048C863.642 305.795 866.023 325.741 867.61 345.686C872.271 402.446 876.735 459.107 880.504 515.966C882.983 553.277 883.479 590.687 885.661 627.998C888.042 668.782 890.62 709.467 894.29 750.151C897.96 790.241 902.324 830.33 907.78 870.221C910.656 891.258 915.813 912.096 925.732 931.148C939.221 957.048 958.463 974.116 988.615 981.359C1023.73 989.794 1053.68 977.787 1083.63 964.589C1100.4 957.147 1115.57 946.132 1131.05 936.011C1139.38 930.553 1139.08 928.469 1132.73 921.027C1115.47 901.082 1098.41 880.64 1074.81 867.74C1055.86 857.42 1035.03 852.955 1014.01 859.802C1005.08 862.778 997.741 870.915 989.707 876.571C987.822 877.861 985.541 878.755 983.458 879.846C983.259 877.564 982.268 874.885 983.061 873.098C992.285 853.252 1001.81 833.505 1011.33 813.758C1016.19 803.637 1025.71 799.469 1035.33 797.286C1056.46 792.523 1077.88 788.851 1099.31 785.676C1112.3 783.691 1125.49 782.898 1138.68 782.401C1172.6 780.913 1206.62 782.004 1240.15 787.363C1264.45 791.233 1288.45 796.889 1312.26 803.141C1328.42 807.408 1328.72 808.698 1326.14 824.872C1324.26 837.276 1320.89 849.481 1317.71 861.687C1316.03 868.137 1311.56 872.106 1305.21 875.083C1276.05 888.578 1248.98 905.547 1223.68 925.195C1216.44 930.851 1216.74 932.439 1223.98 938.392C1240.65 952.086 1260.68 956.452 1281.31 958.239C1321.08 961.712 1356.2 947.621 1389.22 927.278C1398.45 921.622 1402.32 913.386 1402.12 902.074C1401.52 859.603 1395.87 817.727 1389.32 775.951C1378.31 705.894 1367.11 635.936 1355.7 565.979C1349.15 525.691 1341.22 485.602 1335.17 445.215C1326.84 389.348 1319.6 333.381 1311.86 277.415C1307.69 246.951 1303.53 216.388 1298.97 186.023C1298.07 180.367 1294.9 175.108 1293.31 169.551C1292.32 165.879 1290.83 161.216 1292.12 158.04C1299.16 140.377 1306.8 122.912 1314.64 105.646C1315.83 102.967 1319.4 101.28 1321.88 99.097C1323.66 101.479 1326.14 103.562 1327.13 106.242C1345.19 154.766 1363.14 203.29 1380.89 251.913C1384.17 260.844 1386.25 270.171 1388.53 279.4C1389.22 282.178 1388.63 285.254 1387.54 288.529C1371.57 277.911 1365.02 259.851 1352.43 247.05C1351.63 247.249 1350.94 247.547 1350.15 247.745L1350.24 247.943ZM1143.94 846.504C1146.02 850.077 1146.82 852.061 1148.01 853.55C1158.22 866.251 1168.64 878.854 1178.75 891.655C1181.93 895.624 1184.8 895.922 1188.57 892.945C1202.06 882.525 1215.75 872.305 1229.14 861.786C1231.22 860.198 1232.51 857.519 1235.29 854.046C1204.64 848.588 1175.58 845.909 1143.94 846.504Z" fill="white"/>
<path d="M552.895 690.712C547.44 744.594 532.066 793.714 489.119 833.009C494.673 834.696 497.847 836.284 501.12 836.681C522.048 838.864 542.976 840.154 563.805 842.833C580.865 845.016 597.23 850.077 612.009 859.206C627.085 868.534 634.227 882.724 633.83 899.891C632.937 934.82 627.879 969.154 604.769 997.038C593.66 1010.43 580.468 1022.64 566.483 1033.06C539.009 1053.5 511.039 1073.74 481.779 1091.51C454.106 1108.28 424.946 1122.66 395.587 1136.36C359.781 1153.03 322.587 1166.52 283.805 1174.76C246.016 1182.8 207.829 1185.68 169.841 1177.04C155.856 1173.87 142.466 1167.32 129.671 1160.57C119.554 1155.21 110.231 1147.87 101.503 1140.43C87.5176 1128.62 77.4999 1113.63 70.1602 1096.86C54.4889 1060.84 50.4223 1022.84 52.5052 984.237C55.4808 930.851 69.4659 879.747 89.1046 830.231C98.7255 805.919 109.338 782.004 119.356 757.891C120.943 754.22 122.034 750.35 123.423 746.48C92.4769 737.45 78.8885 720.779 76.6072 689.124C73.9292 652.607 80.5746 617.281 92.8736 583.245C106.76 544.843 122.828 507.333 138.003 469.427C140.383 463.572 142.466 457.42 145.442 451.863C154.269 435.093 163.493 418.522 172.817 402.049C173.809 400.362 176.388 399.568 178.272 398.278C178.57 400.66 179.76 403.438 178.966 405.522C171.627 425.17 164.188 444.718 156.451 464.168C146.334 489.372 135.226 514.081 125.902 539.583C118.067 561.116 110.826 583.046 106.065 605.373C101.404 627.006 101.106 649.333 111.52 669.973C114.595 676.125 119.158 682.079 124.415 686.544C133.54 694.284 142.268 693.788 150.5 685.155C155.559 679.797 159.328 672.95 163.097 666.5C166.568 660.645 169.048 654.294 172.321 648.241C173.214 646.554 175.396 645.562 176.983 644.272C177.776 646.356 179.264 648.539 179.165 650.623C178.47 666.202 174.007 680.789 166.965 694.78C151.492 725.443 135.523 755.807 121.042 786.966C99.3207 833.803 83.7486 882.525 79.7812 934.324C76.8056 974.116 81.0706 1012.82 97.6345 1049.83C109.338 1075.83 129.473 1092.2 154.864 1103.81C177.677 1114.23 201.581 1116.71 226.179 1117.5C265.059 1118.79 302.551 1111.35 338.754 1098.05C373.965 1085.06 409.374 1071.86 443.394 1055.98C495.764 1031.57 544.861 1001.4 589.692 964.689C595.148 960.223 600.107 955.063 605.264 950.201C609.43 946.232 609.728 942.362 606.455 937.301C596.139 921.126 579.873 914.081 562.516 910.707C541.488 906.539 519.965 904.753 498.74 901.875C466.405 897.509 433.773 894.929 402.431 884.609C396.281 882.625 395.289 879.846 397.273 874.488C403.125 858.71 408.58 842.734 414.928 827.055C416.118 823.979 420.086 821.399 423.359 819.911C457.181 803.736 488.523 784.188 511.039 753.227C522.048 738.045 528.495 721.771 528.198 702.223C527.206 647.646 521.453 593.466 515.601 539.186C509.551 482.525 503.5 425.964 497.252 369.303C493.284 333.381 489.218 297.46 484.457 261.637C481.779 241.295 477.613 221.25 474.241 201.007C473.844 198.427 473.943 195.55 474.538 193.069C478.407 176.596 482.176 160.223 486.441 143.949C487.432 140.278 490.21 137.003 492.193 133.53C494.673 136.805 498.144 139.683 499.533 143.354C513.221 178.68 519.172 215.793 525.024 253.004C527.503 268.881 530.28 284.758 532.463 300.734C536.331 329.313 540.199 357.792 543.67 386.371C549.82 436.582 555.474 486.792 561.722 536.904C564.896 562.506 567.673 588.306 572.533 613.709C577.493 639.31 582.948 665.11 591.577 689.62C603.182 722.764 626.589 744.793 662.693 750.35C669.14 751.342 675.686 752.434 682.133 752.93C686.894 753.327 689.175 750.548 689.076 745.686C688.58 729.313 688.382 713.039 687.886 696.666C686.894 667.194 691.655 638.814 702.863 611.426C708.814 596.74 716.253 583.443 728.155 572.429C744.124 557.643 760.489 559.033 776.061 573.917C790.84 588.008 797.684 606.862 803.238 625.914C816.727 671.66 812.264 716.512 794.014 759.876C786.278 778.234 770.705 790.141 753.249 798.477C739.859 804.927 725.279 808.896 711.095 813.56C706.731 815.048 704.251 817.033 703.458 821.895C698.895 847.1 694.135 872.305 689.076 897.509C687.687 904.455 685.208 911.203 682.827 917.752C682.133 919.638 679.653 920.729 677.967 922.218C676.678 920.332 674.694 918.546 674.297 916.462C673.801 913.684 674.297 910.608 674.893 907.829C678.86 886.892 683.125 866.152 686.696 845.215C687.787 838.566 686.993 831.62 686.894 824.773C686.795 819.216 683.125 816.834 678.166 816.934C652.873 817.43 629.069 812.171 608.339 797.385C599.016 790.737 590.089 782.501 583.245 773.371C571.542 757.594 564.896 739.037 560.532 719.787C558.251 709.963 555.573 700.238 553.192 690.414L552.895 690.712ZM702.962 710.36C703.458 710.459 703.954 710.657 704.549 710.757C705.342 721.97 706.235 733.183 707.029 744.297C707.425 749.457 709.806 751.144 714.765 749.754C734.8 744.297 754.737 738.541 772.193 726.733C776.954 723.458 781.715 719.787 785.286 715.222C787.369 712.642 788.36 707.78 787.369 704.604C783.5 691.804 779.83 678.705 773.78 666.897C767.631 654.89 759.795 643.478 750.868 633.356C743.33 624.823 736.189 625.418 728.948 633.952C722.501 641.394 715.658 649.73 712.98 658.859C708.12 675.53 706.136 693.094 702.863 710.26L702.962 710.36Z" fill="white"/>
<path d="M1513.4 702.62C1515.09 708.474 1516.28 714.23 1513.6 720.481C1492.28 771.287 1478 823.979 1472.84 878.953C1470.16 908.325 1474.03 936.904 1488.31 962.803C1503.68 990.687 1526.1 1010.93 1556.15 1023.43C1588.19 1036.73 1621.32 1043.08 1655.44 1041.79C1692.14 1040.4 1728.44 1034.25 1763.25 1022.34C1794.89 1011.53 1826.73 1000.71 1856.68 985.924C1892.49 968.261 1926.51 946.827 1960.93 926.385C1975.21 917.951 1988.9 908.325 2001.99 898.204C2015.88 887.487 2028.97 875.778 2041.86 863.771C2049.3 856.825 2049.5 853.451 2041.66 846.901C2034.03 840.451 2025.2 834.498 2015.98 830.727C1991.48 820.704 1965.09 819.613 1939.21 816.438C1910.34 812.964 1881.58 808.896 1852.82 804.53C1843.89 803.24 1835.26 800.164 1826.53 798.08C1821.37 796.79 1819.79 793.714 1821.57 788.851C1827.52 772.28 1833.28 755.609 1839.82 739.335C1840.81 736.755 1845.08 734.274 1848.15 733.778C1877.81 729.412 1906.48 721.176 1934.25 710.36C1954.08 702.62 1973.33 693.59 1988.5 677.812C1994.75 671.263 1996.54 664.813 1993.76 655.981C1986.62 633.257 1972.63 614.8 1958.45 596.443C1932.86 563.299 1910.74 527.874 1890.8 491.158C1889.42 488.678 1889.02 484.808 1889.91 482.129C1895.66 464.962 1901.52 447.894 1907.96 431.025C1910.64 423.979 1913.42 424.277 1919.17 429.437C1932.26 441.245 1945.75 452.458 1958.75 464.366C1967.18 472.106 1975.01 480.442 1982.85 488.876C1984.73 490.96 1985.43 494.135 1986.72 496.715C1986.22 497.41 1985.63 498.005 1985.13 498.7C1981.06 497.708 1977 496.815 1973.03 495.525C1971.24 494.929 1969.66 492.945 1967.87 492.845C1963.71 492.647 1959.44 493.143 1955.18 493.441C1956.27 496.715 1956.56 500.486 1958.45 503.265C1971.64 522.317 1985.72 540.873 1998.42 560.223C2018.75 591.283 2023.22 625.319 2015.88 661.439C2011.41 683.369 2006.45 705.1 1993.36 723.657C1986.72 733.084 1978.19 741.32 1969.66 751.144C1972.63 752.037 1975.81 753.525 1978.98 754.021C2001.99 757.097 2024.8 760.967 2046.03 771.387C2060.71 778.531 2070.43 789.844 2073.21 805.621C2078.07 833.208 2076.28 860.794 2062.79 885.602C2054.76 900.387 2042.76 913.188 2031.15 925.691C2009.43 949.209 1982.75 966.574 1956.46 984.535C1917.29 1011.33 1877.02 1036.23 1833.77 1055.98C1798.46 1072.16 1762.26 1086.64 1724.37 1095.48C1684.4 1104.7 1643.93 1111.25 1602.37 1105.4C1571.82 1101.13 1542.47 1092.89 1516.18 1076.92C1486.43 1058.76 1466.39 1032.86 1457.86 998.03C1450.12 966.177 1449.13 934.126 1451.51 901.975C1454.19 865.061 1461.53 828.842 1474.03 793.912C1483.75 766.822 1494.26 740.03 1504.68 713.138C1506.16 709.268 1509.04 705.894 1511.22 702.322C1511.92 702.52 1512.61 702.719 1513.31 703.017L1513.4 702.62Z" fill="white"/>
<path d="M1940.1 1162.16C1909.95 1163.25 1879.7 1164.04 1849.54 1165.53C1815.92 1167.32 1782.39 1169.8 1748.77 1171.78C1746.29 1171.88 1743.71 1170.39 1741.23 1169.6C1743.22 1167.62 1744.9 1164.34 1747.28 1163.75C1782.59 1153.92 1818 1144.5 1853.31 1134.87C1898.34 1122.57 1943.57 1111.25 1988.2 1097.66C2029.27 1085.06 2069.73 1070.57 2110.2 1055.98C2140.45 1045.07 2170.31 1032.86 2200.16 1020.75C2215.04 1014.7 2229.42 1007.66 2244 1000.91C2266.02 990.588 2288.54 981.26 2309.86 969.551C2336.05 955.262 2361.54 939.385 2386.73 923.31C2393.97 918.745 2399.92 911.6 2405.08 904.654C2407.66 901.082 2408.95 894.533 2407.56 890.365C2401.21 871.709 2395.26 852.657 2386.33 835.192C2363.72 790.737 2344.97 744.694 2329.1 697.46C2327.42 692.399 2327.72 687.934 2330 682.774C2336.05 668.881 2341.11 654.592 2346.86 640.601C2347.95 637.921 2350.23 634.151 2352.41 633.754C2354.5 633.456 2357.67 636.532 2359.55 638.814C2373.64 655.684 2387.72 672.454 2401.21 689.72C2406.07 695.971 2409.25 703.513 2412.92 710.658C2413.61 712.047 2412.82 714.23 2412.62 716.115C2410.83 715.718 2408.95 715.619 2407.36 714.925C2401.71 712.245 2396.15 709.169 2390.5 706.49C2386.14 704.406 2384.25 706.688 2384.94 710.757C2385.64 714.825 2387.03 718.795 2388.71 722.565C2398.24 743.503 2407.16 764.739 2417.68 785.081C2433.15 814.85 2435.53 845.81 2430.07 878.358C2425.31 906.639 2418.97 934.225 2401.61 957.544C2393.57 968.36 2383.16 977.688 2372.55 986.222C2343.09 1009.84 2309.86 1027.8 2276.63 1045.26C2255.51 1056.38 2234.38 1067.49 2212.66 1077.22C2187.47 1088.43 2161.78 1098.25 2136.09 1108.28C2115.26 1116.41 2094.33 1124.65 2073.11 1131.89C2040.38 1142.91 2008.04 1155.71 1973.43 1160.27C1962.32 1161.76 1951.11 1161.86 1939.9 1162.56C1939.9 1162.56 1939.9 1162.46 1939.9 1162.36L1940.1 1162.16Z" fill="white"/>
<path d="M3214.93 228.891C3235.26 350.846 3255.49 472.9 3275.93 595.55C3277.71 594.756 3279.5 594.26 3280.98 593.168C3316 569.452 3345.26 539.98 3368.57 504.654C3375.31 494.334 3375.11 494.036 3364.8 488.182C3357.36 484.014 3349.82 479.846 3342.68 475.282C3333.06 469.03 3330.58 463.076 3333.55 452.161C3337.52 437.574 3341.49 422.888 3353.59 412.171C3367.28 400.164 3384.04 404.53 3387.61 422.491C3390.09 434.696 3389.99 447.696 3389.1 460.298C3388.5 468.137 3387.11 473.793 3394.65 479.946C3403.97 487.487 3404.27 501.876 3397.53 515.867C3395.05 512.295 3393.16 509.219 3390.98 506.341C3385.63 499.296 3382.45 499.395 3378.19 507.135C3354.88 549.506 3322.64 583.642 3282.87 610.732C3278.7 613.61 3277.31 616.487 3278.11 621.647C3285.25 667.591 3291 713.634 3291.99 760.174C3292.69 795.202 3292.39 830.132 3283.27 864.267C3282.37 867.74 3281.08 871.412 3279.1 874.389C3277.91 876.274 3274.64 878.159 3272.85 877.762C3270.97 877.366 3268.59 874.289 3268.39 872.206C3267.89 867.442 3269.18 862.481 3268.88 857.619C3267.2 831.322 3266.5 804.828 3263.23 778.73C3257.97 736.061 3251.13 693.59 3244.88 651.02C3244.58 648.737 3243.69 646.554 3242.7 642.684C3207.29 667.591 3172.08 690.514 3134.59 709.467C3134.19 708.971 3133.69 708.574 3133.3 708.077C3135.68 705.597 3137.66 702.818 3140.34 700.734C3164.14 682.774 3188.05 665.011 3211.85 647.05C3220.18 640.7 3228.52 634.25 3236.25 627.105C3238.53 624.922 3239.82 620.159 3239.33 616.884C3233.97 581.856 3228.22 546.926 3222.47 511.898C3212.65 452.359 3202.53 392.821 3193.01 333.282C3187.25 297.063 3182.3 260.844 3176.94 224.525C3174.26 206.664 3171.48 188.802 3168.51 171.04C3167.91 167.666 3167.12 164.093 3165.33 161.315C3160.67 154.071 3161.66 147.621 3165.14 140.179C3170.89 127.775 3175.45 114.875 3180.91 102.273C3182 99.6926 3184.87 97.9064 3186.86 95.8225C3188.54 98.0056 3190.83 99.891 3191.92 102.372C3201.24 123.806 3210.56 145.339 3219.49 166.971C3230.5 193.763 3241.21 220.754 3251.82 247.745C3252.82 250.226 3253.61 253.004 3253.51 255.584C3253.51 258.164 3252.32 260.744 3251.63 263.424C3249.05 262.332 3245.77 261.935 3244.19 260.05C3237.14 252.012 3230.5 243.478 3223.66 235.242C3221.57 232.662 3219.19 230.281 3217.01 227.8C3216.32 228.097 3215.62 228.494 3214.93 228.792V228.891ZM3377.49 469.427C3378.19 468.732 3378.98 468.038 3379.67 467.343C3379.67 455.932 3378.68 444.619 3372.04 434.696C3367.47 427.949 3359.74 427.254 3352.89 432.513C3346.65 437.276 3344.27 447.795 3349.52 451.863C3358.35 458.512 3368.17 463.771 3377.49 469.526V469.427Z" fill="white"/>
<path d="M1554.67 100.089C1556.65 105.448 1558.73 110.906 1560.72 116.264C1577.78 163.002 1595.03 209.74 1611.9 256.676C1614.47 263.721 1616.06 271.263 1617.25 278.606C1617.75 281.384 1615.86 284.56 1615.17 287.537C1611.6 285.949 1606.84 285.254 1604.75 282.476C1599.1 275.133 1594.74 266.897 1589.58 259.157C1586.01 253.798 1582.04 248.837 1578.17 243.677C1577.48 243.974 1576.69 244.371 1575.99 244.669C1577.18 253.004 1578.47 261.241 1579.56 269.576C1587.69 328.122 1595.93 386.668 1604.06 445.215C1610.31 490.265 1616.86 535.217 1622.91 580.268C1626.08 603.984 1628.46 627.8 1631.34 651.615C1635.4 684.857 1639.67 718.001 1643.83 751.243C1650.88 807.11 1653.75 863.275 1652.16 919.539C1651.47 945.041 1651.57 970.94 1642.35 995.549C1641.35 998.328 1640.66 1001.4 1638.87 1003.59C1636.89 1005.87 1633.82 1007.06 1631.14 1008.75C1629.85 1006.17 1627.67 1003.59 1627.57 1001.01C1626.87 980.268 1627.77 959.33 1625.98 938.69C1622.11 893.441 1617.55 848.192 1612.09 803.141C1606.34 755.113 1599.2 707.284 1592.65 659.355C1586.8 616.487 1581.15 573.619 1575.4 530.851C1566.07 461.786 1556.55 392.821 1547.43 323.756C1542.86 289.422 1539.29 254.89 1534.43 220.556C1531.85 201.801 1531.36 182.451 1522.43 164.986C1521.44 162.903 1521.44 159.429 1522.43 157.346C1530.86 139.98 1539.59 122.813 1548.32 105.646C1549.31 103.662 1551 101.876 1552.29 99.9902C1553.08 100.089 1553.87 100.189 1554.67 100.288V100.089Z" fill="white"/>
<path d="M2121.21 240.898C2121.71 247.844 2121.71 254.89 2122.7 261.737C2125.77 284.461 2129.15 307.085 2132.22 329.809C2136.59 361.662 2140.95 393.515 2145.12 425.368C2152.16 479.846 2159.5 534.324 2165.75 588.901C2171.4 637.723 2176.66 686.544 2180.52 735.465C2183.3 770.99 2184.69 806.713 2184.79 842.337C2184.99 887.785 2182.51 933.133 2171.7 977.589C2170.61 982.054 2169.71 986.817 2167.43 990.786C2165.75 993.664 2162.18 995.45 2159.4 997.633C2158.11 994.557 2155.83 991.382 2155.83 988.306C2155.83 959.926 2157.71 931.546 2156.22 903.364C2153.94 858.015 2150.27 812.667 2146.01 767.418C2141.64 721.97 2136.29 676.522 2130.54 631.173C2124.68 584.634 2117.74 538.293 2111.59 491.754C2106.73 454.939 2102.27 418.125 2097.7 381.211C2093.24 345.091 2088.88 308.971 2084.41 272.751C2081.34 247.547 2078.86 222.243 2074.99 197.137C2073.6 187.611 2069.04 178.68 2066.46 169.353C2065.57 166.177 2065.27 162.109 2066.46 159.132C2072.41 144.148 2078.96 129.462 2085.31 114.676C2086.2 112.692 2086.99 110.509 2088.38 108.822C2091.65 104.555 2096.02 105.051 2097.9 109.913C2106.33 130.95 2114.37 152.186 2122.9 173.123C2132.62 197.038 2142.83 220.754 2152.45 244.669C2155.83 253.004 2158.41 261.737 2160.98 270.37C2161.58 272.354 2161.68 274.934 2160.98 276.82C2160.39 278.705 2158.6 280.987 2157.02 281.384C2155.73 281.682 2153.25 279.896 2152.16 278.308C2144.52 267.889 2137.18 257.271 2129.64 246.753C2127.86 244.272 2125.58 242.188 2123.49 239.906C2122.7 240.203 2121.91 240.501 2121.11 240.799L2121.21 240.898Z" fill="white"/>
<path d="M1067.67 296.17C1067.37 346.976 1057.55 387.958 1044.36 428.246C1040.59 439.757 1037.41 451.665 1032.65 462.778C1030.07 468.831 1024.82 473.793 1020.35 478.953C1019.16 480.342 1016.59 480.342 1014.6 481.037C1014.11 478.854 1012.62 476.373 1013.11 474.587C1015.59 466.45 1018.87 458.511 1021.35 450.275C1030.67 419.315 1038.41 388.057 1039.6 355.51C1041.08 312.344 1028.49 272.751 1006.77 236.234C992.583 212.319 975.721 189.992 960.447 166.772C958.661 163.994 957.769 159.132 958.86 156.155C963.522 143.85 968.878 131.744 974.432 119.836C978.3 111.501 980.978 111.402 986.83 118.745C1016.88 157.048 1043.66 197.336 1057.15 244.669C1062.61 264.019 1065.29 284.163 1067.67 296.17Z" fill="white"/>
<path d="M328.041 671.957C328.637 667.194 328.934 662.431 329.827 657.866C335.778 626.509 333.993 595.053 331.91 563.597C329.033 520.928 318.916 479.648 307.609 438.665C304.039 425.765 300.468 412.766 297.889 399.568C294.715 383.493 298.088 367.715 304.435 353.029C309.891 340.427 322.586 335.961 334.489 331.198C339.448 329.214 344.605 327.527 349.763 325.641C349.961 324.55 350.16 323.359 350.259 322.267C343.118 318.001 336.274 313.039 328.736 309.665C323.777 307.482 319.214 310.062 317.131 315.619C316.338 317.802 315.445 319.886 312.668 321.97C312.073 320.382 310.585 318.596 310.982 317.306C313.362 308.673 315.544 299.94 319.016 291.704C320.603 287.834 321.892 285.254 321.099 280.59C317.429 259.157 308.204 240.203 297.096 222.044C293.922 216.785 290.549 211.724 283.507 217.678C282.714 218.373 280.333 217.678 278.846 217.182C271.308 214.403 263.968 211.228 256.43 208.549C247.801 205.473 242.643 196.939 244.528 187.909C245.42 183.642 246.511 179.375 247.404 175.009C249.884 163.994 255.438 160.918 266.051 164.788C283.309 171.238 295.905 183.543 304.733 199.122C311.775 211.625 316.933 225.12 322.983 238.219C323.677 239.608 324.372 240.997 325.066 242.386C325.76 242.386 326.554 242.188 327.248 242.188C327.248 235.242 327.248 228.296 327.248 221.449C327.05 200.809 329.232 180.466 335.381 160.62C336.77 156.056 338.853 151.392 341.531 147.422C347.184 138.988 356.706 137.301 365.335 142.56C367.22 143.751 369.005 145.041 370.79 146.331C381.602 154.071 383.585 163.498 376.94 175.306C374.857 179.077 372.972 178.482 370.195 175.902C366.228 172.329 362.161 168.658 357.599 166.078C348.97 161.116 341.63 164.093 339.249 173.818C337.266 182.054 336.472 190.687 335.877 199.122C334.191 222.937 332.802 246.852 331.215 270.767C330.918 274.835 329.827 278.804 329.033 283.468C346.292 289.224 359.483 301.131 371.881 314.031C381.8 324.45 376.642 343.007 363.054 346.976C349.069 351.044 334.786 354.716 321.297 360.174C307.808 365.631 305.923 370.692 309.395 384.981C316.238 412.766 323.975 440.253 330.323 468.137C341.134 515.569 345.696 563.597 342.721 612.22C342.126 621.746 340.638 631.173 339.448 640.6C338.555 647.943 338.059 655.485 336.472 662.729C335.679 666.4 332.902 669.675 331.116 673.049C330.124 672.652 329.232 672.255 328.24 671.858L328.041 671.957Z" fill="white"/>
<path d="M2258.39 640.501C2256.7 587.512 2241.23 538.988 2214.45 493.739C2213.65 492.449 2213.16 490.96 2212.07 490.067C2201.95 481.037 2203.73 471.412 2209.78 460.893C2214.55 452.657 2217.62 443.528 2222.18 435.192C2226.35 427.651 2229.42 427.849 2234.18 435.192C2247.67 456.13 2257 478.953 2264.24 502.57C2270.98 524.302 2277.13 546.133 2278.62 568.956C2281.1 605.175 2281.89 641.394 2271.78 676.621C2263.94 704.009 2254.91 731 2245.99 758.09C2243.61 765.135 2239.84 771.883 2236.27 778.432C2234.98 780.814 2232.5 782.997 2230.12 784.188C2226.45 785.974 2223.77 784.585 2224.46 779.921C2224.76 778.035 2225.55 776.15 2226.15 774.364C2235.08 746.281 2245 718.397 2252.43 689.819C2256.6 673.942 2256.5 656.973 2258.29 640.501H2258.39Z" fill="white"/>
<path d="M1196.9 641.692C1197.7 627.899 1197.7 615.396 1199.48 603.29C1201.86 587.115 1204.74 570.94 1209.2 555.262C1216.44 529.958 1233.01 526.485 1250.76 545.736C1259.79 555.46 1260.18 565.879 1251.65 579.077C1247.69 574.711 1244.02 570.444 1239.95 566.475C1228.15 554.865 1217.93 557.346 1214.96 573.917C1211.78 591.68 1211.48 609.839 1208.81 627.7C1206.43 643.776 1202.76 659.752 1199.19 675.629C1198.69 678.01 1195.61 679.697 1193.63 681.781C1192.04 679.3 1189.66 677.117 1188.97 674.438C1183.71 652.409 1175.38 631.57 1163.28 612.419C1158.72 605.175 1155.35 605.175 1152.47 613.014C1141.06 644.272 1115.47 662.134 1089.59 679.3C1052.59 703.91 1011.92 721.275 970.266 736.259C961.538 739.335 953.107 743.205 944.478 746.579C942.395 747.373 940.213 748.067 938.031 748.861C937.733 748.266 937.436 747.571 937.138 746.976C939.816 745.289 942.395 743.304 945.271 741.915C997.939 715.619 1050.41 688.727 1098.31 654.294C1113.79 643.18 1127.28 628.99 1140.57 615.098C1148.8 606.663 1147.21 603.786 1136.2 600.412C1132.93 599.42 1129.66 598.427 1126.48 597.038C1114.28 591.68 1111.21 585.428 1114.28 572.627C1115.67 566.971 1117.16 561.315 1118.75 555.559C1120.13 550.399 1124.1 547.72 1128.66 549.705C1135.91 552.88 1143.54 556.254 1149.3 561.414C1169.83 580.069 1182.82 603.686 1191.35 629.983C1192.34 632.96 1193.43 635.937 1194.62 638.913C1194.82 639.509 1195.52 640.005 1196.9 641.791V641.692Z" fill="white"/>
<path d="M3632.7 1117.21C3634.78 1111.25 3636.56 1105.99 3638.55 1100.83C3651.04 1066.7 3654.22 1031.47 3651.54 995.45C3647.97 947.422 3629.72 905.646 3598.18 869.625C3595.1 866.152 3594.51 863.175 3596.1 859.107C3601.15 846.901 3605.92 834.597 3611.07 822.49C3614.25 815.247 3617.72 814.85 3622.78 820.704C3644.1 845.413 3657.49 874.19 3667.11 905.051C3680.9 949.407 3679.61 994.061 3672.37 1039.21C3668.3 1064.81 3658.88 1088.03 3645.39 1109.86C3643.01 1113.63 3640.53 1118.69 3632.6 1117.21H3632.7Z" fill="white"/>
<path d="M1370.08 1070.07C1362.44 1079.9 1355.8 1090.81 1346.97 1099.44C1323.86 1122.07 1298.67 1142.11 1268.42 1154.82C1228.15 1171.78 1186.49 1180.22 1142.65 1176.25C1132.43 1175.36 1123.31 1171.59 1115.18 1165.23C1107.14 1158.88 1104.96 1150.45 1109.42 1141.22C1115.67 1128.32 1123.61 1116.71 1135.41 1108.18C1137.79 1106.49 1140.47 1105.1 1144.04 1102.92C1136.9 1098.15 1132.34 1095.38 1128.17 1092.3C1122.81 1088.33 1121.23 1083.47 1124.2 1076.92C1131.64 1061.04 1140.27 1046.16 1154.45 1035.24C1164.57 1027.4 1173.7 1026.41 1181.73 1032.76C1186.19 1036.23 1188.67 1040.1 1184.7 1045.76C1181.33 1050.62 1178.75 1055.98 1175.38 1061.93C1172.21 1058.16 1170.52 1055.09 1167.94 1053.2C1160.11 1047.55 1141.56 1055.39 1140.57 1065.01C1140.27 1067.69 1142.65 1072.16 1145.13 1073.45C1153.56 1077.81 1162.29 1081.48 1171.22 1084.56C1173.7 1085.45 1177.37 1083.57 1180.14 1082.38C1187.68 1078.9 1195.02 1075.03 1202.56 1071.56C1203.95 1070.96 1205.63 1070.96 1209.1 1070.47C1203.45 1079.9 1201.67 1088.83 1191.35 1093.79C1171.81 1103.12 1152.87 1114.03 1134.32 1125.15C1120.73 1133.38 1121.62 1142.11 1136 1148.76C1151.38 1155.91 1167.84 1155.91 1184.21 1154.82C1217.83 1152.53 1250.46 1145.29 1281.21 1131.3C1311.66 1117.41 1337.25 1096.86 1360.26 1072.85C1362.35 1070.67 1365.02 1069.08 1367.4 1067.29C1368.3 1068.19 1369.19 1069.08 1370.08 1069.87V1070.07Z" fill="white"/>
<path d="M2812.43 981.657C2810.55 986.123 2809.26 989.1 2807.87 992.374C2797.95 987.115 2788.13 982.749 2779.31 976.894C2771.17 971.536 2774.05 962.406 2774.84 954.666C2775.24 950.598 2777.22 946.728 2778.71 942.858C2782.08 934.423 2786.55 931.943 2793.89 937.003C2805.09 944.545 2816.2 952.781 2825.53 962.506C2838.52 976.1 2845.46 993.565 2850.82 1011.53C2851.31 1013.21 2851.81 1014.8 2852.41 1016.39C2852.5 1016.79 2853 1017.08 2854.39 1018.27C2854.98 1014.5 2855.68 1011.43 2855.98 1008.25C2858.46 986.123 2861.73 964.093 2869.86 943.255C2872.64 936.209 2877.4 929.759 2882.06 923.806C2885.83 919.043 2891.29 919.142 2896.74 921.821C2908.94 927.676 2913.8 938.988 2909.44 951.59C2908.05 955.56 2906.66 959.43 2904.68 965.086C2900.71 958.933 2898.33 954.468 2895.25 950.499C2887.81 940.873 2877.4 942.263 2873.93 954.071C2870.56 965.483 2868.67 977.39 2866.89 989.199C2862.72 1015.69 2860.04 1042.58 2850.02 1067.79C2838.52 1096.86 2818.98 1119.79 2794.08 1137.85C2776.53 1150.55 2757.78 1161.76 2738.64 1171.78C2727.83 1177.54 2715.13 1179.62 2703.23 1183.39C2691.73 1187.07 2680.22 1190.74 2668.12 1193.02C2677.14 1188.06 2686.17 1182.8 2695.3 1178.04C2729.51 1160.07 2763.63 1142.31 2794.18 1118.2C2812.83 1103.41 2829 1086.74 2840.5 1065.9C2843.08 1061.14 2844.37 1054.69 2843.68 1049.33C2841.2 1027.8 2832.77 1008.45 2820.27 990.786C2818.19 987.81 2815.61 985.23 2812.33 981.459L2812.43 981.657Z" fill="white"/>
<path d="M2622.59 417.231C2613.07 415.644 2604.14 415.644 2596.41 412.667C2587.58 409.194 2579.65 403.141 2571.51 398.08C2570.82 397.584 2570.62 394.607 2570.82 394.508C2572.7 393.714 2574.88 392.821 2576.77 393.118C2583.22 394.21 2589.56 396.294 2596.01 397.088C2619.62 400.064 2642.73 396.691 2665.74 391.729C2691.63 386.172 2717.41 380.516 2743.3 374.761C2745.28 374.364 2748.46 372.974 2748.56 371.784C2748.76 369.799 2747.37 367.219 2745.78 365.631C2737.75 357.594 2727.23 355.708 2716.62 356.403C2703.73 357.296 2690.93 359.479 2678.14 360.967C2667.52 362.257 2656.81 363.448 2646.1 364.441C2643.22 364.738 2640.15 364.441 2637.37 363.845C2623.68 360.571 2620.51 352.831 2627.45 340.625C2641.74 315.222 2662.27 296.765 2689.15 285.75C2694.9 283.369 2701.35 282.079 2707.59 281.682C2716.52 280.987 2719.5 286.445 2715.03 294.086C2713.25 297.261 2711.36 300.536 2708.78 303.116C2707.3 304.604 2704.32 305.001 2702.04 305.1C2696.29 305.398 2690.24 304.009 2684.88 305.497C2668.71 309.963 2655.32 319.191 2644.02 331.496C2638.96 336.954 2639.85 340.824 2647.09 342.312C2653.44 343.602 2660.18 343.999 2666.63 343.205C2681.21 341.518 2695.49 337.847 2710.07 336.854C2722.57 335.961 2735.47 336.358 2747.67 338.839C2753.81 340.129 2759.37 346.976 2764.03 352.334C2767.9 356.8 2767.8 362.754 2764.73 368.211C2762.54 372.28 2760.26 376.348 2758.38 380.615C2753.52 391.233 2745.09 395.5 2733.78 397.385C2713.84 400.66 2694.2 405.721 2674.27 409.392C2656.81 412.568 2639.16 414.85 2622.39 417.43L2622.59 417.231Z" fill="white"/>
<path d="M727.361 1090.51C727.956 1122.76 723.394 1154.32 713.475 1185.08C711.789 1190.44 709.409 1195.6 706.632 1200.46C705.64 1202.25 702.664 1203.04 700.581 1204.23C699.589 1201.95 697.507 1199.57 697.804 1197.48C698.697 1191.43 700.78 1185.68 701.97 1179.72C715.161 1115.62 705.838 1056.38 664.279 1004.08C659.519 998.03 652.675 993.664 647.418 988.008C645.533 986.023 644.046 981.756 644.938 979.573C650.394 965.979 656.543 952.682 662.692 939.385C665.271 933.629 668.941 935.316 672.512 938.492C691.357 955.163 704.449 975.703 713.574 999.122C724.981 1028.69 726.865 1059.55 727.361 1090.61V1090.51Z" fill="white"/>
<path d="M1291.33 354.617C1288.15 369.105 1283.39 379.127 1269.81 385.18C1242.83 397.187 1216.74 411.178 1190.36 424.475C1176.17 431.62 1162.09 438.765 1148.01 446.108C1119.94 460.695 1091.87 475.182 1064 490.166C1051.6 496.815 1039.79 504.555 1027.4 511.402C997.74 527.874 967.985 543.949 938.328 560.323C930.889 564.49 923.847 569.452 916.607 573.917C914.821 575.009 912.937 575.902 910.953 576.894C909.069 569.055 913.929 556.552 920.872 552.285C943.982 538.095 966.993 523.706 990.599 510.409C1026.7 489.968 1063.1 469.923 1099.7 450.275C1124.7 436.879 1150.09 424.277 1175.28 411.476C1202.95 397.385 1230.63 383.493 1258.3 369.601C1267.03 365.234 1275.86 360.968 1284.68 356.8C1286.27 356.006 1288.15 355.708 1291.43 354.716L1291.33 354.617Z" fill="white"/>
<path d="M1466.99 367.814C1482.46 377.241 1494.46 389.844 1505.07 403.934C1528.48 434.895 1534.04 470.022 1526.7 506.936C1520.55 538.293 1511.82 569.154 1504.38 600.213C1502.2 609.243 1500.41 618.373 1498.92 627.502C1498.33 631.273 1498.33 635.341 1498.82 639.211C1499.82 647.05 1501.3 655.286 1509.93 658.363C1519.06 661.538 1525.11 655.088 1531.16 649.829C1534.83 646.554 1535.52 642.287 1531.56 639.013C1525.8 634.249 1519.75 629.685 1513.31 625.914C1508.25 622.937 1506.46 620.258 1508.84 614.304C1515.29 598.03 1515.39 597.633 1530.27 607.159C1539.99 613.312 1549.51 620.456 1546.63 633.853C1544.85 642.089 1542.27 650.821 1537.71 657.668C1532.35 665.805 1525.11 673.247 1517.27 679.102C1507.16 686.743 1493.07 681.285 1488.41 669.476C1483.75 657.767 1484.84 645.76 1487.52 634.051C1491.48 616.884 1496.54 600.015 1500.91 583.046C1507.75 556.552 1513.9 529.759 1514.69 502.272C1515.98 456.725 1497.24 421.002 1461.23 393.912C1451.71 386.767 1451.51 381.211 1461.23 373.768C1463.32 372.181 1464.9 369.997 1466.89 367.814H1466.99Z" fill="white"/>
<path d="M3795.06 800.561C3792.58 797.881 3791.29 796.492 3790.1 795.103C3783.85 787.561 3776.71 786.371 3769.07 792.325C3765.11 795.401 3761.14 799.271 3758.86 803.637C3757.47 806.217 3758.26 812.369 3760.15 813.758C3768.08 819.216 3776.81 823.582 3785.44 827.849C3787.03 828.643 3790.1 827.353 3792.18 826.262C3798.63 822.689 3804.68 818.621 3811.13 815.148C3813.71 813.758 3816.68 813.163 3820.15 813.064C3815.89 821.598 3813.61 830.33 3804.68 836.085C3786.93 847.596 3769.87 860.298 3753.11 873.297C3744.87 879.648 3745.77 887.189 3755.09 892.449C3761.04 895.822 3768.18 898.402 3774.93 898.998C3809.54 901.975 3840.29 890.662 3868.85 872.305C3885.02 861.885 3899.4 849.68 3911.6 834.795C3912.99 833.108 3915.17 832.116 3917.06 830.826C3917.85 831.422 3918.65 832.017 3919.44 832.612C3915.77 838.566 3912.79 845.115 3908.43 850.474C3888.29 875.182 3864.29 895.425 3835.13 908.722C3814.5 918.05 3792.68 923.309 3769.77 922.218C3759.06 921.722 3749.14 918.844 3740.71 911.699C3732.97 905.249 3730.99 899.196 3734.66 889.67C3739.72 876.671 3745.47 863.969 3756.18 854.344C3758.66 852.161 3760.35 849.085 3762.63 846.108C3757.27 841.841 3752.61 838.07 3747.85 834.398C3742.59 830.231 3741.3 825.071 3743.68 818.72C3750.13 801.752 3759.45 786.668 3772.45 774.165C3782.86 764.044 3792.68 764.54 3800.12 775.257C3801.61 777.44 3802.4 781.211 3801.71 783.791C3800.22 789.248 3797.64 794.408 3795.06 800.858V800.561Z" fill="white"/>
<path d="M700.086 423.979C700.383 426.261 701.077 428.544 700.78 430.727C698.499 446.405 693.639 461.091 684.613 474.289C680.447 480.441 674.793 480.938 668.545 478.159C656.643 472.801 651.287 462.878 649.204 450.672C646.129 432.811 648.41 415.148 652.08 397.584C658.13 368.707 664.379 339.831 670.033 310.856C678.959 265.507 667.057 225.219 638.789 189.397C631.846 180.566 624.506 172.032 616.77 163.895C612.902 159.926 612.604 156.651 615.679 152.384C616.572 151.193 617.365 149.903 617.96 148.613C624.209 136.408 624.903 136.209 634.227 145.934C657.833 170.543 677.67 197.236 685.605 231.471C689.969 250.523 689.77 269.377 685.803 288.132C679.455 318.199 671.322 347.968 665.569 378.134C661.999 396.889 658.229 416.338 663.784 435.49C665.569 441.543 669.041 447.695 673.405 452.161C678.86 457.718 684.712 456.328 688.183 449.184C691.06 443.031 692.746 436.383 695.027 429.933C695.821 427.75 696.713 425.666 697.507 423.582C698.4 423.681 699.193 423.781 700.086 423.979Z" fill="white"/>
<path d="M867.411 1124.45C858.286 1132.59 850.649 1128.32 843.012 1126.43C833.49 1124.05 828.729 1116.02 826.448 1108.08C824.861 1102.52 827.936 1095.57 829.027 1089.22C829.126 1088.53 829.82 1088.03 830.316 1087.44C834.879 1082.38 833.49 1070.96 844.599 1072.85C851.641 1074.04 858.286 1078.11 865.328 1078.7C876.14 1079.6 874.553 1088.73 877.429 1094.58C885.066 1109.76 892.108 1125.34 899.051 1140.82C901.531 1146.48 903.019 1152.53 904.903 1158.39C905.598 1158.39 906.193 1158.29 906.887 1158.19C908.474 1147.97 909.664 1137.75 911.549 1127.63C914.524 1112.34 917.897 1097.06 921.269 1081.78C921.864 1078.9 923.153 1076.22 924.443 1073.54C928.113 1065.71 931.683 1057.47 942.296 1057.57C949.537 1057.57 961.042 1067 962.034 1076.03C962.827 1083.67 959.455 1091.7 957.967 1099.54C957.075 1099.54 956.281 1099.74 955.389 1099.74C953.901 1098.05 952.314 1096.37 950.925 1094.58C948.842 1091.9 947.057 1088.93 944.776 1086.35C938.527 1079.3 931.981 1079.7 929.303 1088.53C925.038 1102.42 922.657 1116.81 919.781 1131.1C915.714 1151.64 912.045 1172.28 907.879 1192.82C907.383 1195 904.308 1196.69 902.325 1198.67C900.936 1196.39 898.952 1194.31 898.357 1191.93C894.588 1174.36 888.339 1157.79 878.223 1142.81C874.453 1137.15 871.279 1131 867.312 1124.25L867.411 1124.45Z" fill="white"/>
<path d="M1797.47 909.516C1796.08 912.989 1794.79 916.562 1793.31 920.035C1786.46 936.706 1768.91 944.247 1755.32 935.812C1744.11 928.966 1743.51 917.455 1744.01 905.944C1744.31 898.105 1745.7 890.365 1745.99 882.625C1746.19 878.556 1745.99 874.091 1744.61 870.32C1743.22 866.847 1739.94 861.886 1737.46 861.786C1733.99 861.786 1729.53 865.061 1727.15 868.137C1724.07 872.206 1722.78 877.465 1719.02 881.732C1718.82 880.243 1718.22 878.556 1718.62 877.167C1721.99 867.244 1725.07 857.222 1729.33 847.696C1732.01 841.841 1737.36 837.276 1744.61 838.566C1751.94 839.856 1755.12 845.909 1755.32 852.558C1755.61 862.779 1754.23 872.999 1754.42 883.22C1754.62 891.159 1755.42 899.296 1757.6 906.837C1759.68 913.982 1766.13 916.462 1773.57 915.073C1786.66 912.692 1795.09 901.876 1793.31 888.678C1791.52 875.976 1790.43 862.878 1779.92 853.252C1776.94 850.474 1781.4 837.078 1785.37 835.688C1789.93 834.2 1793.4 836.284 1794.59 840.551C1797.77 851.764 1800.94 862.977 1803.22 874.488C1805.5 885.999 1810.66 894.632 1822.56 897.609C1825.34 898.303 1828.42 898.402 1831.19 897.906C1843.49 895.525 1844.98 892.052 1838.43 881.335C1836.25 877.762 1834.07 874.289 1831.69 870.916C1831 869.923 1829.61 869.526 1828.52 868.832C1827.13 864.862 1825.84 860.298 1823.85 855.932C1821.47 850.772 1823.36 833.704 1827.62 830.231C1828.52 829.536 1832.58 830.628 1833.28 831.918C1838.24 841.543 1842.1 851.863 1847.56 861.191C1852.92 870.519 1855.99 879.747 1853.01 890.464C1852.32 892.846 1852.12 895.227 1851.82 897.708C1849.44 917.951 1832.19 927.973 1813.34 919.539C1807.89 917.058 1803.12 913.089 1797.37 909.417L1797.47 909.516Z" fill="white"/>
<path d="M1851.03 173.917C1847.16 182.848 1842.7 181.657 1836.55 177.291C1831 173.421 1823.95 171.833 1818.1 168.46C1814.73 166.475 1811.56 163.399 1809.57 160.025C1806.5 154.666 1810.46 132.141 1815.52 129.065C1818.8 127.08 1824.45 126.783 1828.22 128.172C1843.79 133.629 1856.09 144.148 1866.6 156.552C1878.6 170.643 1887.73 186.42 1892.79 204.381C1893.78 208.053 1895.07 211.625 1897.85 214.999C1898.14 212.022 1898.44 208.946 1898.64 205.969C1900.23 180.566 1900.43 155.063 1909.25 130.752C1911.83 123.706 1915.4 116.959 1919.47 110.608C1923.34 104.555 1929.69 102.471 1936.03 106.44C1941.69 110.013 1946.45 114.875 1951.41 119.439C1952.5 120.432 1953.09 122.714 1952.7 124.203C1951.11 130.851 1949.22 137.4 1947.14 143.949C1946.84 145.041 1945.06 145.636 1944.86 145.835C1940.4 140.774 1936.83 135.515 1932.07 131.744C1925.02 126.187 1918.97 127.477 1915.7 135.912C1912.82 143.255 1911.43 151.392 1910.54 159.33C1907.77 182.848 1905.98 206.465 1903 229.884C1902.21 236.334 1898.44 242.486 1895.57 248.638C1894.97 249.928 1892.49 250.424 1890.9 251.317C1890.11 249.63 1888.72 248.142 1888.52 246.356C1885.25 220.159 1873.25 198.229 1856.29 178.581C1855.1 177.192 1853.41 176.1 1850.93 173.917H1851.03Z" fill="white"/>
<path d="M289.657 716.611C298.088 725.641 301.361 734.473 302.749 744.197C303.84 751.739 303.94 759.479 306.221 766.623C308.403 773.669 312.271 780.317 316.338 786.47C318.123 789.05 322.388 790.637 325.76 791.332C328.835 791.927 333.398 791.63 335.084 789.744C336.572 788.157 335.381 783.394 334.29 780.516C328.736 765.631 321.099 751.342 323.975 734.671C324.868 729.213 326.951 723.855 328.438 718.496C329.232 718.596 329.926 718.695 330.72 718.893C331.91 724.947 333.001 731 334.489 736.953C335.58 741.419 336.671 746.083 338.754 750.151C346.391 765.135 347.68 780.516 344.407 797.087C340.837 815.842 326.455 822.193 310.883 810.484C306.618 807.308 302.353 804.034 297.79 800.66C297.592 801.156 296.203 803.438 295.31 806.018C292.533 814.651 287.078 820.804 279.143 825.071C269.622 830.231 259.505 828.444 254.545 818.819C251.074 812.171 248.991 804.232 248.693 796.691C248.297 787.76 250.578 778.73 251.471 769.799C251.967 764.242 252.562 758.586 252.066 753.029C251.768 750.35 249.09 745.785 247.503 745.785C244.726 745.785 240.957 748.067 239.37 750.449C235.998 755.807 233.915 761.86 231.038 767.517C229.65 770.295 227.666 772.875 225.881 775.455C225.087 775.058 224.393 774.76 223.6 774.363C224.591 770.196 225.187 765.929 226.674 762.059C230.146 752.93 233.816 743.9 237.783 734.969C239.072 732.19 240.957 728.916 243.437 727.527C247.206 725.443 252.264 722.962 255.835 724.053C258.81 724.946 262.083 730.603 262.083 734.274C262.282 747.67 260.992 761.067 260.695 774.562C260.596 781.111 260.695 787.859 262.183 794.11C264.563 804.232 272.399 806.812 281.425 801.751C292.632 795.5 297.294 785.676 295.013 773.47C293.029 762.754 289.657 752.334 286.384 742.014C283.706 733.58 286.979 726.435 289.359 716.512L289.657 716.611Z" fill="white"/>
<path d="M3179.82 778.73C3182.1 782.401 3185.37 785.874 3186.46 789.943C3189.73 801.95 3192.41 814.056 3194.99 826.261C3196.78 834.597 3200.45 841.94 3208.28 845.314C3211.75 846.802 3217.21 845.909 3220.98 844.222C3225.44 842.138 3225.74 837.276 3223.75 832.711C3220.38 824.872 3217.01 817.033 3213.74 809.095C3209.27 798.08 3211.55 780.318 3218 773.57C3221.87 784.188 3225.04 795.401 3229.8 805.721C3237.34 822.193 3235.06 838.765 3229.61 854.344C3222.46 874.984 3208.28 875.678 3193.01 861.588C3191.42 860.198 3190.33 858.313 3188.84 856.527C3185.37 862.878 3182.79 869.129 3178.92 874.587C3171.88 884.311 3160.87 888.38 3152.34 885.502C3141.93 881.93 3135.18 872.404 3134.88 860C3134.79 855.336 3135.28 850.771 3135.78 846.108C3136.77 836.085 3136.27 826.559 3133.59 816.537C3131.91 809.988 3135.78 801.851 3137.17 794.508C3138.26 794.408 3139.45 794.21 3140.54 794.111C3142.03 796.79 3144.6 799.469 3144.9 802.248C3145.6 810.186 3145.89 818.224 3145.4 826.261C3144.8 835.589 3143.51 844.718 3148.27 853.55C3152.64 861.687 3158.99 864.465 3167.81 861.687C3178.62 858.313 3186.36 846.604 3183.78 835.49C3181.2 824.376 3177.14 813.659 3173.67 802.744C3173.27 801.355 3172.38 799.866 3172.67 798.675C3174.06 792.324 3175.75 786.073 3177.24 779.722C3178.03 779.524 3178.82 779.226 3179.62 779.028L3179.82 778.73Z" fill="white"/>
<path d="M3802.1 151.888C3797.04 160.819 3792.58 169.75 3782.86 175.604C3753.4 193.267 3724.44 211.923 3695.18 230.082C3648.76 258.958 3602.24 287.636 3555.83 316.512C3546.5 322.267 3537.28 328.122 3527.96 334.076C3526.07 326.733 3531.03 316.214 3538.27 311.65C3568.22 292.895 3598.28 274.14 3628.33 255.386C3659.38 235.937 3690.32 216.487 3721.47 197.137C3744.87 182.55 3768.48 168.261 3792.09 153.972C3794.86 152.285 3798.04 151.293 3801.01 150.003C3801.41 150.598 3801.9 151.293 3802.3 151.888H3802.1Z" fill="white"/>
<path d="M1791.72 451.267C1788.54 460 1786.36 467.244 1783.29 474.19C1781.11 479.052 1777.93 483.518 1774.96 487.983C1766.82 500.089 1763.65 500.982 1751.55 493.242C1737.76 484.411 1724.27 475.182 1710.68 466.152C1706.12 463.076 1705.92 459.305 1708.6 454.741C1715.74 443.031 1722.49 431.124 1729.93 419.613C1734.69 412.17 1736.97 412.468 1743.51 417.529C1755.81 427.055 1769.7 434.497 1782.69 443.131C1786.06 445.314 1788.74 448.588 1791.62 451.267H1791.72Z" fill="white"/>
<path d="M3279.7 918.447C3280.98 919.042 3282.27 919.737 3283.56 920.332C3297.35 926.385 3311.14 932.439 3324.92 938.492C3326.71 939.285 3328.59 939.782 3330.38 940.476C3335.64 942.56 3337.42 945.537 3334.35 951.094C3327.7 963.002 3321.75 975.306 3315.2 987.214C3311.83 993.366 3307.76 996.84 3299.63 992.672C3284.95 985.13 3269.58 978.68 3254.5 971.833C3249.34 969.452 3248.55 965.78 3251.23 961.017C3258.07 948.911 3265.02 936.805 3271.86 924.699C3273.55 921.722 3275.13 918.745 3276.82 915.768C3277.71 916.661 3278.7 917.455 3279.6 918.348L3279.7 918.447Z" fill="white"/>
<path d="M3209.67 1022.74C3204.51 1021.55 3201.24 1021.35 3198.46 1020.06C3184.18 1013.21 3170.1 1006.07 3155.91 999.023C3150.26 996.244 3149.76 991.977 3153.04 987.016C3160.67 975.406 3168.11 963.696 3176.05 952.186C3177.34 950.3 3181.3 948.316 3182.79 949.01C3199.06 956.651 3215.03 965.086 3231.29 972.826C3236.75 975.406 3237.14 978.383 3234.57 983.146C3229.01 993.466 3223.85 1003.98 3218 1014.11C3215.92 1017.78 3212.05 1020.46 3209.77 1022.84L3209.67 1022.74Z" fill="white"/>
<path d="M328.042 946.43C329.43 946.926 330.819 947.423 332.108 948.018C346.093 954.369 359.979 960.819 373.964 967.269C382.693 971.337 383.784 972.429 379.618 980.963C373.27 993.863 365.831 1006.17 358.392 1018.37C356.21 1021.95 353.532 1022.64 348.771 1019.76C337.663 1013.31 325.661 1008.45 314.057 1002.79C310.585 1001.11 307.213 998.923 303.642 997.534C297.294 994.954 296.402 991.183 299.972 985.527C307.014 974.413 314.057 963.299 321 952.086C322.686 949.407 323.975 946.529 325.463 943.751L328.141 946.232L328.042 946.43Z" fill="white"/>
<path d="M257.918 1041.2C251.273 1038.32 245.222 1036.23 239.668 1033.16C228.758 1027.2 218.145 1020.75 207.433 1014.5C202.573 1011.62 202.077 1008.15 205.251 1003.59C212.888 992.572 220.426 981.459 228.063 970.444C231.634 965.383 234.907 964.093 241.156 968.162C252.76 975.703 265.357 981.756 277.755 987.909C288.467 993.267 289.36 994.259 283.409 1004.68C277.458 1015.3 270.812 1025.52 264.167 1035.74C262.778 1037.92 260.001 1039.21 257.819 1041.1L257.918 1041.2Z" fill="white"/>
<path d="M1688.86 1127.53C1691.05 1128.52 1692.43 1129.02 1693.72 1129.61C1706.72 1136.16 1719.71 1142.81 1732.8 1149.46C1741.23 1153.72 1742.52 1157.1 1738.06 1165.63C1733 1175.36 1728.04 1185.18 1722.49 1194.51C1720.5 1197.88 1716.73 1200.36 1713.66 1202.94C1712.97 1203.54 1711.18 1203.44 1710.29 1202.94C1696.3 1195.7 1682.42 1188.26 1668.43 1180.91C1668.03 1180.71 1667.64 1180.42 1667.14 1180.12C1656.33 1172.97 1656.13 1172.08 1663.57 1161.36C1670.22 1151.74 1676.66 1142.01 1683.51 1132.49C1684.9 1130.5 1687.18 1129.02 1688.86 1127.43V1127.53Z" fill="white"/>
<path d="M1604.66 1141.72C1620.52 1151.04 1634.71 1159.68 1649.09 1167.81C1653.06 1170.1 1654.74 1172.48 1652.26 1176.45C1647.4 1184.29 1642.54 1192.13 1637.49 1199.87C1634.91 1203.74 1632.13 1207.51 1629.05 1210.88C1622.11 1218.52 1621.32 1218.72 1612.39 1213.26C1601.18 1206.42 1590.27 1199.17 1579.07 1192.32C1573.02 1188.65 1572.62 1184.78 1576.78 1179.23C1586.41 1166.62 1595.63 1153.92 1604.66 1141.72Z" fill="white"/>
<path d="M2279.51 278.407C2281.99 276.323 2284.27 274.14 2286.85 272.255C2310.56 254.691 2334.66 237.623 2357.87 219.365C2379.09 202.595 2400.32 185.626 2419.36 166.475C2440.29 145.438 2458.84 122.019 2478.38 99.5931C2480.16 97.6085 2481.35 94.83 2483.54 93.4408C2485.62 92.1508 2488.59 92.25 2491.17 91.7538C2491.17 94.1354 2492.26 97.2115 2491.17 98.7992C2482.44 111.798 2474.21 125.095 2464.29 137.102C2436.22 171.238 2403.79 200.809 2367.69 226.311C2349.93 238.814 2331.58 250.325 2313.33 262.034C2303.02 268.683 2292.41 274.835 2281.89 281.285C2281.1 280.293 2280.4 279.3 2279.61 278.407H2279.51Z" fill="white"/>
<path d="M94.1629 260.546C97.0393 228.693 106.561 201.404 120.645 175.604C121.34 174.314 123.621 174.016 125.109 173.223C125.505 174.91 126.795 176.993 126.299 178.383C124.117 183.84 121.439 189 118.86 194.26C111.818 208.648 107.355 223.83 106.66 239.906C106.264 248.043 107.355 256.577 115.19 260.347C123.621 264.416 132.448 261.737 140.086 256.477C142.069 255.088 143.756 253.203 145.342 251.417C148.814 247.447 149.905 243.379 144.946 239.509C139.193 235.043 133.639 230.181 127.688 226.013C122.927 222.739 121.439 219.464 123.522 213.709C128.878 198.725 126.993 198.328 141.573 207.854C143.656 209.144 145.541 210.732 147.525 212.22C158.931 220.655 162.7 230.28 158.633 245.165C154.468 260.248 147.128 271.759 134.829 280.392C120.943 290.017 104.379 287.04 97.5352 273.744C95.2539 269.179 94.9564 263.523 94.2621 260.546H94.1629Z" fill="white"/>
<path d="M2896.54 472.205C2894.86 477.068 2893.47 482.029 2891.48 486.792C2886.82 498.303 2881.27 509.516 2877.4 521.325C2875.32 527.576 2874.72 534.82 2875.32 541.469C2876.71 556.75 2889.4 563.498 2903.49 557.147C2917.47 550.697 2918.66 544.644 2907.16 534.225C2902.49 529.958 2897.04 526.485 2891.78 523.111C2888.11 520.729 2887.02 518.447 2888.51 514.081C2894.86 496.021 2895.05 495.922 2910.63 507.036C2912.21 508.226 2913.9 509.219 2915.39 510.509C2925.31 519.142 2931.75 528.172 2926.2 542.957C2921.34 555.758 2916.88 567.963 2905.17 576.2C2894.76 583.543 2884.05 585.23 2873.04 578.383C2862.62 571.833 2859.45 561.116 2862.32 550.201C2866.79 533.034 2873.13 516.363 2879.09 499.692C2881.57 492.845 2884.94 486.197 2888.21 479.747C2889.8 476.671 2892.28 474.091 2894.26 471.312C2895.05 471.709 2895.85 472.106 2896.64 472.503L2896.54 472.205Z" fill="white"/>
<path d="M1758.79 565.879C1757.4 570.047 1756.31 574.215 1754.72 578.283C1750.36 588.901 1745.7 599.32 1741.23 609.938C1740.34 612.121 1739.75 614.602 1739.45 616.983C1737.46 631.074 1746.29 640.402 1760.38 638.814C1763.45 638.417 1766.62 637.623 1769.6 636.433C1780.71 632.166 1782.59 626.013 1774.86 616.983C1769.5 610.732 1763.05 605.373 1756.61 600.015C1752.74 596.839 1751.65 593.664 1753.73 589.199C1754.03 588.504 1754.33 587.909 1754.62 587.214C1758.06 577.423 1763.78 575.637 1771.78 581.856C1795.09 600.015 1797.37 611.029 1784.58 638.02C1778.03 651.813 1768.01 660.149 1752.84 661.935C1736.37 663.82 1723.88 651.416 1726.65 635.142C1730.82 611.029 1741.43 589.199 1752.54 567.665C1753.23 566.276 1755.12 565.582 1756.41 564.49C1757.2 564.986 1758 565.383 1758.79 565.879Z" fill="white"/>
<path d="M1183.42 184.138C1182.42 188.107 1181.43 192.076 1180.34 195.946C1175.98 210.633 1171.22 225.22 1167.35 240.104C1165.07 248.737 1165.56 258.263 1173.89 263.225C1181.93 267.988 1190.95 265.607 1198.79 260.347C1205.93 255.683 1206.92 251.317 1200.97 244.867C1196.9 240.402 1192.04 236.631 1187.09 233.158C1181.73 229.387 1180.34 225.716 1182.62 219.067C1188.37 202.297 1189.07 204.877 1200.67 213.51C1204.05 215.991 1207.32 218.571 1210.2 221.449C1216.74 228.097 1220.51 235.639 1216.44 245.264C1212.67 253.996 1209.8 263.126 1205.24 271.362C1198.89 282.873 1181.63 290.613 1170.42 288.132C1159.41 285.651 1153.56 279.499 1153.66 268.286C1153.66 259.851 1154.45 251.02 1156.93 242.982C1162.59 224.823 1169.53 207.06 1176.17 189.298C1177.07 186.916 1179.15 185.031 1180.74 182.947C1181.63 183.344 1182.52 183.741 1183.42 184.138Z" fill="white"/>
<path d="M2471.73 519.043C2468.76 525.493 2465.78 531.843 2462.9 538.293C2459.04 547.026 2454.87 555.56 2451.6 564.49C2450.01 568.757 2449.32 573.52 2449.32 578.085C2449.32 585.031 2450.8 591.779 2458.14 595.351C2465.98 599.122 2473.72 599.42 2481.25 594.756C2487.6 590.886 2488.99 585.924 2484.13 580.169C2479.17 574.314 2473.12 569.055 2467.07 564.391C2463.3 561.414 2461.91 558.834 2464.29 554.666C2464.79 553.773 2465.09 552.88 2465.48 551.987C2471.14 537.797 2471.24 537.599 2483.14 547.026C2487.3 550.3 2490.97 554.369 2494.54 558.338C2500.79 565.185 2501.98 573.024 2498.02 581.459C2493.45 590.787 2489.59 600.809 2483.63 609.144C2475.4 620.754 2462.71 623.533 2450.41 618.67C2440.29 614.701 2434.93 607.656 2435.63 596.74C2436.12 589.298 2437.22 581.459 2439.99 574.711C2447.23 557.346 2455.66 540.476 2463.8 523.508C2464.89 521.226 2467.07 519.439 2468.86 517.455C2469.85 518.05 2470.84 518.546 2471.73 519.142V519.043Z" fill="white"/>
<path d="M2232.2 100.189C2230.02 106.639 2227.93 113.188 2225.75 119.638C2222.38 129.362 2218.91 138.988 2215.64 148.713C2214.74 151.193 2214.25 153.972 2214.25 156.552C2214.15 164.589 2214.74 173.322 2222.58 177.192C2229.92 180.764 2237.16 176.001 2243.61 171.833C2248.66 168.559 2249.66 163.994 2245.69 159.429C2241.03 154.17 2236.07 149.109 2230.71 144.545C2226.55 140.973 2225.26 137.698 2226.94 132.042C2232.4 114.379 2232.2 115.867 2244.6 126.584C2248.86 130.256 2253.03 134.126 2256.4 138.591C2258.58 141.568 2260.67 145.736 2260.47 149.209C2259.48 165.185 2250.65 190.886 2230.71 198.824C2214.64 205.175 2202.54 198.824 2201.35 181.459C2200.76 173.421 2201.75 164.689 2204.33 157.048C2210.08 139.98 2217.12 123.309 2223.97 106.539C2225.06 103.86 2227.34 101.578 2229.03 99.097C2230.12 99.5932 2231.21 99.9901 2232.3 100.486L2232.2 100.189Z" fill="white"/>
<path d="M580.567 1131.89C572.93 1149.06 568.367 1167.81 554.283 1181.61C547.142 1188.65 536.529 1187.56 529.586 1180.22C519.37 1169.6 516.692 1156.5 518.874 1142.91C523.932 1110.76 539.306 1083.17 558.747 1057.57C563.309 1051.52 567.673 1045.36 572.236 1039.41C574.021 1037.03 576.203 1034.94 578.286 1032.66C578.881 1032.96 579.575 1033.26 580.171 1033.55C579.774 1035.94 579.873 1038.52 578.881 1040.5C577.294 1043.78 575.112 1046.85 572.831 1049.63C556.168 1069.77 544.761 1092.89 535.041 1116.91C530.082 1129.11 531.173 1141.52 537.422 1153.03C544.365 1166.03 556.168 1166.52 564.499 1154.32C567.872 1149.36 569.855 1143.4 572.732 1138.05C574.219 1135.27 576.401 1132.79 578.187 1130.21L580.766 1131.89H580.567Z" fill="white"/>
<path d="M3155.51 360.074C3150.56 376.051 3145.79 392.126 3134.88 405.324C3128.64 412.964 3121.2 413.361 3113.96 406.614C3101.16 394.607 3099.77 379.028 3102.45 363.151C3107.41 334.076 3118.02 306.688 3129.73 279.797C3134.09 269.774 3138.95 259.851 3143.81 250.027C3145.1 247.447 3147.28 245.363 3148.97 243.081L3151.65 244.371C3150.66 247.546 3149.96 250.92 3148.47 253.897C3135.38 280.193 3124.27 307.383 3117.53 335.961C3115.05 346.579 3116.14 358.09 3115.74 369.204C3115.74 370.593 3116.24 372.081 3116.83 373.471C3119.51 379.722 3121.79 387.065 3129.73 387.958C3138.26 388.951 3140.84 381.111 3144.21 375.455C3147.48 370.097 3149.86 364.143 3152.64 358.487C3153.53 358.983 3154.42 359.479 3155.32 359.975L3155.51 360.074Z" fill="white"/>
<path d="M1721.99 233.555C1719.51 249.73 1716.93 266.003 1706.42 279.499C1698.78 289.323 1689.16 287.636 1680.63 281.086C1671.61 274.24 1667.64 264.019 1667.74 253.401C1667.84 239.409 1667.94 224.624 1672.3 211.526C1681.03 185.428 1692.63 160.322 1703.15 134.919C1703.94 133.034 1705.92 131.744 1708.3 130.652C1708.8 140.179 1704.83 147.819 1700.67 155.659C1687.77 179.672 1676.76 204.579 1679.04 232.761C1679.64 239.608 1682.22 246.455 1684.8 253.004C1687.18 259.156 1692.24 262.431 1699.18 262.233C1706.02 262.034 1709.69 257.569 1712.27 252.012C1714.06 248.043 1715.05 243.676 1716.54 239.608C1717.43 237.226 1718.52 234.944 1719.51 232.563C1720.31 232.86 1721.2 233.158 1721.99 233.456V233.555Z" fill="white"/>
<path d="M718.236 959.43C721.212 949.705 723.592 941.27 731.527 937.103C760.985 921.325 790.741 906.043 820.397 890.563C830.315 885.403 840.333 880.243 850.351 875.182C852.136 874.289 854.219 873.595 856.897 873.694C852.731 882.228 851.64 891.853 841.623 896.914C811.569 912.096 781.913 928.073 752.058 943.453C741.743 948.812 731.031 953.476 718.335 959.43H718.236Z" fill="white"/>
<path d="M3331.47 116.462C3328.59 122.912 3325.82 129.362 3322.84 135.713C3312.62 158.139 3302.41 180.566 3298.54 205.274C3296.95 215.396 3298.04 225.319 3303.4 234.349C3310.24 246.058 3320.76 246.554 3327.9 235.341C3331.27 229.983 3333.45 223.929 3336.33 218.273C3337.72 215.594 3339.31 213.113 3340.79 210.434C3341.49 210.732 3342.28 211.029 3342.98 211.327C3342.08 214.503 3341.59 217.876 3340.4 220.953C3335.73 232.463 3331.47 244.272 3325.82 255.187C3315.9 274.041 3301.71 266.996 3293.18 256.775C3284.75 246.653 3283.36 234.051 3285.75 222.044C3288.82 206.366 3293.28 190.687 3298.94 175.703C3305.48 158.139 3313.81 141.171 3321.75 124.202C3323.34 120.729 3326.31 117.951 3328.69 114.875C3329.59 115.371 3330.58 115.966 3331.47 116.462Z" fill="white"/>
<path d="M3619.4 77.5639C3616.83 82.6246 3614.45 87.7846 3611.67 92.7462C3600.86 111.699 3591.04 131.149 3586.38 152.582C3584.69 160.422 3585.19 169.055 3586.38 177.093C3587.07 181.657 3590.84 186.321 3594.41 189.596C3599.17 194.061 3605.02 193.664 3608.99 188.008C3612.96 182.253 3616.13 175.902 3619.8 169.849C3621.19 167.566 3622.68 165.383 3624.07 163.101C3624.76 163.399 3625.45 163.696 3626.15 164.093C3624.96 168.062 3624.17 172.23 3622.48 176.001C3617.92 186.519 3613.85 197.336 3608 207.06C3600.76 218.869 3591.53 219.266 3581.02 210.037C3574.18 203.984 3571.6 196.046 3571 187.214C3569.71 168.459 3576.06 151.392 3583.6 135.019C3591.53 117.455 3600.96 100.585 3609.98 83.617C3611.57 80.64 3614.54 78.457 3616.83 75.877C3617.72 76.4723 3618.61 77.1669 3619.5 77.7623L3619.4 77.5639Z" fill="white"/>
<path d="M2028.47 253.997C2024.8 260.645 2021.23 267.492 2017.36 274.041C2006.36 293.094 1995.54 312.146 1991.48 334.274C1989.79 343.404 1989.79 352.235 1993.86 360.769C1999.61 372.677 2010.32 374.165 2018.55 363.746C2022.32 358.983 2025 353.426 2028.28 348.266C2029.76 345.984 2031.45 343.9 2033.04 341.717C2033.93 342.114 2034.82 342.61 2035.71 343.007C2032.24 351.838 2029.27 360.968 2025 369.402C2021.63 376.051 2017.36 382.501 2012.31 387.958C2004.57 396.393 1994.95 396.095 1986.72 387.958C1979.18 380.417 1976.3 371.089 1977.1 360.571C1978.58 339.633 1986.52 320.68 1995.94 302.421C2003.38 287.934 2011.61 273.644 2019.65 259.454C2021.23 256.676 2023.81 254.592 2025.99 252.111C2026.89 252.707 2027.68 253.401 2028.57 253.997H2028.47Z" fill="white"/>
</g>
<defs>
<filter id="filter0_d_1_59" x="0.579998" y="0.0199983" width="3971.92" height="1315.48" filterUnits="userSpaceOnUse" color-interpolation-filters="sRGB">
<feFlood flood-opacity="0" result="BackgroundImageFix"/>
<feColorMatrix in="SourceAlpha" type="matrix" values="0 0 0 0 0 0 0 0 0 0 0 0 0 0 0 0 0 0 127 0" result="hardAlpha"/>
<feOffset dx="0.82" dy="3.26"/>
<feGaussianBlur stdDeviation="26.12"/>
<feColorMatrix type="matrix" values="0 0 0 0 0 0 0 0 0 0 0 0 0 0 0 0 0 0 0.12 0"/>
<feBlend mode="normal" in2="BackgroundImageFix" result="effect1_dropShadow_1_59"/>
<feBlend mode="normal" in="SourceGraphic" in2="effect1_dropShadow_1_59" result="shape"/>
</filter>
</defs>
</svg>
