<?xml version="1.0" encoding="UTF-8"?>
<svg id="Layer_2" xmlns="http://www.w3.org/2000/svg" viewBox="0 0 106.54 31.68">
  <defs>
    <style>
      .cls-1 {
        fill: #fff;
      }
    </style>
  </defs>
  <g id="Layer_1-2" data-name="Layer_1">
    <g>
      <g>
        <path class="cls-1" d="M83.05,5.13c.07.36.14.72.21,1.09.37,1.84.75,3.68,1.09,5.53.2,1.09.36,2.18.49,3.28.1.82.13,1.66.03,2.49-.07.58-.18,1.16-.4,1.71-.17.43-.47.72-.84.97-.09.06-.17.17-.21.27-.24.82-.4,1.66-.42,2.51-.02.89.07,1.78.47,2.61.35.74.93,1.21,1.67,1.53.99.42,2.01.46,3.05.26,1.42-.26,2.76-.75,4.04-1.4,1.32-.66,2.56-1.44,3.74-2.32.37-.28.72-.57,1.06-.88.24-.21.22-.35,0-.59-.24-.27-.56-.37-.9-.44-.52-.11-1.04-.2-1.57-.27-.82-.12-1.65-.22-2.47-.33-.13-.02-.26-.06-.39-.1-.1-.03-.13-.11-.08-.21.17-.4.34-.81.52-1.22.03-.06.1-.11.16-.14.39-.21.82-.38,1.17-.64.36-.26.66-.6.96-.93.32-.36.43-.81.42-1.29-.02-.54-.07-1.07-.12-1.6-.05-.5-.11-.99-.18-1.48-.09-.59-.18-1.19-.28-1.78-.12-.68-.24-1.36-.36-2.04-.15-.89-.29-1.78-.45-2.67-.2-1.1-.4-2.2-.61-3.3-.02-.08-.04-.16-.06-.24-.12-.36-.08-.71.04-1.07.1-.31.17-.63.26-.94.02-.06.04-.12.07-.18.02-.04.07-.09.11-.09.03,0,.08.06.09.1.07.21.13.43.19.64.49,1.79.79,3.62,1.14,5.44.15.78.27,1.56.4,2.34.2,1.11.36,2.23.6,3.34.14.65.34,1.3.72,1.87.23.34.53.58.89.77.04.02.08.02.17.04-.04-.11-.07-.18-.1-.25-.47-.96-.78-1.96-.66-3.03.1-.9.42-1.72,1.04-2.39.5-.54,1.17-.83,1.89-1,1.26-.3,2.45-.07,3.58.51.24.13.45.33.67.5,0,.02-.01.04-.02.06-.06,0-.13.03-.18,0-.71-.37-1.45-.24-2.18-.11-.89.16-1.79.35-2.62.71-.43.19-.83.44-1.25.66-.18.09-.19.25-.18.42.06.59.2,1.16.44,1.7.31.69.74,1.29,1.36,1.75.9.68,1.85.79,2.85.26.91-.48,1.77-1.05,2.56-1.72.36-.3.71-.62,1.07-.93.04-.04.13-.07.16-.05.04.02.08.11.06.16-.12.51-.21,1.03-.6,1.43-.61.63-1.3,1.17-2.01,1.68-.64.46-1.31.87-2.02,1.21-.67.32-1.37.56-2.11.59-.8.04-1.6-.02-2.33-.43-.49-.27-.85-.68-1.14-1.16-.05-.09-.1-.17-.15-.26-.02,0-.04,0-.06,0-.03.1-.08.19-.09.29-.09.8-.31,1.55-.63,2.28-.12.28-.3.53-.47.79-.12.18-.11.23.11.26.44.06.88.1,1.31.17.32.05.64.13.95.21.67.16,1.03.6,1.1,1.28.09.89-.05,1.76-.57,2.48-.33.45-.79.82-1.25,1.15-.87.64-1.76,1.26-2.68,1.82-.99.6-2.01,1.15-3.1,1.54-.82.3-1.65.58-2.52.71-1.13.17-2.22.05-3.26-.47-.93-.46-1.46-1.23-1.78-2.18-.42-1.26-.38-2.53-.13-3.81.12-.61.28-1.21.42-1.81.01-.06.02-.12.04-.23-.13.02-.23.03-.33.05-.67.16-1.33.29-2.03.12-.75-.18-1.4-.54-1.88-1.15-.58-.74-1.12-1.51-1.69-2.25-.3-.39-.64-.76-.95-1.14-.02,0-.04.02-.06.03,0,.07,0,.14.03.21.27.76.3,1.55.25,2.34-.03.62-.14,1.2-.48,1.73-.21.32-.47.58-.79.77-.24.15-.33.33-.3.61.06.72-.06,1.43-.23,2.12-.22.87-.74,1.55-1.44,2.1-.32.26-.63.53-.98.76-.6.4-1.21.78-1.83,1.15-.52.31-1.05.6-1.58.87-.32.17-.66.3-.99.45-.31.14-.6.3-.91.43-.47.2-.95.4-1.44.58-.58.22-1.16.43-1.74.62-.62.19-1.25.34-1.91.34-.6,0-1.21.04-1.81.07-.39.02-.79.03-1.18.06-.62.05-1.23.12-1.84.19-.11.01-.23.02-.34.03-.04,0-.09-.02-.13-.03.03-.04.06-.1.1-.11.38-.13.76-.25,1.15-.37.62-.19,1.23-.37,1.85-.55.42-.13.84-.25,1.26-.38.77-.24,1.54-.48,2.3-.74.99-.34,1.99-.65,2.96-1.04,1.01-.4,2.02-.84,2.99-1.34,1.06-.55,2.09-1.16,3.1-1.79.72-.44,1.38-.96,1.91-1.64.19-.25.28-.5.16-.8-.12-.3-.24-.59-.37-.88-.02-.04-.14-.08-.2-.06-.41.1-.81.22-1.23.31-.64.13-1.29.14-1.92-.03-.48-.13-.83-.41-.99-.93-.18-.59-.04-1.13.14-1.68.17-.49.46-.88.85-1.21.35-.3.74-.41,1.19-.34.59.09,1.1.36,1.55.75.38.33.7.71.96,1.13.04.06.17.12.23.1.45-.16.87-.37,1.22-.7.12-.12.17-.26.15-.43-.11-.87-.52-1.6-.99-2.31-.72-1.08-1.58-2.04-2.46-2.99-.99-1.07-2.02-2.1-2.99-3.19-.65-.72-1.22-1.51-1.82-2.27-.05-.06-.05-.17-.04-.25.11-.57.2-1.13.34-1.69.14-.56.52-.95.98-1.28.94-.67,1.97-1.21,3.01-1.72.94-.46,1.89-.92,2.85-1.33,1.23-.53,2.46-1.04,3.71-1.51.5-.19,1.04-.31,1.56-.35.89-.07,1.32.39,1.36,1.29.04.85-.15,1.65-.39,2.45-.35,1.16-.82,2.27-1.41,3.33-.47.85-.99,1.67-1.5,2.5-.17.27-.35.53-.53.8-.04.05-.09.1-.14.15-.02,0-.05-.02-.07-.02.02-.13.03-.27.07-.4.18-.54.46-1.04.76-1.52,1.03-1.66,1.93-3.39,2.56-5.25.12-.37.11-.73,0-1.1-.09-.33-.35-.51-.73-.54-.67-.05-1.29.13-1.9.37-.14.05-.3.07-.43.12-.18.07-.35.17-.52.25-.04.02-.09,0-.12.02-.07.03-.14.07-.19.13-.39,0-.7.23-1.04.38-.54.24-1.08.47-1.62.72-1.05.49-2.12.96-3.15,1.5-.81.42-1.57.92-2.36,1.39-.04.03-.08.06-.11.1-.21.21-.2.34-.04.59.41.6.95,1.05,1.49,1.51.9.78,1.82,1.53,2.72,2.3.86.74,1.71,1.5,2.55,2.27.88.82,1.69,1.71,2.42,2.67.33.44.64.89.99,1.31.33.4.68.8,1.07,1.15.43.39.98.58,1.55.64,1.01.11,1.94-.13,2.78-.71.17-.12.26-.26.24-.48-.07-1.2-.26-2.39-.49-3.57-.26-1.38-.52-2.76-.78-4.15-.19-.98-.4-1.95-.58-2.93-.12-.65-.22-1.3-.33-1.95-.08-.47-.16-.94-.25-1.41-.03-.14-.06-.3-.15-.41-.16-.21-.14-.41-.04-.62.16-.35.3-.71.46-1.05.03-.07.11-.13.16-.19.06.06.13.12.16.19.27.6.54,1.2.81,1.8.29.63.59,1.26.89,1.88.02.04.04.08.05.12.01.09.01.19.02.29-.1-.03-.22-.03-.29-.09-.17-.14-.31-.3-.46-.46-.1-.1-.2-.18-.3-.28l-.07.04ZM72.55,20.55s.02-.07.03-.1c-.05-.03-.1-.06-.14-.09-.34-.29-.73-.48-1.16-.59-.24-.06-.45,0-.63.17-.21.2-.15.48.13.54.37.08.74.13,1.11.16.22.01.45-.05.67-.08Z"/>
        <path class="cls-1" d="M39.3,5.2c.03.29.06.58.1.86.17,1.17.35,2.34.53,3.51.2,1.31.42,2.63.61,3.94.29,2.06.68,4.1.79,6.18.06,1.06-.06,2.09-.26,3.13-.1.52-.29,1.01-.61,1.43-.25.33-.59.56-.98.7-.11.04-.22.11-.33.16-.83.37-1.69.47-2.58.27-.55-.12-.99-.43-1.39-.81-.12-.12-.24-.25-.36-.37-.2-.2-.2-.2-.42-.04-.39.28-.77.58-1.16.85-.82.59-1.71,1.02-2.73,1.14-.64.08-1.26-.05-1.83-.37-.62-.34-.98-.89-1.24-1.53-.37-.92-.55-1.89-.65-2.87-.1-1.04-.18-2.09-.27-3.13-.06-.78-.12-1.55-.18-2.33-.05-.75-.08-1.51-.13-2.26-.07-.98-.14-1.96-.24-2.94-.11-1.16-.22-2.33-.39-3.49-.16-1.05-.31-2.11-.65-3.13-.05-.16-.13-.31-.24-.46-.54,1.53-.94,3.09-1.03,4.71-.02,0-.03,0-.05,0,0-.22-.02-.44,0-.66.15-1.68.62-3.29,1.16-4.88.07-.2.13-.4.21-.6.04-.08.14-.17.22-.18.06,0,.16.1.19.17.36.78.63,1.59.79,2.44.1.51.21,1.03.29,1.54.08.52.14,1.04.18,1.56.12,1.48.24,2.97.34,4.45.06.98.08,1.95.13,2.93.06,1.07.13,2.13.23,3.2.09,1.05.21,2.1.35,3.14.08.55.21,1.1.47,1.59.35.68.86,1.12,1.65,1.31.92.22,1.7-.09,2.49-.44.44-.19.84-.48,1.24-.75.22-.14.21-.2.04-.39-.45-.52-.9-1.06-1.52-1.39-.5-.27-1.04-.39-1.59-.21-.23.08-.42.29-.64.44-.05.03-.11.06-.16.09,0-.06-.03-.13,0-.18.24-.52.49-1.04.74-1.55.13-.26.38-.37.63-.43.55-.13,1.11-.22,1.67-.3.34-.05.69-.07,1.03-.09.89-.04,1.78-.01,2.66.13.63.1,1.26.25,1.89.41.42.11.43.14.36.57-.05.33-.14.64-.22.96-.04.17-.16.27-.33.35-.76.35-1.47.8-2.13,1.31-.19.15-.18.19,0,.35.44.36.96.47,1.5.52,1.04.09,1.96-.28,2.83-.81.24-.15.34-.36.34-.66-.01-1.11-.16-2.21-.33-3.3-.29-1.83-.58-3.66-.88-5.49-.17-1.05-.38-2.1-.54-3.16-.22-1.46-.41-2.93-.61-4.39-.11-.8-.22-1.6-.34-2.39-.02-.15-.11-.28-.15-.43-.03-.1-.07-.22-.03-.3.18-.46.38-.92.59-1.37.03-.07.13-.11.19-.17.05.06.11.12.14.19.47,1.27.94,2.54,1.41,3.81.09.23.14.48.2.72.02.07,0,.15-.03.24-.42-.28-.59-.75-.92-1.09-.02,0-.04.01-.06.02ZM33.89,20.85c.05.09.07.14.11.19.27.33.54.66.81,1,.08.1.16.11.26.03.35-.27.71-.54,1.06-.82.05-.04.09-.11.16-.2-.8-.14-1.56-.21-2.39-.2Z"/>
        <path class="cls-1" d="M24.97,15.09c-.15-.5-.33-.99-.71-1.36-.41-.39-.84-.43-1.26-.04-.31.29-.5.64-.66,1.02-.29.72-.42,1.46-.39,2.23.01.43.02.86.03,1.28,0,.13-.06.2-.18.19-.17-.01-.34-.04-.51-.07-.95-.15-1.56-.72-1.86-1.59-.23-.64-.37-1.32-.5-1.99-.13-.66-.2-1.34-.28-2.01-.16-1.31-.31-2.63-.47-3.94-.09-.75-.19-1.5-.29-2.24-.06-.42-.13-.83-.19-1.25-.15-.97-.31-1.94-.67-2.87-.04-.1-.13-.17-.19-.26-.05.09-.13.17-.15.27-.11.43-.21.86-.31,1.29-.02.07-.02.14,0,.21.09.53.2,1.05.27,1.59.12.94.23,1.88.34,2.82.16,1.48.32,2.96.48,4.44.15,1.42.3,2.84.33,4.26,0,.51-.16.94-.45,1.33-.59.81-1.41,1.32-2.3,1.74-.09.04-.19.11-.22.19-.16.41-.31.83-.46,1.24-.05.14-.03.21.13.27.82.27,1.67.34,2.52.45.56.08,1.12.12,1.67.23.45.09.88.27,1.15.7.09.13.08.24-.03.34-.13.13-.26.26-.41.38-1.17.96-2.46,1.75-3.83,2.39-.89.41-1.82.76-2.74,1.1-.95.35-1.93.54-2.95.51-.64-.02-1.27-.09-1.87-.36-.66-.3-1.19-.73-1.5-1.41-.43-.97-.55-1.98-.47-3.02.1-1.36.51-2.63,1.08-3.86.38-.81.8-1.61,1.2-2.41.19-.36.3-.75.32-1.15,0-.05-.04-.11-.06-.17-.04.03-.1.06-.12.1-.09.16-1.92,4.12-2.17,4.76-.51,1.3-.88,2.63-.96,4.03-.06,1.01.05,2.01.46,2.95.19.44.45.83.82,1.14.23.2.47.39.74.53.33.18.69.35,1.05.43.99.23,1.99.15,2.98-.06,1.01-.22,1.99-.57,2.93-1,.77-.36,1.53-.74,2.26-1.17.77-.46,1.5-.99,2.22-1.53.37-.27.71-.59,1-.94.61-.73.74-1.63.76-2.54.01-.45-.18-.82-.57-1.07-.39-.24-.82-.37-1.26-.43-.54-.07-1.09-.1-1.64-.16-.09,0-.17-.05-.31-.1,1.12-1.03,1.53-2.31,1.67-3.72.06.26.13.51.19.77.11.5.29.99.59,1.4.18.24.41.45.66.63.54.39,1.17.52,1.83.51.13,0,.22.06.23.2,0,.18.02.36,0,.53-.09.55-.21,1.09-.31,1.64-.01.07-.03.15-.02.23,0,.05.06.1.09.15.04-.04.11-.07.13-.12.06-.17.13-.35.16-.53.13-.66.26-1.32.38-1.98.02-.13.09-.18.2-.22.37-.12.75-.23,1.1-.4.45-.22.86-.53,1.07-1.01.48-1.14.6-2.31.24-3.5ZM24.51,17.42c-.09.12-.22.22-.34.3-.46.31-.98.46-1.5.6-.13.04-.19-.01-.2-.14-.02-.29-.04-.59-.07-.88-.01,0-.03,0-.04-.01.08-.45.14-.91.26-1.35.07-.24.25-.46.42-.65.19-.22.38-.24.57-.01.23.26.44.56.6.88.16.31.25.65.35.99.02.08,0,.21-.05.28Z"/>
        <path class="cls-1" d="M43.57,17.09c.04.15.08.3,0,.47-.56,1.33-.93,2.71-1.07,4.14-.07.77.03,1.52.4,2.19.4.73.99,1.26,1.78,1.59.84.35,1.7.51,2.6.48.96-.04,1.91-.2,2.82-.51.83-.28,1.66-.57,2.44-.95.94-.46,1.83-1.02,2.73-1.56.37-.22.73-.47,1.07-.74.36-.28.71-.59,1.04-.9.19-.18.2-.27,0-.44-.2-.17-.43-.32-.67-.42-.64-.26-1.33-.29-2.01-.37-.76-.09-1.51-.2-2.26-.31-.23-.03-.46-.11-.69-.17-.14-.03-.18-.11-.13-.24.16-.43.31-.87.48-1.3.03-.07.14-.13.22-.14.78-.12,1.53-.33,2.25-.61.52-.2,1.02-.44,1.42-.85.16-.17.21-.34.14-.57-.19-.59-.55-1.08-.92-1.56-.67-.87-1.25-1.79-1.77-2.75-.04-.06-.05-.17-.02-.24.15-.45.3-.9.47-1.34.07-.18.14-.18.29-.04.34.31.7.6,1.03.91.22.2.43.42.63.64.05.05.07.14.1.21-.01.02-.03.03-.04.05-.11-.03-.21-.05-.32-.08-.05-.01-.09-.07-.13-.07-.11,0-.22,0-.33.01.03.09.04.19.09.26.35.5.71.98,1.05,1.49.53.81.65,1.7.46,2.65-.12.57-.25,1.14-.59,1.63-.17.25-.4.46-.62.72.08.02.16.06.24.07.6.08,1.2.18,1.75.45.38.19.64.48.71.9.13.72.08,1.44-.27,2.09-.21.39-.53.72-.83,1.05-.57.61-1.27,1.07-1.95,1.54-1.03.7-2.08,1.35-3.21,1.87-.93.42-1.87.8-2.86,1.03-1.05.24-2.11.41-3.19.26-.8-.11-1.57-.33-2.25-.75-.78-.48-1.3-1.15-1.53-2.07-.2-.83-.23-1.67-.17-2.51.07-.96.26-1.91.59-2.83.25-.71.53-1.41.8-2.11.04-.1.11-.19.17-.28.02,0,.04.01.05.02Z"/>
        <path class="cls-1" d="M54.73,29.11c-.79.03-1.58.05-2.37.09-.88.05-1.76.11-2.64.16-.06,0-.13-.04-.2-.06.05-.05.1-.14.16-.15.92-.26,1.85-.5,2.77-.76,1.18-.32,2.36-.62,3.53-.97,1.07-.33,2.13-.71,3.19-1.09.79-.29,1.57-.61,2.36-.92.39-.16.77-.34,1.15-.52.58-.27,1.17-.52,1.72-.82.69-.38,1.35-.79,2.01-1.21.19-.12.35-.31.48-.49.07-.09.1-.27.07-.37-.17-.49-.32-.99-.56-1.44-.59-1.16-1.08-2.37-1.5-3.6-.04-.13-.04-.25.02-.38.16-.36.29-.74.44-1.1.03-.07.09-.17.15-.18.05,0,.14.07.19.13.37.44.74.88,1.09,1.33.13.16.21.36.31.55.02.04,0,.09,0,.14-.05-.01-.1-.01-.14-.03-.15-.07-.29-.15-.44-.22-.11-.05-.16,0-.15.11.02.11.05.21.1.31.25.55.48,1.1.76,1.63.41.78.47,1.59.32,2.44-.12.74-.29,1.46-.74,2.07-.21.28-.48.53-.76.75-.77.62-1.64,1.09-2.51,1.55-.55.29-1.11.58-1.68.84-.66.29-1.33.55-2,.81-.55.21-1.09.43-1.65.62-.86.29-1.7.62-2.61.74-.29.04-.58.04-.88.06,0,0,0,0,0,0Z"/>
        <path class="cls-1" d="M88.1,4.7c.53,3.19,1.06,6.38,1.6,9.59.05-.02.09-.03.13-.06.92-.62,1.68-1.39,2.29-2.31.18-.27.17-.28-.1-.43-.19-.11-.39-.22-.58-.34-.25-.16-.32-.32-.24-.6.1-.38.21-.77.53-1.05.36-.31.8-.2.89.27.06.32.06.66.04.99-.01.2-.05.35.15.51.24.2.25.57.07.94-.06-.09-.11-.17-.17-.25-.14-.19-.22-.18-.33.02-.61,1.11-1.45,2-2.5,2.71-.11.07-.15.15-.12.29.19,1.2.34,2.41.36,3.62.02.92,0,1.83-.23,2.72-.02.09-.06.19-.11.26-.03.05-.12.1-.16.09-.05-.01-.11-.09-.12-.15-.01-.13.02-.25.01-.38-.04-.69-.06-1.38-.15-2.07-.14-1.12-.32-2.23-.48-3.34,0-.06-.03-.12-.06-.22-.93.65-1.85,1.25-2.83,1.75-.01-.01-.02-.02-.03-.04.06-.06.12-.14.19-.19.62-.47,1.25-.93,1.87-1.4.22-.17.44-.33.64-.52.06-.06.09-.18.08-.27-.14-.92-.29-1.83-.44-2.75-.26-1.56-.52-3.11-.77-4.67-.15-.95-.28-1.9-.42-2.84-.07-.47-.14-.93-.22-1.4-.01-.09-.04-.18-.08-.25-.12-.19-.1-.36,0-.55.15-.32.27-.66.41-.99.03-.07.1-.11.16-.17.05.06.1.11.13.17.24.56.49,1.12.72,1.69.29.7.57,1.41.85,2.11.03.06.05.14.04.2,0,.07-.03.14-.05.2-.07-.03-.15-.04-.2-.09-.19-.21-.36-.43-.54-.65-.06-.07-.12-.13-.17-.19-.02,0-.04.02-.06.03ZM92.36,10.99s.04-.04.06-.06c0-.3-.02-.6-.2-.86-.12-.18-.32-.2-.5-.06-.16.12-.23.4-.09.51.23.17.49.31.73.46Z"/>
        <path class="cls-1" d="M44.65,1.33c.05.14.11.28.16.42.45,1.22.9,2.45,1.34,3.67.07.18.11.38.14.57.01.07-.04.16-.06.23-.09-.04-.22-.06-.27-.13-.15-.19-.26-.41-.4-.61-.09-.14-.2-.27-.3-.41-.02,0-.04.02-.06.03.03.22.06.43.09.65.21,1.53.43,3.06.64,4.59.16,1.18.34,2.35.49,3.53.08.62.14,1.24.22,1.87.11.87.22,1.74.33,2.61.18,1.46.26,2.93.22,4.4-.02.67-.02,1.35-.26,1.99-.03.07-.04.15-.09.21-.05.06-.13.09-.2.14-.03-.07-.09-.13-.09-.2-.02-.54,0-1.09-.04-1.63-.1-1.18-.22-2.37-.36-3.55-.15-1.26-.34-2.51-.51-3.76-.15-1.12-.3-2.24-.45-3.36-.24-1.81-.49-3.61-.73-5.42-.12-.9-.21-1.8-.34-2.7-.07-.49-.08-1-.31-1.45-.03-.05-.03-.14,0-.2.22-.45.45-.9.68-1.35.03-.05.07-.1.1-.15.02,0,.04,0,.06,0Z"/>
        <path class="cls-1" d="M59.47,5.01c.01.18.01.36.04.54.08.59.17,1.19.25,1.78.11.83.23,1.67.34,2.5.18,1.43.38,2.85.54,4.28.15,1.28.28,2.55.39,3.84.07.93.11,1.86.11,2.8,0,1.19-.06,2.38-.34,3.54-.03.12-.05.24-.11.35-.04.08-.14.12-.21.18-.03-.08-.09-.16-.09-.25,0-.74.05-1.48.01-2.22-.06-1.19-.15-2.37-.27-3.56-.11-1.19-.25-2.38-.4-3.56-.15-1.22-.34-2.43-.5-3.65-.13-.96-.24-1.93-.36-2.89-.12-.95-.23-1.89-.35-2.84-.08-.66-.15-1.32-.25-1.98-.04-.25-.16-.48-.22-.73-.02-.08-.03-.19,0-.27.16-.39.33-.78.49-1.16.02-.05.04-.11.08-.15.09-.11.2-.1.25.03.22.55.43,1.11.65,1.65.25.63.52,1.25.77,1.87.09.22.15.45.22.67.02.05.02.12,0,.17-.02.05-.06.11-.1.12-.03,0-.1-.04-.13-.08-.2-.27-.39-.55-.59-.83-.05-.06-.11-.12-.16-.18-.02,0-.04.02-.06.02Z"/>
        <path class="cls-1" d="M31.9,6.46c0,1.33-.26,2.4-.61,3.46-.1.3-.18.61-.31.9-.07.16-.21.29-.32.42-.03.04-.1.04-.15.05-.01-.06-.05-.12-.04-.17.06-.21.15-.42.22-.64.24-.81.45-1.63.48-2.48.04-1.13-.29-2.16-.86-3.12-.37-.63-.81-1.21-1.21-1.82-.05-.07-.07-.2-.04-.28.12-.32.26-.64.41-.95.1-.22.17-.22.32-.03.79,1,1.49,2.05,1.84,3.29.14.51.21,1.03.27,1.35Z"/>
        <path class="cls-1" d="M63.06,15.46c-.04-1.39-.45-2.66-1.15-3.84-.02-.03-.03-.07-.06-.1-.26-.24-.22-.49-.06-.76.12-.22.21-.45.33-.67.11-.2.19-.19.31,0,.35.55.6,1.14.79,1.76.18.57.34,1.14.38,1.74.06.95.09,1.89-.18,2.82-.21.72-.44,1.42-.68,2.13-.06.19-.16.36-.25.53-.03.06-.1.12-.16.15-.1.05-.17.01-.15-.11,0-.05.03-.1.04-.15.23-.74.49-1.46.69-2.21.11-.42.11-.86.15-1.29Z"/>
        <path class="cls-1" d="M35.28,15.5c.02-.36.02-.69.07-1.01.06-.42.14-.85.26-1.26.19-.66.62-.75,1.09-.25.24.25.25.53.02.87-.1-.11-.2-.23-.31-.33-.31-.3-.58-.24-.65.2-.08.46-.09.94-.16,1.41-.06.42-.16.84-.25,1.25-.01.06-.09.11-.14.16-.04-.06-.1-.12-.12-.19-.14-.58-.36-1.12-.67-1.62-.12-.19-.21-.19-.28.02-.3.82-.97,1.28-1.65,1.73-.97.64-2.03,1.1-3.12,1.49-.23.08-.45.18-.68.27-.06.02-.11.04-.17.06,0-.02-.02-.03-.02-.05.07-.04.14-.1.21-.13,1.38-.69,2.75-1.39,4.01-2.29.41-.29.76-.66,1.11-1.02.21-.22.18-.3-.11-.38-.09-.03-.17-.05-.25-.09-.32-.14-.4-.3-.32-.64.04-.15.08-.3.12-.45.04-.14.14-.21.26-.15.19.08.39.17.54.31.54.49.88,1.11,1.1,1.79.03.08.06.16.08.23,0,.02.02.03.06.08Z"/>
        <path class="cls-1" d="M99.03,27.94c.06-.16.1-.29.15-.43.33-.89.41-1.82.34-2.76-.09-1.26-.57-2.35-1.4-3.29-.08-.09-.1-.17-.05-.28.13-.32.26-.64.39-.96.08-.19.17-.2.31-.05.56.65.91,1.4,1.16,2.21.36,1.16.33,2.33.14,3.51-.11.67-.35,1.28-.71,1.85-.06.1-.13.23-.33.19Z"/>
        <path class="cls-1" d="M39.81,26.7c-.2.26-.37.54-.6.77-.61.59-1.27,1.12-2.06,1.45-1.05.44-2.14.66-3.29.56-.27-.02-.51-.12-.72-.29-.21-.17-.27-.39-.15-.63.16-.34.37-.64.68-.86.06-.04.13-.08.23-.14-.19-.12-.31-.2-.42-.28-.14-.1-.18-.23-.1-.4.19-.42.42-.8.79-1.09.27-.21.5-.23.71-.06.12.09.18.19.08.34-.09.13-.16.27-.24.42-.08-.1-.13-.18-.19-.23-.21-.15-.69.06-.72.31,0,.07.06.19.12.22.22.11.45.21.68.29.06.02.16-.02.23-.06.2-.09.39-.19.59-.28.04-.02.08-.01.17-.03-.15.25-.19.48-.47.61-.51.24-1.01.53-1.49.82-.36.21-.33.44.04.62.4.19.83.19,1.26.16.88-.06,1.73-.25,2.54-.62.8-.36,1.47-.9,2.07-1.53.05-.06.12-.1.19-.15.02.02.05.05.07.07Z"/>
        <path class="cls-1" d="M77.57,24.39c-.05.12-.08.2-.12.28-.26-.14-.52-.25-.75-.4-.21-.14-.14-.38-.12-.58.01-.11.06-.21.1-.31.09-.22.2-.28.4-.15.29.2.58.41.83.67.34.36.52.81.66,1.28.01.04.03.09.04.13,0,.01.02.02.05.05.02-.1.03-.18.04-.26.06-.58.15-1.16.36-1.7.07-.18.2-.35.32-.51.1-.12.24-.12.38-.05.32.15.45.45.33.78-.04.1-.07.21-.12.35-.1-.16-.17-.28-.25-.38-.2-.25-.47-.22-.56.09-.09.3-.14.61-.19.92-.11.69-.18,1.4-.44,2.06-.3.76-.81,1.36-1.46,1.83-.46.33-.95.62-1.45.89-.28.15-.62.21-.93.3-.3.1-.6.19-.92.25.24-.13.47-.27.71-.39.89-.47,1.79-.93,2.59-1.57.49-.39.91-.82,1.21-1.37.07-.12.1-.29.08-.43-.06-.56-.29-1.07-.61-1.53-.05-.08-.12-.14-.21-.24Z"/>
        <path class="cls-1" d="M72.6,9.63c-.25-.04-.48-.04-.68-.12-.23-.09-.44-.25-.65-.38-.02-.01-.02-.09-.02-.09.05-.02.11-.05.16-.04.17.03.33.08.5.1.62.08,1.22-.01,1.83-.14.68-.14,1.35-.29,2.03-.44.05-.01.13-.05.14-.08,0-.05-.03-.12-.07-.16-.21-.21-.48-.26-.76-.24-.34.02-.67.08-1.01.12-.28.03-.56.06-.84.09-.08,0-.15,0-.23-.02-.36-.08-.44-.29-.26-.61.37-.66.91-1.15,1.62-1.43.15-.06.32-.1.48-.11.23-.02.31.12.2.32-.05.08-.1.17-.16.24-.04.04-.12.05-.18.05-.15,0-.31-.03-.45,0-.42.12-.77.36-1.07.68-.13.14-.11.24.08.28.17.03.34.04.51.02.38-.05.76-.14,1.14-.17.33-.02.66-.01.98.05.16.03.31.21.43.35.1.12.1.27.02.42-.06.11-.12.21-.17.32-.13.28-.35.39-.64.44-.52.09-1.04.22-1.56.31-.46.08-.92.14-1.36.21Z"/>
        <path class="cls-1" d="M22.99,27.24c.01.84-.1,1.67-.36,2.47-.04.14-.11.27-.18.4-.03.05-.1.07-.16.1-.03-.06-.08-.12-.07-.18.02-.16.08-.31.11-.47.35-1.68.1-3.23-.99-4.59-.13-.16-.3-.27-.44-.42-.05-.05-.09-.16-.07-.22.14-.36.3-.7.46-1.05.07-.15.16-.11.26-.02.49.44.84.97,1.07,1.59.3.77.35,1.58.36,2.39Z"/>
        <path class="cls-1" d="M37.75,7.99c-.08.38-.21.64-.56.8-.71.31-1.39.68-2.08,1.03-.37.19-.74.37-1.11.57-.73.38-1.47.76-2.2,1.15-.33.17-.63.38-.96.56-.78.43-1.56.85-2.33,1.28-.2.11-.38.24-.57.36-.05.03-.1.05-.15.08-.05-.21.08-.53.26-.64.61-.37,1.21-.75,1.82-1.1.95-.54,1.9-1.06,2.85-1.57.65-.35,1.32-.68,1.98-1.02.72-.37,1.45-.73,2.17-1.1.23-.11.46-.23.69-.34.04-.02.09-.03.18-.05Z"/>
        <path class="cls-1" d="M42.35,8.33c.41.25.72.58,1,.95.61.81.76,1.73.57,2.7-.16.82-.39,1.63-.58,2.44-.06.24-.1.47-.14.71-.02.1-.02.21,0,.31.03.21.07.42.29.5.24.08.4-.09.56-.22.1-.08.11-.2.01-.28-.15-.13-.31-.25-.48-.34-.13-.08-.18-.15-.12-.3.17-.43.17-.44.56-.19.25.16.5.35.43.7-.05.22-.11.44-.23.62-.14.21-.33.41-.53.56-.26.2-.63.06-.76-.25-.12-.31-.09-.62-.02-.93.1-.45.24-.89.35-1.34.18-.69.34-1.39.36-2.11.03-1.19-.46-2.13-1.4-2.84-.25-.19-.25-.33,0-.53.05-.04.1-.1.15-.16Z"/>
        <path class="cls-1" d="M103.28,19.65c-.06-.07-.1-.11-.13-.14-.16-.2-.35-.23-.55-.07-.1.08-.21.18-.27.3-.04.07-.02.23.03.26.21.14.44.26.66.37.04.02.12-.01.18-.04.17-.09.33-.2.5-.29.07-.04.15-.05.24-.05-.11.22-.17.45-.41.6-.47.3-.91.63-1.35.97-.21.17-.19.36.05.5.16.09.34.16.52.17.9.08,1.71-.22,2.46-.7.42-.27.8-.59,1.12-.98.04-.04.09-.07.14-.1.02.02.04.03.06.05-.09.16-.17.33-.29.47-.53.65-1.15,1.18-1.92,1.52-.54.24-1.11.38-1.71.35-.28-.01-.54-.09-.76-.27-.2-.17-.26-.33-.16-.58.13-.34.28-.67.56-.92.06-.06.11-.14.17-.22-.14-.11-.26-.21-.39-.31-.14-.11-.17-.24-.11-.41.17-.44.41-.84.75-1.17.27-.26.53-.25.72.03.04.06.06.16.04.22-.04.14-.11.28-.17.45Z"/>
        <path class="cls-1" d="M22.28,9.8c0,.06.03.12.02.18-.06.41-.19.79-.42,1.14-.11.16-.26.17-.42.1-.31-.14-.45-.4-.51-.72-.08-.47-.02-.93.08-1.39.16-.76.32-1.51.47-2.27.23-1.19-.08-2.24-.82-3.18-.18-.23-.37-.45-.58-.67-.1-.11-.11-.19-.03-.3.02-.03.04-.06.06-.1.16-.32.18-.33.43-.07.62.64,1.14,1.34,1.34,2.24.12.5.11.99,0,1.48-.17.79-.38,1.56-.53,2.35-.09.49-.19,1-.05,1.5.05.16.14.32.25.44.14.15.3.11.39-.08.08-.16.12-.34.18-.5.02-.06.04-.11.07-.17.02,0,.05,0,.07,0Z"/>
        <path class="cls-1" d="M26.66,28.13c-.24.21-.44.1-.64.05-.25-.06-.37-.27-.43-.48-.04-.15.04-.33.07-.49,0-.02.02-.03.03-.05.12-.13.08-.43.37-.38.18.03.36.14.54.15.28.02.24.26.32.42.2.4.39.8.57,1.21.07.15.1.31.15.46.02,0,.04,0,.05,0,.04-.27.07-.54.12-.8.08-.4.17-.8.25-1.2.02-.07.05-.15.08-.21.1-.21.19-.42.47-.42.19,0,.49.25.52.48.02.2-.07.41-.11.62-.02,0-.05,0-.07,0-.04-.04-.08-.09-.12-.13-.05-.07-.1-.15-.16-.21-.16-.18-.33-.17-.4.06-.11.36-.17.74-.25,1.11-.11.54-.2,1.08-.31,1.61-.01.06-.09.1-.14.15-.04-.06-.09-.11-.1-.18-.1-.46-.26-.89-.53-1.28-.1-.15-.18-.31-.29-.49Z"/>
        <path class="cls-1" d="M51,22.5c-.04.09-.07.18-.11.28-.18.44-.64.63-.99.41-.29-.18-.31-.48-.3-.78,0-.2.04-.41.05-.61,0-.11,0-.22-.04-.32-.04-.09-.12-.22-.19-.22-.09,0-.21.08-.27.17-.08.11-.12.24-.21.36,0-.04-.02-.08,0-.12.09-.26.17-.52.28-.77.07-.15.21-.27.4-.24.19.03.28.19.28.37,0,.27-.03.53-.02.8,0,.21.03.42.08.62.05.19.22.25.42.22.34-.06.56-.35.52-.69-.05-.33-.07-.67-.35-.93-.08-.07.04-.42.14-.46.12-.04.21.02.24.13.08.29.17.59.23.89.06.3.19.53.51.61.07.02.15.02.23,0,.32-.06.36-.15.19-.43-.06-.09-.11-.18-.18-.27-.02-.03-.05-.04-.08-.05-.04-.1-.07-.22-.12-.34-.06-.14-.01-.58.1-.67.02-.02.13.01.15.04.13.25.23.52.37.77.14.24.22.49.14.77-.02.06-.02.13-.03.19-.06.53-.51.79-1.01.57-.14-.06-.27-.17-.42-.27Z"/>
        <path class="cls-1" d="M52.4,3.26c-.1.23-.22.2-.38.09-.14-.1-.33-.14-.48-.23-.09-.05-.17-.13-.22-.22-.08-.14.02-.73.16-.81.09-.05.23-.06.33-.02.41.14.73.42,1.01.74.31.37.55.78.69,1.25.03.1.06.19.13.28,0-.08.02-.16.02-.24.04-.66.05-1.33.28-1.97.07-.18.16-.36.27-.53.1-.16.27-.21.43-.11.15.09.27.22.4.34.03.03.04.09.04.12-.04.17-.09.35-.14.52,0,.03-.05.04-.06.05-.12-.13-.21-.27-.34-.37-.19-.15-.34-.11-.43.11-.08.19-.11.41-.14.61-.07.61-.12,1.23-.2,1.85-.02.17-.12.33-.19.49-.02.03-.08.05-.12.07-.02-.04-.06-.08-.06-.13-.09-.68-.4-1.26-.84-1.77-.03-.04-.07-.07-.14-.12Z"/>
        <path class="cls-1" d="M11.54,17.46c.22.24.31.47.34.72.03.2.03.4.09.59.06.18.16.36.27.52.05.07.16.11.25.13.08.02.2,0,.25-.04.04-.04,0-.17-.02-.24-.15-.39-.34-.76-.27-1.2.02-.14.08-.28.12-.42.02,0,.04,0,.06,0,.03.16.06.32.1.47.03.12.06.24.11.35.2.39.23.79.15,1.23-.09.49-.47.66-.88.35-.11-.08-.22-.17-.34-.26,0,.01-.04.07-.06.14-.07.23-.22.39-.42.5-.25.14-.51.09-.64-.16-.09-.17-.14-.38-.15-.58,0-.23.05-.47.07-.7.01-.15.03-.29.01-.44,0-.07-.08-.19-.12-.19-.07,0-.17.06-.21.12-.09.14-.14.3-.22.45-.04.07-.09.14-.13.21-.02,0-.04-.02-.06-.03.03-.11.04-.22.08-.32.09-.24.19-.48.29-.71.03-.07.08-.16.15-.19.1-.06.23-.12.32-.09.08.02.16.17.16.27,0,.35-.03.7-.04,1.05,0,.17,0,.35.04.51.06.26.27.33.5.2.29-.16.41-.42.36-.74-.05-.28-.14-.55-.23-.82-.07-.22.01-.41.08-.67Z"/>
        <path class="cls-1" d="M87.18,19.08c.06.1.15.19.17.29.09.31.16.63.22.95.05.22.14.41.35.5.09.04.23.02.33-.03.12-.05.12-.18.07-.3-.09-.21-.18-.41-.26-.62-.12-.29-.06-.75.11-.93.1.28.18.57.31.84.2.43.14.86,0,1.27-.19.54-.56.56-.96.19-.04-.04-.07-.09-.11-.13-.09.17-.16.33-.26.47-.18.25-.47.36-.69.29-.27-.09-.45-.34-.46-.67,0-.12.01-.24.02-.36.03-.26.01-.51-.06-.77-.04-.17.06-.38.09-.58.03,0,.06,0,.09-.01.04.07.11.14.11.21.02.21.03.42.01.63-.02.24-.05.48.07.71.11.21.28.28.51.21.28-.09.49-.39.42-.69-.07-.29-.17-.57-.26-.86-.01-.04-.03-.08-.03-.11.04-.17.08-.33.12-.5.02,0,.04-.01.06-.02Z"/>
        <path class="cls-1" d="M103.47,2.68c-.13.23-.25.47-.5.62-.77.46-1.53.95-2.29,1.43-1.22.75-2.43,1.51-3.65,2.26-.24.15-.48.3-.73.46-.05-.19.08-.47.27-.59.78-.49,1.57-.98,2.36-1.47.81-.51,1.62-1.02,2.44-1.52.61-.38,1.23-.75,1.85-1.13.07-.04.16-.07.23-.1.01.02.02.03.03.05Z"/>
        <path class="cls-1" d="M50.85,10.52c-.08.23-.14.42-.22.6-.06.13-.14.24-.22.36-.21.32-.3.34-.61.14-.36-.23-.71-.47-1.07-.71-.12-.08-.13-.18-.05-.3.19-.31.36-.62.56-.92.13-.19.18-.19.36-.06.32.25.69.44,1.03.67.09.06.16.14.23.21Z"/>
        <path class="cls-1" d="M89.79,22.74s.07.03.1.05c.36.16.72.32,1.08.47.05.02.1.03.14.05.14.05.19.13.1.28-.17.31-.33.63-.5.95-.09.16-.2.25-.41.14-.38-.2-.79-.37-1.18-.55-.13-.06-.16-.16-.09-.28.18-.32.36-.63.54-.95.04-.08.09-.16.13-.23.02.02.05.04.07.07Z"/>
        <path class="cls-1" d="M87.96,25.47c-.13-.03-.22-.04-.29-.07-.37-.18-.74-.37-1.11-.55-.15-.07-.16-.18-.08-.32.2-.3.4-.61.6-.91.03-.05.14-.1.18-.08.43.2.84.42,1.27.62.14.07.15.15.08.27-.15.27-.28.55-.43.81-.06.1-.16.16-.22.23Z"/>
        <path class="cls-1" d="M12.54,23.47s.07.03.11.04c.37.17.73.33,1.09.5.23.11.26.14.15.36-.17.34-.36.66-.56.98-.06.09-.13.11-.25.04-.29-.17-.61-.3-.91-.44-.09-.04-.18-.1-.27-.14-.17-.07-.19-.17-.1-.31.19-.29.37-.58.55-.87.04-.07.08-.15.12-.22l.07.07Z"/>
        <path class="cls-1" d="M10.71,25.95c-.18-.08-.33-.13-.48-.21-.28-.16-.56-.32-.84-.49-.13-.07-.14-.17-.06-.29.2-.29.4-.58.6-.87.09-.13.18-.17.34-.06.3.2.63.35.96.52.28.14.3.17.15.44-.16.28-.33.55-.5.81-.04.06-.11.09-.17.14Z"/>
        <path class="cls-1" d="M48.16,28.21c.06.02.09.04.13.06.34.17.68.35,1.02.52.22.11.25.2.14.42-.13.25-.26.51-.41.76-.05.09-.15.15-.23.22-.02.02-.06.01-.09,0-.37-.19-.73-.38-1.09-.58-.01,0-.02-.01-.03-.02-.28-.19-.29-.21-.09-.49.17-.25.34-.51.52-.76.04-.05.1-.09.14-.13Z"/>
        <path class="cls-1" d="M45.95,28.58c.42.24.79.47,1.16.68.1.06.15.12.08.23-.13.21-.25.41-.39.61-.07.1-.14.2-.22.29-.18.2-.2.2-.43.06-.29-.18-.58-.37-.87-.55-.16-.1-.17-.2-.06-.34.25-.33.49-.66.73-.98Z"/>
        <path class="cls-1" d="M63.62,5.99c.06-.05.12-.11.19-.16.62-.46,1.25-.9,1.86-1.38.55-.44,1.11-.88,1.61-1.38.55-.55,1.03-1.16,1.54-1.75.05-.05.08-.13.13-.16.05-.03.13-.03.2-.04,0,.06.03.14,0,.18-.23.34-.44.69-.7,1-.73.89-1.58,1.67-2.53,2.33-.46.33-.95.63-1.42.93-.27.17-.55.34-.82.5-.02-.03-.04-.05-.06-.08Z"/>
        <path class="cls-1" d="M79.77,11.06c-.04.13-.08.26-.13.38-.12.3-.27.6-.37.9-.05.16-.07.35-.05.53.04.4.37.58.74.41.37-.17.4-.33.1-.6-.12-.11-.26-.2-.4-.29-.1-.06-.13-.12-.09-.24.16-.47.17-.48.58-.18.04.03.09.06.12.09.26.23.43.46.28.85-.13.33-.24.65-.55.87-.27.19-.55.24-.84.06-.27-.17-.36-.45-.28-.74.12-.45.28-.88.44-1.32.06-.18.15-.35.24-.52.04-.08.11-.15.16-.22.02.01.04.02.06.03Z"/>
        <path class="cls-1" d="M49.99,13.51c-.04.11-.06.22-.11.32-.11.28-.24.55-.35.83-.02.06-.04.12-.05.19-.05.37.18.61.55.57.08,0,.16-.03.24-.06.29-.11.34-.27.14-.51-.14-.16-.31-.3-.48-.44-.1-.08-.13-.17-.08-.28,0-.02.02-.03.02-.05q.14-.38.45-.14c.61.48.67.76.33,1.47-.17.36-.43.58-.83.63-.43.05-.76-.28-.68-.7.11-.63.39-1.2.68-1.77.02-.04.07-.06.1-.08.02.01.04.02.06.04Z"/>
        <path class="cls-1" d="M34.93,3.53c-.03.1-.05.21-.08.31-.11.38-.24.77-.34,1.15-.06.23-.05.48.17.6.21.13.45.06.65-.07.19-.12.21-.24.06-.41-.11-.12-.23-.22-.36-.31-.14-.1-.18-.19-.12-.37.15-.44.17-.37.47-.15.09.06.17.13.25.21.17.17.27.37.16.62-.1.23-.17.47-.29.68-.17.3-.62.5-.91.44-.29-.06-.44-.22-.44-.52,0-.22.02-.45.09-.66.15-.47.33-.94.5-1.4.02-.06.08-.11.12-.17.02.01.05.02.07.03Z"/>
        <path class="cls-1" d="M68.65,12.29c-.08.17-.16.33-.23.5-.1.23-.21.45-.3.69-.04.11-.06.24-.06.36,0,.18.04.36.23.45.2.1.41.11.6-.02.17-.1.2-.23.07-.38-.13-.15-.29-.29-.45-.41-.1-.08-.13-.14-.07-.26.01-.02.02-.05.03-.07.15-.37.15-.38.46-.13.11.09.21.19.3.3.16.18.2.39.09.6-.12.25-.22.51-.38.72-.22.3-.55.38-.87.25-.27-.1-.4-.29-.39-.57.01-.19.04-.4.12-.58.19-.45.41-.89.62-1.34.03-.06.09-.11.13-.16.03.01.05.03.08.04Z"/>
        <path class="cls-1" d="M62.38,1.33c-.06.17-.11.34-.17.51-.09.25-.18.51-.26.76-.02.07-.04.14-.04.21,0,.21.01.44.22.54.19.09.38-.03.55-.14.13-.09.16-.21.06-.32-.12-.14-.25-.27-.39-.39-.11-.09-.14-.18-.1-.33.14-.46.14-.42.46-.14.11.1.22.2.31.31.06.08.11.19.11.28-.03.42-.26,1.09-.78,1.3-.42.17-.74,0-.77-.46-.01-.21.01-.44.08-.64.15-.45.34-.88.51-1.32.03-.07.09-.13.13-.19.03.01.06.02.09.04Z"/>
        <path class="cls-1" d="M19.15,28.32c-.2.45-.32.94-.69,1.3-.19.18-.46.16-.65-.04-.27-.28-.34-.62-.28-.98.13-.84.53-1.56,1.04-2.23.12-.16.23-.32.35-.48.05-.06.11-.12.16-.18.02,0,.03.02.05.02-.01.06,0,.13-.03.18-.04.08-.1.17-.16.24-.44.53-.73,1.13-.99,1.76-.13.32-.1.64.06.94.18.34.49.35.71.03.09-.13.14-.29.22-.43.04-.07.1-.14.14-.2l.07.05Z"/>
        <path class="cls-1" d="M86.55,8.13c-.13.42-.26.84-.54,1.19-.16.2-.36.21-.55.03-.33-.31-.37-.72-.3-1.14.13-.76.41-1.48.71-2.18.12-.26.24-.52.37-.78.03-.07.09-.12.14-.18l.07.03c-.03.08-.04.17-.08.25-.34.69-.63,1.4-.81,2.15-.07.28-.04.58-.05.87,0,.04.01.08.03.11.07.16.13.36.34.38.22.02.29-.18.38-.33.08-.14.15-.29.22-.44.02.01.05.03.07.04Z"/>
        <path class="cls-1" d="M49.03,4.82c-.06.42-.13.85-.41,1.2-.2.26-.45.21-.68.04-.23-.18-.34-.45-.34-.72,0-.37,0-.75.12-1.09.23-.68.53-1.34.81-2,.02-.05.07-.08.13-.11.01.25-.09.45-.2.65-.34.63-.62,1.28-.57,2.02.01.18.08.36.15.53.06.16.2.25.38.24.18,0,.28-.12.34-.27.05-.1.07-.22.11-.33.02-.06.05-.12.08-.18.02,0,.04.02.07.02Z"/>
        <path class="cls-1" d="M22.75,23.81c.08-.26.14-.47.35-.58.77-.41,1.55-.81,2.33-1.22.26-.14.52-.27.78-.4.05-.02.1-.04.17-.04-.11.22-.14.47-.4.61-.79.4-1.56.81-2.34,1.22-.27.14-.55.26-.88.42Z"/>
        <path class="cls-1" d="M91.15,1.76c-.07.17-.15.34-.22.5-.27.59-.54,1.17-.64,1.82-.04.26-.01.52.13.76.18.31.46.32.64.02.09-.14.15-.3.22-.45.04-.07.08-.14.12-.2.02,0,.04.01.06.02-.02.08-.04.17-.07.25-.12.3-.23.61-.38.9-.26.49-.63.31-.85.04-.22-.26-.26-.59-.19-.91.08-.41.2-.82.34-1.21.17-.46.39-.9.6-1.35.04-.09.12-.16.18-.24.02.01.05.03.07.04Z"/>
        <path class="cls-1" d="M98.69.74c-.07.13-.13.27-.2.4-.28.5-.54,1-.66,1.56-.04.21-.03.43,0,.64.02.12.12.24.21.33.13.12.28.11.38-.04.1-.15.19-.32.28-.48.04-.06.07-.12.11-.18.02,0,.04.02.05.02-.03.1-.05.21-.1.31-.12.27-.22.56-.38.81-.19.31-.43.32-.7.08-.18-.16-.25-.37-.26-.6-.03-.49.13-.94.33-1.37.21-.46.45-.9.69-1.35.04-.08.12-.14.18-.2.02.02.05.03.07.05Z"/>
        <path class="cls-1" d="M57.05,5.35c-.1.18-.19.35-.29.53-.29.5-.57,1-.68,1.57-.04.24-.04.47.06.69.15.31.43.35.65.08.1-.12.17-.27.25-.4.04-.06.08-.11.12-.17.02.01.05.02.07.03-.09.23-.17.47-.28.69-.09.17-.2.34-.33.49-.2.22-.45.21-.67,0-.2-.2-.27-.44-.25-.72.04-.55.25-1.04.49-1.52.2-.38.41-.75.62-1.12.04-.07.11-.13.17-.19.02.02.05.03.07.05Z"/>
      </g>
      <g>
        <path class="cls-1" d="M12.7,10.04c.03.09.06.19.07.29,0,.2.11.93.13,1.02.12.64.59,1.08,1.23,1.14.56.06,1.07-.12,1.56-.38.17-.09.35-.2.41-.41.05-.18.11-.36.13-.55.05-.43-.02-.85-.17-1.26-.18-.47-.44-.88-.89-1.13-.4-.23-.74-.23-1.06.18-.16.21-.29.45-.32.71-.07.65.12,1,.82,1,.04,0,.08,0,.12,0,.16,0,.32-.03.48-.02.27,0,.52.08.71.31.13.17.12.31-.08.43-.42.24-.86.39-1.35.42-.47.03-.99-.23-1.19-.72-.16-.37-.23-.75-.26-1.14-.09-.95-.2-1.9-.53-2.81-.18-.49-.39-.96-.6-1.44-.02-.04-.08-.09-.11-.09-.04,0-.08.06-.1.11-.05.12-.09.25-.12.37-.02.08-.02.18,0,.26.1.36.21.71.31,1.06.16.58.32,1.17.46,1.76.06.23.04.49.11.72.08.25,0,.47-.13.66-.17.24-.36.46-.57.66-.52.49-1.13.87-1.78,1.17-.37.17-.75.3-1.16.28-.32-.01-.56-.17-.67-.47-.04-.12-.07-.24-.08-.37-.04-.42.05-.83.19-1.23.02-.06.05-.12.09-.17.11-.14.23-.28.35-.42.03-.03.06-.06.1-.09.18.31.46.42.77.45.33.03.66-.13.78-.39.22-.46.29-.94.18-1.45,0-.04-.03-.08-.04-.12-.03.02-.06.02-.07.04-.1.26-.3.49-.18.81.08.21,0,.33-.22.39-.31.07-.6,0-.84-.22-.12-.11-.13-.22-.07-.37.06-.14.12-.28.19-.42-.01-.01-.02-.02-.03-.03-.06.04-.13.08-.16.14-.11.17-.22.35-.3.53-.25.6-.93.77-1.4.73-.13-.01-.24-.07-.29-.21-.04-.11-.11-.22-.17-.32-.02-.03-.06-.07-.09-.08-.02,0-.06.05-.07.08-.05.12-.08.25-.14.37-.06.13-.03.22.04.34.26.46.48.94.52,1.48,0,.14-.02.26-.13.36-.14.13-.28.27-.44.38-.97.68-2.02,1.22-3.18,1.5-.61.14-1.23.18-1.84,0-.44-.14-.8-.41-1-.84-.25-.55-.28-1.13-.13-1.71.06-.24.15-.46.23-.71.05.03.08.04.1.05.22.16.47.22.74.15.28-.08.53-.23.73-.44.46-.49.9-1,1.33-1.51.46-.55.94-1.07,1.55-1.45.46-.29.96-.38,1.49-.29.25.05.46.18.57.42.07.14.19.22.34.28.48.17,1.2-.15,1.41-.64.02-.06.06-.11.1-.17.31.38.43.46.8.5.3.03.59-.02.76-.32.27-.5.27-1.02.13-1.55,0-.03-.04-.07-.06-.07-.03,0-.07.03-.08.06-.11.26-.29.52-.09.82.01.02.01.04.02.06.03.15-.02.23-.16.28-.3.09-.57.03-.81-.15-.16-.12-.2-.29-.14-.49.04-.11.06-.22.09-.33-.01,0-.03-.02-.04-.02-.04.05-.1.09-.13.14-.11.19-.21.39-.31.59-.21.42-.57.61-1.02.65-.19.01-.39-.03-.49-.2-.09-.16-.23-.25-.37-.34-.46-.32-.97-.3-1.48-.14-.44.14-.8.42-1.14.71-.53.46-.95,1.02-1.41,1.55-.32.38-.65.75-1.01,1.08-.33.3-.72.49-1.19.48-.16,0-.28-.07-.37-.19-.14-.19-.19-.4-.22-.62-.07-.65.1-1.25.45-1.8.3-.47.63-.93.95-1.39.04-.06.08-.13.14-.15.14-.06.28-.09.43-.13.12-.03.25-.04.35-.1.29-.18.58-.35.84-.57.62-.53,1.13-1.15,1.64-1.79.04-.05.08-.11.13-.15.02-.02.07-.03.1-.02.27.13.31.26.15.51,0,0,0,0,0,.01-.33.47-.48,1.03-.63,1.57-.05.2.02.35.21.42.13.05.28.09.4.07.28-.06.57-.14.83-.26.28-.13.5-.33.56-.66.02-.12.06-.24.06-.36.02-.39,0-.78-.26-1.09-.18-.21-.15-.29.04-.49.22-.23.46-.46.65-.72.3-.38.43-.84.52-1.31.04-.19-.06-.29-.27-.28-.25,0-.46.12-.65.27-.53.39-.94.91-1.39,1.39-.12.13-.19.12-.25-.04-.02-.05-.01-.12-.03-.17-.02-.06-.05-.14-.1-.18-.11-.1-.24-.17-.37-.26-.07-.05-.12-.06-.15.04-.05.16-.1.31-.14.47-.01.04,0,.1.02.13.13.17.25.34.39.5.12.12.08.23,0,.33-.84,1.03-1.78,1.96-2.98,2.59-.26.14-.52.29-.78.44,0,.01,0,.02.01.03.13-.03.27-.06.44-.1-.09.13-.15.23-.23.32-.46.51-.85,1.06-1.11,1.7-.17.41-.31.84-.21,1.3.06.3.11.61.36.82.13.11.12.22.06.36-.31.72-.49,1.46-.36,2.25.05.32.14.64.33.91.36.5.87.72,1.47.78.82.08,1.6-.09,2.36-.4.75-.3,1.45-.69,2.11-1.15.54-.38.92-.86.97-1.54.02-.24.03-.47.05-.71,0-.05.03-.14.06-.15.18-.05.36-.09.57-.13-.03.09-.04.16-.06.23-.14.42-.24.84-.23,1.28,0,.27,0,.55.13.8.13.28.36.44.67.48.31.04.62,0,.92-.12.89-.33,1.67-.81,2.34-1.48.32-.32.6-.67.72-1.13.05-.19.08-.39.12-.59ZM15.14,9.9c-.1.02-.2.02-.3.03,0,0,0,0,0,.01-.13-.01-.26-.02-.39-.04-.16-.03-.24-.12-.24-.26,0-.14.13-.27.28-.27.31,0,.55.17.75.39.07.08-.03.13-.1.14ZM6.66,4.53c.08.19.05.29-.12.4-.28.18-.6.27-.93.28-.04,0-.08,0-.12,0-.18-.02-.26-.14-.2-.3.14-.4.39-.72.69-1.01.02-.02.09-.02.11,0,.24.16.46.36.57.64ZM5.87,2.69c.35-.4.68-.81,1.14-1.08.09-.06.2-.08.31-.12.15.02.22.09.16.22-.05.11-.12.21-.2.29-.33.35-.66.7-.99,1.04-.02.02-.08.06-.09.05-.11-.09-.23-.19-.33-.29-.02-.02,0-.08.01-.1Z"/>
        <path class="cls-1" d="M4.44,11.65c-.09-.11-.15-.19-.22-.26-.14-.13-.27-.09-.3.09-.03.2-.03.41-.05.62-.02.23-.04.45-.07.68,0,.08-.03.16-.11.17-.14-.31-.28-.61-.42-.9-.01-.02-.04-.04-.08-.07-.04.05-.08.09-.1.14-.07.27-.26.45-.49.59-.27.17-.55.32-.88.37.13-.08.27-.16.4-.25.26-.19.52-.38.77-.59.07-.06.1-.16.16-.25-.1-.03-.17-.05-.23-.08-.22-.08-.29-.41-.11-.57.04-.03.13-.03.18,0,.32.11.47.39.62.66.06.12.11.24.2.36,0-.05.01-.11.02-.16.02-.24.04-.48.06-.72,0-.07.03-.13.06-.19.05-.12.11-.25.27-.25.12,0,.34.14.36.26.01.1-.03.21-.05.35Z"/>
        <path class="cls-1" d="M0,6.17c.25-.16.51-.31.76-.48.66-.44,1.32-.87,1.9-1.41.16-.15.32-.31.38-.55-.09-.04-.18-.08-.27-.13-.25-.13-.33-.3-.21-.56.07-.15.15-.29.27-.41.2-.2.43-.12.48.16.03.16,0,.34,0,.5,0,.1,0,.22.06.28.15.14.14.27.06.44-.02-.01-.04-.02-.05-.03-.17-.18-.19-.19-.32.02-.26.41-.64.7-1.02.99-.57.43-1.2.79-1.83,1.12-.07.03-.14.05-.22.08,0,0,0-.01,0-.02ZM3.24,3.35c-.05-.17-.09-.32-.15-.47-.02-.04-.1-.09-.15-.08-.19.01-.28.19-.22.36.05.13.26.29.4.28.04,0,.08-.06.12-.09Z"/>
        <path class="cls-1" d="M12.07,3.04c.1.26.23.51.27.77.03.19-.03.4-.09.59-.01.05-.16.09-.25.08-.09,0-.18-.06-.26-.12-.09-.06-.15-.05-.21.02-.04.04-.08.08-.12.13-.1.1-.21.15-.35.1-.15-.06-.25-.17-.26-.34,0-.13.01-.26.01-.39,0-.09,0-.18,0-.28,0-.04-.03-.1-.06-.11-.04,0-.1.02-.12.05-.05.06-.08.14-.12.21-.03.05-.04.1-.07.18-.04-.22.17-.64.34-.72.11-.05.2,0,.21.12.01.17-.01.35,0,.52,0,.12.03.25.08.36.06.14.2.16.33.07.12-.1.2-.22.18-.38-.02-.17-.06-.34-.09-.52,0-.02-.03-.05-.02-.07.02-.08.06-.15.09-.22.04.06.1.11.12.17.03.15.05.31.07.46.02.18.08.34.25.42.06.03.14.02.2.02,0-.07.03-.15,0-.22-.05-.17-.12-.33-.18-.49-.06-.16,0-.31.08-.44Z"/>
        <path class="cls-1" d="M7.82,8.27c-.04.17-.14.25-.27.32-.76.36-1.52.73-2.28,1.1-.69.34-1.39.67-2.08,1.01-.17.09-.34.19-.51.29-.01-.15.06-.23.17-.28.64-.33,1.28-.67,1.92-1,.63-.31,1.27-.61,1.9-.91.35-.17.7-.33,1.05-.5.02-.01.05-.01.09-.02Z"/>
        <path class="cls-1" d="M1.99,6.86c.08-.16.15-.32.25-.47.04-.05.15-.09.22-.08.1.01.13.11.12.2,0,.12-.02.23-.02.35,0,.08,0,.16.02.24.02.11.07.21.2.22.13.01.21-.07.27-.17.11-.2.1-.42.02-.63-.07-.17-.07-.17.05-.38.05.07.1.11.12.17.03.11.03.22.06.33.03.13.06.27.12.4.04.09.15.14.23.08.05-.04.08-.15.07-.22-.01-.11-.07-.22-.1-.33-.05-.17-.04-.34.07-.51.02.03.03.04.04.06.03.12.04.24.09.35.1.24.08.47,0,.71-.08.26-.32.34-.52.15-.11-.11-.16-.07-.23.04-.14.22-.24.27-.41.22-.17-.04-.25-.14-.25-.31,0-.13.01-.25.02-.38,0-.07,0-.15,0-.22,0-.05-.05-.11-.08-.12-.05,0-.12.02-.15.06-.06.08-.1.17-.15.26-.01,0-.03-.02-.04-.02Z"/>
        <path class="cls-1" d="M14.81,4.25c-.05-.08-.09-.16-.14-.22-.07-.08-.14-.09-.2.02-.41.74-1.13,1.12-1.84,1.51-.01,0-.03,0-.06-.02.2-.14.4-.28.58-.43.36-.29.7-.59,1.05-.89.01-.01.03-.03.04-.04.2-.25.19-.3-.1-.43-.29-.14-.34-.27-.19-.55.06-.11.13-.22.22-.31.09-.09.21-.17.34-.12.13.05.19.18.19.32,0,.13-.01.25-.04.37-.03.13-.02.23.09.31.16.13.13.29.06.47ZM14.55,3.4c-.03-.09-.04-.19-.08-.27-.02-.05-.11-.11-.14-.1-.09.05-.21.11-.25.19-.05.1.03.2.13.26.04.02.08.04.12.06.18.09.21.07.23-.14Z"/>
        <path class="cls-1" d="M14.46,6.11c-.1.18-.2.36-.3.53-.01.02-.1.03-.12.02-.17-.13-.35-.26-.51-.41-.03-.03-.04-.13-.02-.17.08-.15.18-.29.27-.43.04-.06.08-.07.14-.02.14.12.29.23.43.34.04.03.06.08.11.13Z"/>
        <path class="cls-1" d="M9.77,15.1c.07-.08.12-.18.2-.23.45-.26.91-.51,1.37-.76.48-.26.97-.51,1.45-.77.06-.03.13-.06.22-.1-.03.15-.1.23-.21.29-.55.29-1.09.58-1.64.88-.38.21-.77.41-1.15.62-.07.04-.13.09-.19.13-.02-.02-.03-.04-.05-.05Z"/>
        <path class="cls-1" d="M14.68,7.44s-.03.08-.05.11c-.05.09-.1.18-.16.26-.14.22-.14.23-.36.08-.13-.09-.25-.21-.37-.32-.02-.02-.02-.09,0-.12.09-.15.19-.3.3-.44.02-.03.1-.04.13-.02.15.11.3.23.44.35.03.02.04.07.07.1Z"/>
        <path class="cls-1" d="M9.01,4.23c-.1.19-.19.38-.3.57-.05.09-.14.1-.23.06-.23-.09-.37-.31-.34-.58.07-.56.29-1.07.59-1.55.01-.02.04-.03.09-.03-.02.05-.04.11-.07.16-.22.34-.35.7-.41,1.09-.03.2,0,.39.14.55.14.16.25.14.34-.06.04-.08.08-.16.12-.25l.08.04Z"/>
        <path class="cls-1" d="M7.08,14.4c-.11.22-.2.44-.34.65-.11.18-.23.17-.39.05-.25-.19-.3-.45-.22-.73.12-.41.32-.79.56-1.14,0-.01.03-.02.07-.02-.03.06-.06.11-.09.17-.12.25-.25.5-.35.77-.08.21-.04.43.09.61.05.07.14.16.21.15.08,0,.15-.1.21-.18.05-.07.07-.16.11-.24.02-.04.06-.08.09-.11.01,0,.03.02.04.03Z"/>
        <path class="cls-1" d="M6.51,11.28c-.08.08-.14.18-.23.23-.59.32-1.18.63-1.77.93-.01,0-.03,0-.05,0,.03-.14.1-.23.22-.29.47-.24.94-.49,1.41-.73.13-.07.26-.13.39-.2.02.02.03.03.05.05Z"/>
      </g>
    </g>
  </g>
</svg>