<?xml version="1.0" encoding="UTF-8"?>
<svg id="Layer_2" xmlns="http://www.w3.org/2000/svg" viewBox="0 0 332 118.6">
  <defs>
    <style>
      .cls-1 {
        fill: #fff;
      }

      .cls-2 {
        fill: #ebdebe;
      }

      .cls-3 {
        fill: #408b8b;
      }
    </style>
  </defs>
  <g id="Layer_1-2" data-name="Layer_1">
    <g>
      <g>
        <path class="cls-3" d="M221.04,31.13c.2.95.38,1.9.59,2.85,1.04,4.84,2.13,9.66,3.11,14.51.57,2.85,1.03,5.72,1.4,8.6.28,2.16.36,4.35.09,6.53-.19,1.53-.52,3.03-1.14,4.48-.47,1.12-1.32,1.89-2.38,2.54-.26.16-.5.44-.58.71-.69,2.14-1.14,4.35-1.2,6.57-.06,2.34.2,4.67,1.32,6.85,1,1.93,2.64,3.19,4.75,4.01,2.82,1.09,5.73,1.2,8.67.69,4.03-.69,7.84-1.97,11.5-3.68,3.75-1.74,7.29-3.77,10.64-6.09,1.04-.72,2.04-1.51,3.01-2.32.67-.56.63-.91.01-1.54-.68-.7-1.61-.98-2.55-1.16-1.48-.28-2.97-.51-4.46-.71-2.34-.31-4.68-.57-7.02-.87-.37-.05-.74-.16-1.09-.27-.29-.09-.37-.28-.24-.56.5-1.06.97-2.13,1.48-3.19.08-.16.28-.29.46-.38,1.12-.56,2.32-.99,3.34-1.68,1.01-.68,1.88-1.57,2.73-2.44.91-.94,1.24-2.13,1.19-3.37-.06-1.4-.19-2.81-.34-4.21-.14-1.3-.31-2.6-.51-3.89-.24-1.56-.52-3.11-.81-4.67-.33-1.79-.69-3.57-1.02-5.35-.44-2.33-.84-4.66-1.29-6.99-.56-2.89-1.15-5.77-1.73-8.65-.04-.21-.11-.43-.18-.63-.34-.95-.24-1.87.1-2.81.29-.81.49-1.65.73-2.47.05-.16.1-.33.19-.47.07-.1.2-.24.3-.23.1,0,.23.16.27.27.2.56.38,1.12.55,1.69,1.39,4.7,2.26,9.5,3.24,14.28.42,2.04.76,4.1,1.14,6.15.56,2.92,1.04,5.86,1.72,8.76.4,1.71.96,3.41,2.05,4.91.64.89,1.51,1.53,2.52,2.03.1.05.23.06.48.11-.12-.28-.19-.47-.29-.65-1.33-2.51-2.21-5.13-1.88-7.95.27-2.35,1.2-4.51,2.96-6.26,1.43-1.42,3.33-2.19,5.37-2.63,3.59-.78,6.97-.19,10.19,1.35.69.33,1.28.86,1.91,1.3-.02.05-.04.11-.06.16-.17,0-.38.08-.51.01-2.02-.97-4.11-.63-6.19-.28-2.54.43-5.08.91-7.46,1.87-1.22.49-2.37,1.15-3.56,1.72-.5.25-.55.65-.5,1.11.16,1.55.56,3.03,1.26,4.46.89,1.82,2.11,3.38,3.86,4.6,2.57,1.79,5.25,2.07,8.1.67,2.6-1.27,5.03-2.76,7.28-4.5,1.03-.79,2.02-1.64,3.04-2.44.12-.1.36-.19.47-.14.11.05.21.29.18.42-.33,1.34-.6,2.71-1.69,3.75-1.74,1.66-3.69,3.07-5.72,4.41-1.83,1.2-3.72,2.28-5.74,3.17-1.91.84-3.9,1.46-6,1.56-2.27.1-4.56-.06-6.62-1.12-1.4-.71-2.43-1.79-3.24-3.05-.15-.23-.29-.45-.43-.68-.06,0-.11,0-.17-.01-.09.25-.24.5-.27.75-.25,2.09-.89,4.08-1.8,5.99-.35.73-.86,1.4-1.34,2.07-.34.48-.3.61.32.69,1.24.15,2.49.27,3.73.45.91.14,1.81.35,2.71.55,1.92.43,2.93,1.59,3.12,3.37.26,2.34-.13,4.61-1.63,6.51-.93,1.18-2.26,2.14-3.56,3.01-2.48,1.67-5,3.29-7.62,4.77-2.8,1.58-5.71,3.02-8.82,4.05-2.35.78-4.71,1.52-7.17,1.87-3.22.46-6.32.14-9.28-1.22-2.64-1.22-4.14-3.22-5.06-5.71-1.21-3.29-1.08-6.63-.38-9.98.33-1.6.79-3.17,1.19-4.75.04-.16.06-.33.1-.6-.36.05-.66.07-.94.13-1.9.42-3.79.76-5.76.32-2.14-.48-3.98-1.4-5.34-3-1.65-1.94-3.19-3.96-4.81-5.91-.86-1.03-1.81-2-2.72-2.99-.06.02-.11.05-.17.07.02.18.01.37.07.54.77,2,.84,4.05.72,6.15-.1,1.62-.39,3.15-1.35,4.54-.58.84-1.34,1.51-2.24,2.02-.69.39-.93.86-.87,1.6.17,1.89-.17,3.75-.66,5.57-.62,2.28-2.11,4.05-4.09,5.49-.92.67-1.8,1.4-2.78,2-1.7,1.05-3.45,2.04-5.21,3.01-1.47.81-2.98,1.56-4.5,2.29-.91.44-1.87.78-2.81,1.18-.87.37-1.72.77-2.59,1.12-1.35.53-2.71,1.05-4.08,1.53-1.64.57-3.29,1.13-4.96,1.61-1.76.51-3.54.89-5.42.88-1.72,0-3.44.11-5.16.19-1.12.05-2.24.07-3.35.16-1.75.14-3.49.32-5.24.49-.32.03-.65.06-.97.07-.12,0-.25-.06-.37-.09.09-.1.16-.26.28-.3,1.08-.33,2.17-.66,3.27-.96,1.75-.49,3.51-.96,5.27-1.44,1.2-.33,2.4-.64,3.59-.99,2.18-.64,4.37-1.26,6.53-1.94,2.82-.88,5.66-1.71,8.43-2.73,2.88-1.06,5.74-2.21,8.49-3.52,3.02-1.44,5.94-3.04,8.83-4.69,2.04-1.17,3.94-2.53,5.44-4.3.55-.64.79-1.32.46-2.1-.33-.78-.67-1.55-1.06-2.31-.06-.12-.39-.21-.56-.17-1.17.25-2.31.58-3.49.81-1.82.35-3.67.37-5.46-.09-1.35-.34-2.35-1.09-2.8-2.43-.52-1.55-.12-2.96.41-4.39.47-1.28,1.31-2.3,2.4-3.17.99-.78,2.1-1.09,3.39-.9,1.69.24,3.13.94,4.41,1.96,1.08.86,1.98,1.86,2.74,2.98.1.16.48.31.65.25,1.28-.41,2.48-.96,3.47-1.84.35-.31.48-.67.42-1.13-.3-2.27-1.47-4.2-2.81-6.05-2.05-2.82-4.51-5.35-7-7.83-2.81-2.81-5.75-5.52-8.51-8.36-1.84-1.89-3.47-3.96-5.17-5.96-.13-.16-.16-.45-.11-.66.3-1.48.58-2.97.97-4.44.4-1.47,1.47-2.5,2.78-3.37,2.69-1.77,5.59-3.18,8.55-4.5,2.69-1.19,5.36-2.41,8.1-3.5,3.48-1.39,7-2.73,10.55-3.97,1.41-.49,2.94-.81,4.45-.92,2.54-.19,3.76,1.03,3.87,3.38.11,2.22-.43,4.34-1.1,6.43-.98,3.04-2.33,5.96-4,8.74-1.34,2.23-2.83,4.38-4.27,6.55-.47.71-1,1.4-1.51,2.09-.11.14-.26.26-.38.39-.07-.02-.14-.04-.21-.06.07-.35.09-.72.21-1.05.51-1.43,1.29-2.72,2.15-4,2.94-4.36,5.49-8.89,7.27-13.77.35-.96.3-1.92.02-2.87-.26-.88-.98-1.34-2.08-1.42-1.89-.13-3.66.34-5.4.96-.4.14-.84.18-1.23.33-.51.19-.99.44-1.48.65-.1.04-.25,0-.35.05-.2.07-.39.17-.55.34-1.11-.02-1.99.61-2.96.99-1.54.62-3.08,1.24-4.6,1.89-3,1.29-6.02,2.52-8.96,3.93-2.3,1.1-4.48,2.42-6.71,3.64-.12.07-.22.17-.33.26-.6.56-.58.89-.11,1.54,1.15,1.56,2.71,2.75,4.24,3.97,2.56,2.04,5.18,4,7.74,6.04,2.45,1.95,4.88,3.92,7.24,5.96,2.5,2.15,4.8,4.48,6.88,6.99.95,1.14,1.83,2.34,2.82,3.44.95,1.05,1.94,2.09,3.03,3.01,1.23,1.02,2.78,1.53,4.42,1.69,2.87.28,5.52-.35,7.91-1.87.49-.31.73-.67.69-1.26-.2-3.15-.74-6.26-1.39-9.36-.75-3.62-1.47-7.25-2.22-10.87-.54-2.57-1.13-5.13-1.66-7.69-.35-1.7-.62-3.41-.94-5.11-.23-1.24-.46-2.47-.72-3.71-.08-.37-.18-.78-.42-1.08-.44-.55-.39-1.07-.11-1.64.45-.92.86-1.85,1.31-2.76.1-.19.3-.34.46-.51.16.16.37.3.47.49.78,1.57,1.53,3.15,2.31,4.72.83,1.65,1.68,3.29,2.52,4.94.05.11.12.21.14.33.03.25.03.5.04.75-.28-.07-.62-.07-.83-.23-.47-.36-.88-.8-1.32-1.2-.28-.25-.57-.48-.85-.73l-.2.11ZM191.19,71.58c.03-.09.06-.17.09-.26-.14-.08-.29-.15-.41-.24-.96-.77-2.08-1.27-3.3-1.56-.69-.16-1.29,0-1.8.45-.59.52-.44,1.26.36,1.41,1.04.2,2.1.35,3.16.41.63.04,1.27-.14,1.9-.22Z"/>
        <path class="cls-3" d="M96.63,31.31c.1.76.17,1.51.29,2.27.49,3.07.99,6.14,1.5,9.2.57,3.45,1.2,6.89,1.73,10.34.83,5.39,1.93,10.76,2.26,16.21.17,2.77-.18,5.49-.73,8.2-.28,1.37-.84,2.64-1.74,3.75-.71.88-1.67,1.46-2.79,1.83-.32.11-.62.29-.93.41-2.37.97-4.81,1.24-7.35.71-1.56-.33-2.83-1.12-3.96-2.12-.35-.31-.69-.64-1.03-.97-.56-.53-.57-.54-1.2-.11-1.1.74-2.18,1.51-3.29,2.24-2.34,1.54-4.87,2.68-7.76,3-1.82.2-3.59-.14-5.2-.97-1.75-.9-2.79-2.34-3.52-4.01-1.06-2.42-1.57-4.95-1.85-7.53-.29-2.74-.52-5.48-.76-8.22-.18-2.04-.35-4.07-.5-6.11-.14-1.97-.22-3.95-.37-5.92-.2-2.57-.41-5.15-.68-7.72-.32-3.05-.62-6.11-1.11-9.14-.45-2.76-.89-5.54-1.85-8.22-.15-.42-.38-.81-.68-1.21-1.55,4.02-2.67,8.1-2.92,12.36-.05,0-.09-.01-.14-.02,0-.57-.05-1.15,0-1.72.44-4.41,1.77-8.62,3.3-12.79.19-.52.36-1.06.61-1.56.1-.21.39-.44.61-.46.16-.02.44.26.54.46,1.02,2.05,1.78,4.18,2.25,6.39.29,1.35.6,2.69.83,4.05.22,1.36.4,2.73.52,4.09.34,3.89.68,7.79.96,11.68.18,2.56.22,5.13.38,7.69.18,2.8.37,5.59.64,8.38.27,2.75.59,5.5,1,8.24.21,1.44.6,2.87,1.34,4.18,1,1.78,2.44,2.95,4.68,3.45,2.61.58,4.84-.24,7.07-1.15,1.25-.51,2.38-1.27,3.53-1.96.62-.37.6-.52.12-1.03-1.29-1.37-2.55-2.77-4.31-3.65-1.41-.71-2.96-1.02-4.52-.54-.67.2-1.21.76-1.81,1.15-.14.09-.31.15-.46.23-.01-.16-.09-.34-.03-.46.69-1.36,1.4-2.72,2.1-4.07.36-.69,1.07-.98,1.78-1.13,1.57-.33,3.17-.58,4.76-.8.97-.13,1.95-.19,2.93-.23,2.53-.1,5.06-.03,7.55.34,1.81.27,3.6.65,5.36,1.08,1.2.29,1.22.38,1.04,1.49-.14.85-.39,1.69-.63,2.53-.12.45-.46.72-.93.92-2.17.93-4.18,2.09-6.07,3.44-.54.39-.52.5.02.91,1.24.94,2.73,1.24,4.26,1.36,2.96.24,5.57-.73,8.03-2.12.69-.39.97-.96.96-1.73-.04-2.91-.46-5.79-.95-8.65-.82-4.81-1.65-9.61-2.5-14.41-.49-2.76-1.07-5.51-1.52-8.28-.62-3.83-1.16-7.67-1.73-11.51-.31-2.09-.62-4.18-.96-6.27-.06-.39-.3-.75-.42-1.13-.08-.25-.19-.57-.09-.79.52-1.21,1.09-2.41,1.68-3.6.09-.19.36-.3.54-.45.13.16.32.31.39.49,1.34,3.33,2.68,6.66,4,9.99.24.61.4,1.25.57,1.89.05.19,0,.4-.07.62-1.19-.73-1.67-1.97-2.62-2.85-.06.02-.11.03-.17.05ZM81.27,72.38c.15.24.21.38.31.49.76.87,1.54,1.73,2.29,2.61.23.27.45.29.73.09,1.01-.71,2.02-1.42,3.02-2.14.15-.11.25-.29.46-.53-2.28-.37-4.45-.56-6.8-.52Z"/>
        <path class="cls-3" d="M37.28,61.69c-.41,3.7-1.55,7.07-4.74,9.77.41.12.65.23.89.25,1.55.15,3.12.24,4.66.42,1.27.15,2.49.49,3.59,1.12,1.12.64,1.66,1.61,1.62,2.79-.07,2.4-.44,4.75-2.16,6.67-.83.92-1.81,1.76-2.85,2.47-2.05,1.41-4.13,2.79-6.31,4.01-2.06,1.15-4.23,2.14-6.42,3.08-2.67,1.15-5.43,2.07-8.32,2.64-2.81.55-5.66.75-8.48.16-1.04-.22-2.04-.67-2.99-1.13-.75-.37-1.45-.87-2.1-1.38-1.04-.81-1.79-1.84-2.33-2.99-1.17-2.47-1.47-5.08-1.31-7.73.22-3.66,1.26-7.17,2.72-10.57.72-1.67,1.5-3.31,2.25-4.96.12-.25.2-.52.3-.78-2.3-.62-3.31-1.76-3.49-3.94-.2-2.5.3-4.93,1.21-7.26,1.03-2.63,2.23-5.21,3.36-7.81.18-.4.33-.82.55-1.2.66-1.15,1.34-2.29,2.03-3.42.07-.12.27-.17.41-.26.02.17.11.36.05.5-.54,1.35-1.1,2.69-1.68,4.02-.75,1.73-1.58,3.43-2.27,5.17-.58,1.48-1.12,2.98-1.48,4.51-.35,1.48-.37,3.02.41,4.43.23.42.57.83.96,1.13.68.53,1.33.5,1.94-.09.38-.37.65-.84.94-1.28.25-.4.44-.84.69-1.25.07-.11.23-.18.35-.27.06.15.17.29.16.44-.05,1.07-.39,2.07-.91,3.03-1.16,2.1-2.34,4.19-3.42,6.33-1.62,3.21-2.78,6.56-3.07,10.11-.22,2.73.1,5.39,1.33,7.92.87,1.79,2.37,2.91,4.26,3.7,1.7.71,3.48.88,5.31.94,2.9.09,5.68-.42,8.38-1.34,2.62-.89,5.25-1.8,7.79-2.88,3.9-1.67,7.55-3.75,10.89-6.26.41-.31.78-.66,1.16-.99.31-.27.33-.54.09-.89-.77-1.11-1.98-1.59-3.27-1.83-1.57-.29-3.16-.41-4.75-.61-2.41-.3-4.83-.48-7.17-1.18-.46-.14-.53-.33-.38-.7.43-1.09.84-2.18,1.31-3.25.09-.21.38-.39.63-.49,2.52-1.11,4.85-2.45,6.53-4.57.82-1.04,1.3-2.16,1.27-3.5-.07-3.75-.51-7.47-.94-11.18-.45-3.89-.9-7.77-1.36-11.66-.3-2.46-.6-4.93-.95-7.39-.2-1.39-.51-2.77-.76-4.16-.03-.18-.02-.37.02-.55.28-1.13.57-2.25.89-3.37.07-.25.28-.48.43-.71.19.22.44.42.55.67,1.02,2.42,1.46,4.97,1.9,7.52.19,1.09.39,2.18.55,3.27.29,1.96.57,3.92.83,5.88.46,3.44.88,6.89,1.34,10.33.24,1.76.44,3.53.81,5.27.37,1.76.78,3.53,1.42,5.21.87,2.27,2.6,3.78,5.3,4.17.48.07.96.15,1.45.18.35.03.53-.16.52-.5-.04-1.12-.05-2.24-.09-3.36-.07-2.02.28-3.97,1.11-5.85.45-1,.99-1.92,1.88-2.67,1.19-1.01,2.41-.92,3.57.1,1.1.97,1.61,2.26,2.03,3.57,1.01,3.14.67,6.21-.69,9.19-.57,1.26-1.74,2.07-3.03,2.65-1,.44-2.08.71-3.14,1.04-.33.1-.51.24-.57.57-.34,1.73-.69,3.46-1.07,5.19-.1.47-.28.94-.47,1.39-.05.13-.24.21-.36.31-.09-.13-.24-.25-.27-.4-.04-.19,0-.4.05-.59.29-1.43.62-2.86.88-4.3.08-.46.03-.93.01-1.4,0-.38-.28-.54-.65-.54-1.88.03-3.65-.33-5.2-1.34-.7-.46-1.36-1.02-1.87-1.65-.87-1.08-1.37-2.36-1.69-3.68-.17-.68-.37-1.34-.55-2.01ZM48.45,63.04s.08.02.12.03c.06.77.13,1.54.19,2.3.03.35.21.47.58.38,1.49-.37,2.98-.77,4.27-1.58.36-.22.71-.48.98-.79.15-.18.23-.51.15-.73-.29-.88-.56-1.78-1.01-2.59-.46-.82-1.04-1.61-1.71-2.3-.56-.58-1.09-.54-1.63.04-.48.51-.99,1.08-1.19,1.71-.37,1.14-.51,2.35-.75,3.53Z"/>
        <path class="cls-3" d="M108.77,62.51c.12.4.21.8.02,1.23-1.58,3.49-2.65,7.1-3.03,10.87-.2,2.01.09,3.97,1.15,5.75,1.14,1.91,2.82,3.3,5.05,4.16,2.38.91,4.85,1.34,7.39,1.26,2.73-.09,5.43-.52,8.02-1.34,2.35-.74,4.73-1.49,6.95-2.5,2.67-1.21,5.2-2.68,7.76-4.08,1.06-.58,2.08-1.24,3.05-1.93,1.03-.74,2.01-1.54,2.97-2.36.55-.47.57-.71-.02-1.16-.57-.45-1.22-.85-1.91-1.11-1.82-.69-3.78-.77-5.72-.98-2.15-.24-4.29-.52-6.43-.81-.66-.09-1.3-.3-1.96-.45-.39-.09-.5-.3-.37-.64.45-1.14.87-2.28,1.36-3.4.08-.18.39-.35.62-.38,2.21-.3,4.34-.86,6.41-1.61,1.47-.53,2.91-1.15,4.03-2.24.47-.45.6-.89.39-1.5-.53-1.56-1.57-2.83-2.63-4.09-1.91-2.27-3.55-4.7-5.04-7.22-.1-.17-.13-.44-.06-.62.43-1.18.86-2.35,1.35-3.51.2-.48.4-.46.83-.11.97.81,1.98,1.58,2.94,2.39.63.53,1.21,1.1,1.79,1.68.14.14.19.36.29.54-.04.05-.08.09-.12.14-.3-.07-.61-.13-.9-.22-.14-.04-.25-.18-.38-.18-.31-.01-.63.02-.94.04.08.23.11.49.25.67.98,1.31,2.03,2.58,2.98,3.91,1.52,2.13,1.84,4.46,1.3,6.94-.33,1.51-.7,3-1.68,4.27-.5.65-1.13,1.21-1.77,1.89.22.06.45.17.7.2,1.72.21,3.41.48,4.99,1.19,1.09.49,1.81,1.27,2.02,2.35.37,1.89.23,3.79-.77,5.49-.6,1.01-1.49,1.89-2.35,2.75-1.62,1.61-3.6,2.81-5.56,4.04-2.92,1.84-5.91,3.55-9.13,4.9-2.63,1.11-5.32,2.11-8.14,2.71-2.98.64-5.99,1.08-9.08.68-2.28-.3-4.46-.86-6.41-1.96-2.21-1.25-3.71-3.02-4.34-5.42-.58-2.18-.65-4.39-.47-6.59.2-2.53.74-5.02,1.68-7.41.72-1.86,1.5-3.7,2.28-5.54.11-.27.32-.5.49-.74.05.01.1.03.15.04Z"/>
        <path class="cls-3" d="M140.52,94.04c-2.25.08-4.49.13-6.74.23-2.5.12-5,.29-7.5.43-.18,0-.37-.1-.56-.15.15-.14.28-.36.45-.4,2.63-.67,5.26-1.32,7.89-1.98,3.35-.84,6.72-1.62,10.04-2.56,3.06-.86,6.07-1.86,9.08-2.86,2.25-.75,4.48-1.59,6.7-2.42,1.11-.41,2.18-.9,3.26-1.36,1.64-.71,3.32-1.35,4.9-2.15,1.95-.98,3.84-2.07,5.72-3.17.54-.32.99-.8,1.37-1.28.19-.25.29-.7.19-.98-.47-1.28-.92-2.59-1.58-3.79-1.69-3.05-3.08-6.21-4.26-9.45-.13-.35-.1-.65.06-1.01.45-.95.83-1.93,1.25-2.9.08-.19.25-.44.41-.47.15-.02.39.19.53.35,1.05,1.16,2.1,2.31,3.1,3.49.36.43.6.95.87,1.43.05.1,0,.25-.02.37-.13-.03-.27-.03-.39-.08-.42-.18-.83-.39-1.26-.58-.32-.14-.47.02-.41.3.05.28.15.55.28.81.71,1.43,1.37,2.89,2.16,4.29,1.16,2.05,1.33,4.17.92,6.4-.35,1.94-.83,3.84-2.12,5.44-.6.74-1.37,1.38-2.16,1.96-2.19,1.62-4.66,2.85-7.14,4.05-1.57.76-3.14,1.53-4.76,2.19-1.87.77-3.79,1.44-5.7,2.13-1.55.56-3.11,1.13-4.69,1.62-2.44.76-4.84,1.63-7.42,1.95-.82.1-1.66.11-2.5.16,0,0,0,0,0-.01Z"/>
        <path class="cls-3" d="M235.41,30.01c1.51,8.37,3.02,16.74,4.54,25.16.13-.06.27-.09.38-.16,2.6-1.63,4.79-3.65,6.52-6.07.5-.7.49-.73-.28-1.13-.55-.29-1.11-.57-1.64-.89-.72-.43-.9-.83-.68-1.58.29-1,.59-2.01,1.49-2.74,1.02-.82,2.27-.53,2.53.71.18.84.18,1.73.11,2.59-.04.54-.15.93.41,1.35.69.52.71,1.5.21,2.46-.18-.25-.33-.46-.49-.65-.4-.49-.64-.48-.95.05-1.74,2.91-4.13,5.25-7.1,7.11-.31.2-.41.39-.35.75.53,3.15.96,6.31,1.04,9.5.06,2.4.03,4.8-.65,7.14-.07.24-.16.49-.31.69-.09.13-.33.26-.47.23-.14-.03-.32-.24-.33-.38-.03-.33.06-.67.04-1-.12-1.81-.18-3.62-.42-5.42-.39-2.93-.9-5.84-1.37-8.76-.03-.16-.09-.31-.16-.57-2.64,1.71-5.25,3.29-8.05,4.58-.03-.03-.06-.06-.1-.09.17-.17.33-.36.53-.5,1.77-1.23,3.55-2.45,5.32-3.68.62-.43,1.24-.88,1.81-1.37.17-.15.27-.48.23-.7-.4-2.4-.82-4.8-1.25-7.2-.73-4.09-1.48-8.17-2.19-12.26-.43-2.48-.8-4.97-1.2-7.46-.2-1.23-.41-2.45-.62-3.67-.04-.23-.1-.48-.24-.67-.35-.49-.28-.94-.02-1.45.43-.85.77-1.74,1.17-2.6.08-.17.29-.3.45-.44.13.15.3.28.38.45.69,1.47,1.39,2.94,2.05,4.43.82,1.84,1.61,3.69,2.41,5.54.07.17.13.36.13.54,0,.18-.09.36-.14.54-.19-.07-.43-.1-.56-.23-.53-.55-1.02-1.14-1.53-1.7-.16-.18-.33-.34-.5-.51-.05.02-.1.05-.16.07ZM247.51,46.51c.05-.05.11-.1.16-.15,0-.79-.07-1.56-.57-2.24-.34-.47-.91-.51-1.43-.15-.46.33-.65,1.05-.25,1.32.65.45,1.39.81,2.08,1.21Z"/>
        <path class="cls-3" d="M111.84,21.17c.15.37.3.74.45,1.11,1.27,3.21,2.55,6.42,3.81,9.63.19.48.31,1,.4,1.51.03.19-.1.41-.16.61-.26-.11-.62-.16-.78-.34-.42-.5-.75-1.07-1.13-1.6-.27-.37-.56-.71-.85-1.07-.05.02-.11.04-.16.07.09.57.18,1.14.27,1.71.61,4.02,1.21,8.03,1.82,12.05.47,3.09.95,6.17,1.41,9.26.24,1.63.41,3.26.63,4.89.3,2.28.62,4.56.93,6.84.52,3.83.74,7.68.62,11.54-.05,1.75-.04,3.53-.73,5.21-.08.19-.12.41-.26.55-.15.15-.38.24-.58.35-.09-.18-.26-.35-.27-.53-.05-1.42.01-2.86-.12-4.27-.29-3.11-.63-6.21-1.04-9.3-.43-3.29-.96-6.58-1.45-9.87-.43-2.94-.86-5.88-1.29-8.82-.69-4.74-1.4-9.47-2.08-14.21-.34-2.36-.61-4.73-.96-7.08-.2-1.29-.23-2.61-.89-3.81-.08-.14-.07-.38,0-.52.63-1.19,1.28-2.37,1.93-3.55.08-.14.2-.26.3-.39.06,0,.12.01.18.02Z"/>
        <path class="cls-3" d="M154.01,30.83c.03.48.04.96.11,1.43.23,1.56.48,3.11.71,4.67.33,2.19.65,4.37.96,6.56.52,3.74,1.07,7.48,1.54,11.22.42,3.35.81,6.7,1.1,10.06.21,2.44.31,4.89.32,7.33.01,3.12-.17,6.23-.97,9.28-.08.31-.15.64-.32.91-.12.2-.39.32-.6.47-.09-.21-.26-.43-.26-.64,0-1.94.14-3.89.03-5.83-.17-3.11-.44-6.22-.76-9.33-.32-3.12-.72-6.24-1.15-9.35-.44-3.19-.95-6.38-1.41-9.56-.36-2.53-.7-5.06-1.04-7.58-.33-2.48-.66-4.96-.99-7.44-.23-1.73-.42-3.46-.7-5.19-.11-.65-.44-1.27-.64-1.91-.07-.22-.09-.5,0-.7.44-1.03.93-2.04,1.41-3.05.06-.14.13-.28.23-.4.25-.29.57-.26.71.07.63,1.44,1.22,2.9,1.86,4.34.72,1.64,1.48,3.27,2.2,4.91.25.57.44,1.17.64,1.76.05.14.05.31,0,.44-.05.13-.17.28-.3.31-.1.02-.28-.1-.36-.21-.57-.72-1.12-1.45-1.68-2.17-.13-.17-.3-.32-.46-.47-.06.02-.12.04-.18.06Z"/>
        <path class="cls-3" d="M75.59,34.62c-.03,3.49-.75,6.3-1.73,9.06-.28.79-.51,1.61-.87,2.37-.19.41-.59.76-.92,1.11-.09.09-.28.1-.43.14-.04-.15-.15-.32-.11-.44.18-.56.43-1.1.61-1.67.7-2.12,1.27-4.27,1.36-6.5.11-2.96-.83-5.68-2.44-8.18-1.05-1.64-2.31-3.17-3.45-4.77-.14-.19-.2-.52-.12-.73.35-.85.74-1.68,1.16-2.49.29-.57.49-.58.92-.07,2.23,2.63,4.23,5.39,5.23,8.64.41,1.33.6,2.71.78,3.53Z"/>
        <path class="cls-3" d="M20.55,60.41c.04-.32.06-.65.13-.97.45-2.15.31-4.31.15-6.47-.21-2.93-.96-5.76-1.81-8.57-.27-.89-.53-1.78-.73-2.68-.24-1.1.02-2.19.49-3.19.4-.86,1.35-1.17,2.23-1.5.37-.14.76-.25,1.13-.38.01-.08.03-.15.04-.23-.53-.29-1.04-.63-1.6-.86-.37-.15-.71.03-.86.41-.06.15-.13.29-.33.44-.05-.11-.15-.23-.13-.32.18-.59.34-1.19.59-1.76.12-.26.21-.44.15-.76-.27-1.47-.96-2.77-1.79-4.02-.24-.36-.49-.71-1.01-.3-.06.05-.24,0-.34-.03-.56-.19-1.11-.41-1.67-.59-.64-.21-1.03-.8-.89-1.42.07-.3.14-.59.22-.88.18-.75.6-.97,1.39-.7,1.29.44,2.22,1.28,2.88,2.35.53.85.91,1.78,1.36,2.68.05.1.1.19.16.29.06,0,.11-.01.17-.02,0-.48,0-.95,0-1.43-.01-1.42.15-2.81.61-4.17.11-.32.26-.63.46-.91.42-.58,1.13-.7,1.77-.33.14.08.27.17.4.26.8.53.95,1.18.46,1.99-.16.26-.29.21-.5.04-.29-.25-.6-.49-.94-.68-.64-.34-1.19-.14-1.37.53-.15.56-.21,1.15-.25,1.74-.13,1.64-.23,3.28-.35,4.91-.02.28-.1.55-.16.87,1.28.39,2.26,1.21,3.19,2.1.74.71.36,1.99-.66,2.26-1.04.28-2.1.53-3.11.91-1.01.38-1.15.72-.89,1.7.51,1.9,1.09,3.79,1.56,5.7.8,3.25,1.14,6.55.93,9.89-.04.65-.16,1.3-.24,1.95-.07.51-.11,1.02-.22,1.52-.06.25-.26.47-.4.71-.07-.03-.14-.06-.21-.08Z"/>
        <path class="cls-3" d="M164.22,58.24c-.12-3.64-1.28-6.97-3.27-10.07-.06-.09-.1-.19-.18-.25-.75-.62-.62-1.28-.17-2,.35-.56.58-1.19.93-1.76.31-.52.54-.5.89,0,1,1.43,1.7,3,2.24,4.62.5,1.49.96,2.99,1.07,4.56.18,2.48.25,4.97-.51,7.39-.58,1.88-1.26,3.73-1.92,5.59-.17.49-.45.94-.72,1.4-.1.16-.28.32-.46.4-.27.12-.47.03-.42-.29.02-.13.08-.26.12-.38.66-1.93,1.4-3.84,1.96-5.8.31-1.09.3-2.26.44-3.39Z"/>
        <path class="cls-3" d="M85.21,58.33c.06-.95.06-1.8.19-2.64.18-1.11.39-2.22.73-3.29.54-1.74,1.77-1.97,3.09-.66.67.67.7,1.38.06,2.29-.3-.3-.57-.6-.87-.87-.88-.8-1.64-.62-1.86.51-.23,1.22-.26,2.46-.46,3.69-.18,1.1-.45,2.2-.71,3.29-.04.16-.27.28-.41.42-.12-.17-.3-.32-.34-.51-.39-1.51-1.01-2.94-1.91-4.26-.34-.49-.59-.5-.81.04-.85,2.14-2.75,3.37-4.68,4.55-2.76,1.69-5.78,2.88-8.88,3.91-.65.21-1.28.47-1.92.71-.16.06-.32.1-.48.15-.02-.04-.05-.09-.07-.13.2-.12.39-.25.61-.35,3.92-1.8,7.82-3.65,11.39-6.01,1.15-.76,2.15-1.74,3.15-2.69.61-.58.5-.77-.32-1-.24-.07-.49-.14-.72-.23-.9-.37-1.14-.8-.91-1.68.1-.39.22-.78.33-1.17.1-.36.4-.54.74-.4.54.22,1.11.45,1.54.8,1.53,1.28,2.5,2.9,3.13,4.7.07.21.16.41.24.61.02.04.06.08.17.2Z"/>
        <path class="cls-3" d="M266.49,90.95c.16-.41.29-.77.43-1.12.93-2.34,1.17-4.76.97-7.23-.26-3.3-1.62-6.16-3.97-8.63-.23-.24-.28-.44-.15-.72.38-.84.73-1.68,1.12-2.51.23-.5.49-.53.87-.12,1.59,1.69,2.59,3.67,3.3,5.79,1.03,3.04.93,6.1.39,9.21-.31,1.76-1.01,3.35-2.01,4.85-.17.26-.36.6-.95.5Z"/>
        <path class="cls-3" d="M98.1,87.72c-.57.68-1.06,1.42-1.72,2.02-1.72,1.55-3.6,2.93-5.85,3.8-2.99,1.16-6.1,1.74-9.36,1.47-.76-.06-1.44-.32-2.04-.76-.6-.44-.76-1.01-.43-1.65.47-.88,1.06-1.68,1.94-2.27.18-.12.37-.21.64-.36-.53-.33-.87-.51-1.18-.73-.4-.27-.52-.61-.29-1.06.55-1.09,1.2-2.11,2.25-2.86.75-.54,1.43-.61,2.03-.17.33.24.51.5.22.9-.25.33-.44.7-.7,1.11-.23-.26-.36-.47-.55-.6-.59-.39-1.96.15-2.04.81-.02.19.16.49.34.58.62.3,1.28.55,1.94.77.18.06.45-.07.66-.15.56-.24,1.11-.5,1.67-.74.1-.04.23-.04.48-.08-.42.64-.55,1.26-1.32,1.6-1.46.64-2.86,1.39-4.25,2.15-1.01.56-.95,1.16.13,1.62,1.14.49,2.37.49,3.59.42,2.5-.16,4.93-.65,7.22-1.62,2.26-.95,4.17-2.36,5.88-4.01.15-.15.35-.26.53-.38.07.06.13.12.2.18Z"/>
        <path class="cls-3" d="M205.45,81.65c-.14.3-.24.51-.34.74-.74-.36-1.47-.66-2.12-1.06-.61-.37-.39-.99-.33-1.53.03-.28.17-.55.29-.81.25-.58.58-.75,1.13-.4.83.52,1.66,1.08,2.35,1.75.97.93,1.49,2.13,1.88,3.37.04.11.07.23.11.34.01.03.05.05.14.13.05-.26.1-.47.12-.69.18-1.52.43-3.03,1.04-4.46.2-.48.56-.92.91-1.34.28-.33.69-.32,1.09-.14.91.4,1.27,1.18.95,2.04-.1.27-.21.54-.36.93-.29-.42-.47-.73-.7-1-.56-.66-1.33-.57-1.59.24-.25.78-.39,1.6-.53,2.41-.31,1.82-.51,3.66-1.25,5.39-.86,1.99-2.31,3.57-4.16,4.81-1.3.87-2.7,1.64-4.13,2.33-.81.39-1.75.54-2.63.8-.86.25-1.71.51-2.61.66.67-.34,1.34-.7,2.02-1.03,2.54-1.23,5.09-2.45,7.36-4.1,1.39-1.01,2.59-2.16,3.44-3.58.19-.32.28-.77.24-1.14-.18-1.48-.81-2.81-1.74-4.02-.16-.2-.35-.38-.59-.64Z"/>
        <path class="cls-3" d="M191.32,42.93c-.71-.11-1.37-.11-1.95-.32-.66-.24-1.25-.65-1.85-1-.05-.03-.07-.24-.05-.25.14-.05.3-.12.44-.1.48.08.95.22,1.44.27,1.75.2,3.48-.03,5.19-.37,1.93-.38,3.85-.77,5.77-1.17.15-.03.38-.13.39-.2.01-.14-.09-.32-.2-.42-.6-.55-1.38-.68-2.17-.63-.96.06-1.91.21-2.86.32-.79.09-1.59.17-2.38.24-.21.02-.44,0-.65-.04-1.02-.22-1.25-.75-.74-1.59,1.06-1.74,2.59-3.01,4.6-3.76.43-.16.91-.25,1.37-.28.66-.05.88.32.56.85-.14.22-.27.45-.46.62-.11.1-.33.13-.5.13-.43.02-.88-.08-1.28.02-1.2.3-2.2.94-3.04,1.78-.37.38-.31.64.23.74.47.09.98.12,1.45.06,1.08-.12,2.15-.37,3.23-.44.93-.06,1.89-.04,2.79.14.46.09.87.56,1.22.93.29.31.28.71.06,1.09-.17.28-.33.56-.47.85-.36.73-.99,1.02-1.83,1.15-1.49.22-2.95.58-4.43.83-1.3.22-2.61.38-3.86.55Z"/>
        <path class="cls-3" d="M50.26,89.12c.04,2.21-.29,4.38-1.03,6.49-.13.36-.3.72-.51,1.05-.08.12-.3.17-.45.26-.07-.16-.23-.32-.21-.46.07-.41.22-.81.31-1.22.98-4.4.29-8.47-2.8-12.05-.36-.41-.86-.71-1.25-1.1-.14-.14-.25-.43-.19-.58.41-.93.87-1.84,1.32-2.76.19-.39.46-.28.73-.06,1.4,1.15,2.38,2.55,3.05,4.16.85,2.03.99,4.15,1.03,6.28Z"/>
        <path class="cls-3" d="M92.24,38.63c-.24,1-.59,1.68-1.6,2.09-2.01.82-3.95,1.78-5.91,2.69-1.05.49-2.11.98-3.15,1.48-2.09,1-4.18,2-6.26,3.02-.92.46-1.8.99-2.72,1.46-2.2,1.13-4.42,2.23-6.63,3.36-.56.28-1.08.62-1.62.93-.13.08-.27.13-.42.21-.14-.54.22-1.4.74-1.69,1.72-.97,3.43-1.96,5.19-2.88,2.69-1.41,5.4-2.78,8.12-4.13,1.86-.92,3.75-1.78,5.63-2.67,2.06-.96,4.12-1.92,6.18-2.88.65-.3,1.31-.59,1.96-.88.12-.05.26-.07.5-.14Z"/>
        <path class="cls-3" d="M105.32,39.54c1.15.65,2.04,1.51,2.84,2.48,1.74,2.12,2.15,4.53,1.61,7.07-.46,2.15-1.11,4.27-1.66,6.4-.16.62-.29,1.24-.41,1.87-.05.26-.05.54,0,.8.08.54.19,1.11.83,1.32.68.22,1.13-.22,1.58-.59.27-.22.33-.52.03-.74-.43-.33-.88-.64-1.36-.9-.38-.2-.51-.39-.34-.8.48-1.12.48-1.14,1.59-.49.72.42,1.43.91,1.22,1.83-.13.57-.32,1.16-.66,1.64-.4.56-.94,1.07-1.52,1.47-.75.52-1.8.15-2.15-.66-.34-.8-.27-1.63-.06-2.43.29-1.18.67-2.33,1-3.5.51-1.82.96-3.65,1.02-5.54.1-3.12-1.3-5.58-3.98-7.44-.71-.49-.72-.87,0-1.38.15-.11.27-.26.42-.41Z"/>
        <path class="cls-3" d="M278.58,69.23c-.18-.19-.28-.28-.37-.38-.46-.52-.99-.6-1.56-.19-.3.21-.59.48-.76.78-.1.18-.05.6.1.69.59.37,1.24.67,1.88.96.12.05.35-.04.5-.11.48-.24.93-.52,1.41-.76.19-.1.42-.14.67-.14-.32.59-.49,1.18-1.15,1.58-1.32.79-2.59,1.66-3.84,2.55-.61.44-.54.95.15,1.31.45.23.97.41,1.48.45,2.57.2,4.86-.57,6.99-1.83,1.2-.71,2.27-1.55,3.18-2.57.1-.12.27-.18.41-.27.06.04.12.08.17.12-.27.41-.49.86-.82,1.23-1.5,1.7-3.28,3.09-5.46,3.99-1.54.64-3.16,1-4.86.93-.8-.04-1.54-.23-2.17-.72-.58-.45-.73-.86-.45-1.51.37-.89.8-1.76,1.61-2.42.18-.15.31-.36.48-.57-.4-.29-.75-.55-1.1-.81-.39-.29-.49-.64-.31-1.07.48-1.16,1.17-2.2,2.14-3.06.77-.69,1.51-.66,2.06.07.11.15.17.41.12.59-.11.38-.3.73-.5,1.17Z"/>
        <path class="cls-3" d="M48.24,43.39c.02.16.07.32.05.47-.17,1.07-.53,2.08-1.2,2.99-.31.42-.73.46-1.2.26-.88-.36-1.29-1.05-1.44-1.89-.23-1.23-.06-2.44.21-3.64.45-1.98.91-3.96,1.34-5.95.66-3.11-.22-5.87-2.33-8.33-.52-.6-1.06-1.19-1.64-1.75-.28-.28-.31-.5-.08-.79.06-.08.12-.17.17-.26.46-.84.52-.85,1.21-.18,1.75,1.69,3.23,3.52,3.82,5.87.33,1.31.31,2.6.02,3.89-.47,2.06-1.08,4.1-1.5,6.18-.27,1.29-.55,2.62-.13,3.93.13.41.39.84.71,1.14.41.38.84.28,1.1-.21.22-.42.34-.88.51-1.32.06-.15.12-.29.19-.44.06,0,.13.02.19.03Z"/>
        <path class="cls-3" d="M60.69,91.45c-.68.56-1.25.27-1.82.14-.71-.17-1.07-.71-1.24-1.26-.12-.38.11-.86.19-1.3,0-.04.06-.08.09-.12.34-.35.24-1.13,1.06-1,.52.08,1.02.36,1.54.4.8.06.69.69.9,1.09.57,1.04,1.1,2.11,1.61,3.17.19.39.29.8.44,1.21.05,0,.1,0,.15-.01.11-.7.2-1.4.35-2.1.22-1.05.47-2.1.72-3.14.05-.19.14-.38.23-.56.27-.54.54-1.1,1.33-1.1.54,0,1.4.64,1.47,1.27.06.52-.19,1.07-.3,1.61-.06,0-.13.01-.19.02-.11-.12-.23-.23-.33-.35-.16-.18-.29-.39-.45-.56-.46-.48-.95-.46-1.15.15-.32.95-.5,1.94-.71,2.92-.3,1.41-.57,2.83-.89,4.23-.03.15-.27.27-.41.4-.1-.15-.25-.3-.29-.46-.28-1.21-.74-2.34-1.5-3.37-.28-.39-.52-.81-.81-1.27Z"/>
        <path class="cls-3" d="M129.91,76.71c-.1.24-.2.48-.31.72-.51,1.14-1.82,1.66-2.83,1.08-.83-.47-.88-1.26-.84-2.05.02-.53.12-1.07.15-1.6.01-.28,0-.59-.1-.84-.1-.24-.35-.58-.53-.58-.26,0-.59.22-.77.44-.23.28-.33.64-.61.94-.01-.1-.06-.22-.03-.31.25-.68.48-1.37.8-2.02.2-.4.59-.71,1.14-.63.55.09.78.5.8.96.02.7-.08,1.4-.06,2.1.02.54.07,1.1.24,1.62.16.49.63.66,1.19.57.98-.16,1.6-.91,1.47-1.81-.13-.87-.21-1.77-.99-2.43-.22-.19.11-1.11.41-1.2.34-.1.59.04.68.33.24.77.48,1.54.64,2.33.17.79.55,1.38,1.44,1.59.2.05.44.05.64.02.92-.16,1.03-.4.54-1.14-.16-.24-.32-.49-.5-.72-.05-.07-.16-.1-.23-.14-.1-.27-.2-.59-.35-.88-.18-.35-.04-1.53.28-1.76.07-.05.37.03.42.12.37.66.66,1.37,1.06,2.01.4.64.63,1.27.41,2.01-.05.16-.07.33-.09.5-.17,1.39-1.46,2.08-2.86,1.5-.4-.17-.76-.44-1.19-.7Z"/>
        <path class="cls-3" d="M133.9,26.24c-.29.61-.62.53-1.08.23-.41-.26-.93-.37-1.37-.61-.25-.13-.49-.35-.63-.58-.23-.37.06-1.91.45-2.12.25-.14.67-.15.95-.06,1.16.38,2.07,1.1,2.86,1.95.89.97,1.57,2.05,1.95,3.28.08.25.17.49.37.73.02-.21.05-.41.06-.62.12-1.74.13-3.5.79-5.16.19-.48.46-.95.76-1.38.29-.42.76-.56,1.23-.29.42.24.78.58,1.14.89.08.07.12.23.1.32-.12.46-.26.91-.41,1.35-.02.07-.15.12-.17.13-.34-.35-.6-.71-.96-.97-.53-.38-.97-.29-1.22.28-.21.51-.32,1.06-.39,1.61-.2,1.61-.34,3.23-.56,4.84-.06.44-.34.87-.55,1.28-.05.09-.23.12-.35.18-.06-.11-.16-.22-.18-.34-.24-1.8-1.14-3.3-2.4-4.65-.09-.1-.21-.17-.4-.32Z"/>
        <path class="cls-3" d="M17.69,63.47c.63.62.87,1.22.98,1.9.08.51.09,1.05.26,1.54.16.48.45.94.76,1.36.13.18.45.29.7.33.23.04.57.02.7-.11.11-.11.03-.43-.06-.63-.41-1.02-.98-2-.77-3.14.07-.38.22-.74.33-1.11.06,0,.11.02.17.02.09.41.17.83.28,1.24.08.31.16.63.31.91.57,1.03.66,2.08.42,3.22-.27,1.29-1.34,1.72-2.49.92-.32-.22-.64-.44-.97-.67-.02.03-.12.19-.18.37-.21.59-.62,1.02-1.2,1.31-.71.36-1.46.23-1.83-.43-.26-.46-.41-1-.43-1.52-.03-.61.14-1.23.21-1.85.04-.38.08-.77.04-1.15-.02-.18-.22-.5-.34-.5-.21,0-.49.15-.6.32-.25.36-.41.78-.62,1.17-.11.19-.25.37-.38.55-.06-.02-.11-.05-.17-.07.07-.28.12-.58.23-.85.26-.63.53-1.25.83-1.86.09-.19.24-.41.42-.51.28-.14.66-.31.92-.24.22.06.46.45.47.7.01.92-.08,1.84-.1,2.76,0,.45,0,.91.11,1.34.18.69.76.87,1.43.53.84-.43,1.18-1.1,1.01-1.94-.15-.73-.4-1.45-.64-2.16-.2-.58.04-1.07.22-1.75Z"/>
        <path class="cls-3" d="M232.79,67.73c.17.25.41.49.5.77.25.82.44,1.66.63,2.49.13.57.41,1.07.99,1.31.26.1.67.04.94-.07.34-.14.36-.48.21-.79-.25-.54-.5-1.08-.74-1.62-.33-.76-.16-1.97.32-2.44.29.73.52,1.49.88,2.21.56,1.13.39,2.26-.01,3.34-.53,1.42-1.59,1.47-2.72.5-.11-.1-.2-.23-.31-.35-.25.44-.45.87-.74,1.24-.52.67-1.34.95-1.98.75-.78-.24-1.28-.9-1.3-1.75,0-.32.03-.64.07-.95.08-.69.03-1.34-.16-2.03-.13-.45.16-1,.26-1.51.08,0,.17-.02.25-.03.11.19.31.37.32.56.05.55.07,1.1.03,1.65-.05.64-.14,1.27.21,1.87.32.56.8.75,1.46.56.81-.23,1.38-1.03,1.19-1.8-.19-.76-.5-1.5-.75-2.25-.03-.09-.09-.2-.07-.28.1-.44.23-.87.34-1.3.06-.02.12-.03.17-.05Z"/>
        <path class="cls-3" d="M279.11,24.72c-.37.62-.71,1.22-1.44,1.62-2.2,1.21-4.35,2.49-6.53,3.74-3.46,1.98-6.92,3.95-10.37,5.93-.69.39-1.38.8-2.08,1.2-.14-.5.23-1.23.77-1.54,2.23-1.29,4.47-2.57,6.7-3.86,2.31-1.33,4.62-2.67,6.93-4,1.74-1,3.5-1.98,5.25-2.96.2-.11.44-.18.66-.27.03.04.07.09.1.13Z"/>
        <path class="cls-3" d="M129.48,45.27c-.24.6-.4,1.1-.63,1.57-.16.33-.4.64-.62.95-.61.83-.84.89-1.74.36-1.02-.6-2.03-1.24-3.04-1.86-.34-.21-.36-.47-.16-.78.53-.8,1.03-1.62,1.59-2.41.36-.51.52-.49,1.01-.15.92.65,1.95,1.16,2.92,1.75.25.15.45.38.67.56Z"/>
        <path class="cls-3" d="M240.22,77.32c.1.04.19.09.29.13,1.03.42,2.05.83,3.08,1.25.13.05.27.09.41.14.39.14.53.34.3.73-.49.82-.94,1.66-1.42,2.48-.25.42-.56.66-1.16.37-1.09-.52-2.23-.96-3.36-1.43-.38-.16-.44-.42-.25-.74.51-.83,1.02-1.66,1.53-2.49.12-.2.25-.41.37-.61.07.06.14.12.21.18Z"/>
        <path class="cls-3" d="M235.01,84.48c-.38-.08-.63-.09-.84-.18-1.06-.47-2.11-.96-3.17-1.44-.42-.19-.46-.48-.21-.83.57-.8,1.12-1.6,1.71-2.39.1-.13.39-.27.5-.22,1.21.53,2.4,1.1,3.61,1.63.41.18.44.38.24.71-.42.71-.8,1.43-1.23,2.12-.16.25-.44.43-.61.6Z"/>
        <path class="cls-3" d="M20.55,79.24c.1.04.2.07.3.11,1.04.44,2.08.88,3.11,1.32.65.28.73.36.42.94-.47.88-1.03,1.73-1.58,2.57-.16.25-.36.29-.72.1-.83-.44-1.72-.78-2.59-1.16-.26-.12-.51-.26-.78-.36-.47-.17-.54-.44-.28-.82.53-.76,1.05-1.53,1.57-2.29.12-.18.22-.38.33-.57l.2.17Z"/>
        <path class="cls-3" d="M15.33,85.74c-.5-.2-.95-.34-1.36-.55-.81-.41-1.6-.85-2.4-1.28-.36-.19-.4-.44-.16-.75.57-.75,1.13-1.52,1.7-2.27.26-.35.51-.43.98-.15.86.52,1.8.93,2.72,1.36.8.37.86.44.42,1.15-.45.73-.94,1.43-1.43,2.13-.11.15-.31.24-.47.36Z"/>
        <path class="cls-3" d="M121.83,91.66c.16.07.26.1.36.14.97.45,1.94.91,2.91,1.36.63.29.72.52.39,1.11-.37.67-.74,1.34-1.16,1.98-.15.23-.43.4-.66.58-.05.04-.18.04-.25,0-1.04-.5-2.08-1.01-3.11-1.51-.03-.02-.06-.03-.09-.05-.81-.49-.82-.55-.27-1.28.5-.66.98-1.33,1.48-1.98.11-.14.27-.24.4-.35Z"/>
        <path class="cls-3" d="M115.56,92.64c1.18.64,2.24,1.23,3.31,1.79.3.16.42.32.23.6-.36.54-.72,1.08-1.1,1.61-.19.26-.4.52-.63.75-.52.53-.58.53-1.24.16-.83-.47-1.65-.97-2.48-1.44-.45-.25-.48-.52-.17-.9.71-.86,1.41-1.74,2.08-2.57Z"/>
        <path class="cls-3" d="M165.78,33.4c.18-.14.35-.29.54-.42,1.76-1.21,3.56-2.37,5.28-3.63,1.58-1.15,3.16-2.32,4.58-3.63,1.56-1.44,2.94-3.05,4.39-4.59.13-.14.22-.33.38-.42.15-.09.37-.08.57-.11,0,.16.08.37,0,.48-.65.89-1.27,1.8-2,2.63-2.09,2.34-4.5,4.37-7.19,6.12-1.32.86-2.69,1.65-4.05,2.45-.77.46-1.56.88-2.34,1.32-.06-.07-.11-.13-.17-.2Z"/>
        <path class="cls-3" d="M3.14,32.18c.21-2.19.92-4.06,1.97-5.83.05-.09.22-.11.33-.17.03.12.13.26.09.35-.16.37-.36.73-.56,1.09-.53.99-.85,2.03-.91,3.13-.03.56.05,1.14.63,1.4.63.28,1.28.1,1.85-.26.15-.09.27-.22.39-.35.26-.28.34-.55-.03-.81-.43-.31-.84-.64-1.28-.93-.35-.22-.46-.45-.31-.84.4-1.03.26-1.05,1.35-.4.15.09.29.2.44.3.85.58,1.13,1.24.82,2.26-.31,1.04-.86,1.83-1.78,2.42-1.03.66-2.27.46-2.77-.46-.17-.31-.19-.7-.24-.91Z"/>
        <path class="cls-3" d="M211.71,46.7c-.12.33-.23.67-.38,1-.35.79-.76,1.56-1.05,2.37-.16.43-.2.93-.15,1.38.1,1.05,1.05,1.51,2.09,1.07,1.04-.44,1.13-.86.28-1.57-.35-.29-.75-.53-1.15-.76-.27-.16-.36-.32-.24-.62.47-1.24.49-1.25,1.65-.48.12.08.24.15.35.24.74.59,1.22,1.21.8,2.22-.36.88-.69,1.71-1.56,2.28-.78.5-1.58.62-2.39.15-.77-.45-1.01-1.19-.8-1.94.33-1.18.8-2.32,1.25-3.47.18-.47.43-.92.68-1.37.12-.21.3-.39.45-.58.06.03.12.05.17.08Z"/>
        <path class="cls-3" d="M127.03,53.12c-.1.28-.18.57-.31.85-.33.73-.67,1.44-1,2.17-.07.15-.11.32-.13.49-.15.97.51,1.61,1.55,1.5.23-.02.47-.08.68-.16.82-.29.97-.71.39-1.33-.4-.43-.88-.8-1.36-1.16-.29-.22-.37-.44-.21-.74.02-.05.05-.09.06-.14q.38-1.01,1.28-.37c1.74,1.25,1.9,2,.95,3.85-.49.95-1.23,1.52-2.36,1.64-1.22.13-2.16-.72-1.95-1.84.31-1.65,1.1-3.15,1.93-4.63.05-.09.19-.14.29-.22.06.03.12.06.18.09Z"/>
        <path class="cls-3" d="M84.2,26.93c-.08.27-.15.54-.23.81-.32,1.01-.68,2.01-.97,3.03-.17.59-.13,1.25.48,1.58.6.33,1.27.16,1.85-.2.53-.32.6-.62.16-1.06-.3-.3-.67-.57-1.03-.81-.4-.26-.5-.51-.33-.97.43-1.15.48-.97,1.35-.38.25.17.5.34.71.55.48.46.77.97.46,1.63-.28.6-.49,1.23-.83,1.79-.47.79-1.76,1.32-2.59,1.15-.82-.17-1.25-.59-1.25-1.36,0-.58.06-1.18.25-1.73.42-1.24.94-2.46,1.43-3.68.07-.16.22-.29.34-.44.07.03.13.05.2.08Z"/>
        <path class="cls-3" d="M180.09,49.92c-.22.44-.44.88-.66,1.32-.29.6-.59,1.19-.84,1.8-.12.29-.17.62-.17.94,0,.48.11.94.66,1.18.58.26,1.16.28,1.72-.04.47-.27.57-.61.21-1-.37-.4-.82-.76-1.27-1.08-.28-.2-.38-.38-.21-.67.04-.06.06-.12.09-.18.42-.98.43-.99,1.32-.34.31.23.58.5.85.77.46.47.56,1.01.26,1.58-.34.64-.62,1.32-1.07,1.9-.61.79-1.56.99-2.47.66-.75-.27-1.15-.76-1.1-1.51.03-.51.11-1.05.33-1.51.54-1.19,1.17-2.35,1.77-3.51.08-.16.25-.28.37-.42.07.04.14.08.22.12Z"/>
        <path class="cls-3" d="M162.27,21.18c-.16.44-.32.89-.48,1.33-.25.66-.51,1.33-.75,1.99-.06.17-.1.36-.11.54,0,.55.04,1.15.62,1.41.55.25,1.09-.08,1.56-.37.38-.22.45-.54.16-.85-.34-.36-.72-.71-1.12-1.02-.31-.25-.41-.47-.28-.86.41-1.21.39-1.11,1.32-.38.32.25.63.52.88.82.17.2.32.49.3.73-.07,1.1-.73,2.86-2.22,3.4-1.2.44-2.1,0-2.19-1.19-.04-.55.03-1.15.22-1.68.43-1.17.95-2.32,1.46-3.46.08-.19.25-.34.38-.51.08.03.16.06.24.09Z"/>
        <path class="cls-3" d="M39.34,91.97c-.57,1.17-.9,2.46-1.96,3.41-.54.48-1.32.41-1.84-.09-.76-.73-.96-1.62-.8-2.56.38-2.21,1.52-4.1,2.97-5.86.34-.41.66-.84,1-1.25.14-.16.3-.31.45-.46.05.02.09.04.14.06-.03.16-.02.34-.1.48-.12.22-.28.43-.45.63-1.24,1.38-2.09,2.97-2.82,4.61-.37.84-.29,1.69.17,2.48.52.89,1.4.93,2.01.09.25-.34.4-.75.61-1.12.11-.19.27-.36.41-.54l.19.12Z"/>
        <path class="cls-3" d="M230.99,39.01c-.37,1.09-.73,2.2-1.54,3.11-.47.52-1.02.55-1.56.09-.95-.82-1.06-1.89-.86-2.98.37-1.99,1.16-3.87,2.03-5.72.33-.69.69-1.37,1.05-2.04.09-.17.25-.32.38-.48l.2.09c-.08.22-.12.45-.23.66-.97,1.81-1.8,3.67-2.3,5.63-.19.73-.1,1.52-.13,2.28,0,.1.04.2.08.29.2.43.37.93.96,1,.63.06.83-.47,1.08-.86.24-.37.42-.77.63-1.16.07.03.13.07.2.1Z"/>
        <path class="cls-3" d="M124.29,30.32c-.18,1.11-.38,2.23-1.16,3.15-.57.67-1.28.56-1.92.11-.67-.47-.97-1.17-.96-1.9,0-.96.02-1.98.34-2.87.65-1.79,1.51-3.51,2.3-5.26.06-.13.21-.22.38-.29.04.65-.26,1.18-.57,1.72-.96,1.65-1.78,3.35-1.61,5.29.04.47.24.94.43,1.39.18.42.56.65,1.07.64.51-.01.78-.32.97-.7.14-.27.21-.57.32-.85.06-.16.15-.32.22-.48.06.02.12.04.19.06Z"/>
        <path class="cls-3" d="M49.59,80.13c.22-.67.4-1.24.99-1.53,2.19-1.08,4.41-2.13,6.61-3.19.74-.36,1.48-.71,2.23-1.06.14-.06.28-.11.49-.1-.31.58-.39,1.24-1.14,1.59-2.24,1.04-4.44,2.14-6.67,3.19-.77.37-1.56.68-2.51,1.1Z"/>
        <path class="cls-3" d="M244.08,22.29c-.21.44-.42.88-.64,1.32-.76,1.54-1.52,3.08-1.81,4.77-.12.69-.04,1.37.36,1.99.51.8,1.29.84,1.83.06.25-.36.41-.78.62-1.17.1-.18.22-.36.33-.54.05.02.11.04.16.06-.06.22-.1.45-.19.66-.35.79-.66,1.6-1.09,2.35-.73,1.29-1.79.81-2.43.11-.63-.69-.73-1.56-.55-2.38.23-1.08.56-2.15.98-3.18.49-1.21,1.11-2.37,1.7-3.54.12-.24.34-.43.52-.64.07.04.14.07.21.11Z"/>
        <path class="cls-3" d="M265.5,19.62c-.19.35-.37.7-.58,1.04-.8,1.3-1.54,2.63-1.88,4.1-.13.54-.09,1.13,0,1.68.05.31.33.63.6.86.36.3.79.28,1.09-.11.3-.4.53-.83.8-1.25.1-.16.21-.31.32-.46.05.02.1.04.15.06-.09.27-.15.56-.27.82-.34.72-.64,1.47-1.08,2.13-.54.81-1.23.84-2,.2-.51-.42-.7-.96-.75-1.57-.1-1.29.38-2.45.94-3.58.59-1.2,1.29-2.36,1.96-3.53.12-.2.34-.36.51-.53.07.04.13.09.2.13Z"/>
        <path class="cls-3" d="M147.1,31.73c-.28.46-.54.92-.83,1.38-.82,1.31-1.63,2.61-1.93,4.13-.12.63-.13,1.23.18,1.82.42.82,1.22.92,1.84.2.28-.33.48-.71.72-1.06.11-.16.23-.3.35-.45.07.03.13.06.2.09-.26.6-.48,1.23-.8,1.81-.25.46-.57.9-.95,1.28-.58.58-1.29.56-1.9,0-.56-.52-.77-1.16-.72-1.88.11-1.44.7-2.73,1.4-3.99.56-1,1.16-1.97,1.77-2.95.12-.19.31-.33.47-.5.06.04.13.09.19.13Z"/>
      </g>
      <g>
        <rect class="cls-2" x="295.58" y="0" width="32.43" height="117.01" rx="15.44" ry="15.44"/>
        <path class="cls-1" d="M314.09,78.57c.7-.59,2.54-2.15,4.34-3.01,2.32-1.11,4.63-1.53,6.47-.6,1.7.85,1.73,2.97,1.73,2.97.22-.07,1.97-1.83,2.55-2.42,5.06-5.19,2.06-7.04.48-7.26-.85-.14-1.72-.16-2.58-.13-2.67.08-4.72.5-8,.32-3.06-.17-3.52-.43-3.52-.43,0,0,6.46-6.23,6.1-14.48-.41-4.28-2.06-7.62-2.06-7.62,0,0-2.03.54-3.9,1.83-3.1,1.96-11.05,10.67-11.16,17.2-.35,6.61,7.35,8.32,8.04,8.73-1.13.9-2.07,1.85-2.43,2.2h0s-.34.31-.34.31h0s-13.82-7.88-13.82-14.31c2.04-1.89,15.84-17.08,23.67-28.54,5.25-7.68-1.72-16.05-1.72-16.05,0,0,1.38,5.44-.9,8.93-4.58,7.02-8.29,10.98-12.1,15.55-2.84,3.4-10.78,12.23-12.22,16.42-1.79,5.22-.47,11.54,1.16,14.08,1.61,2.52,3.65,4.74,6.03,6.55,2.28,1.74,4.23,2.78,4.23,2.78,0,0-9.87,8.32-10.58,19.96-.81,13.21,10.01,16.13,10.01,16.13,0,0,14.6,4.84,22.8-7.87,8.2-12.71,3.61-19.93.16-23.71-3.4-3.72-12.23-7.45-12.46-7.54ZM310.83,58.33c1.09-5.03,7.27-8.31,7.27-8.31,0,0,3.67,6.76-.46,13.61-.94,1.68-2.77,3.92-2.85,3.97-3.79-2.35-4.76-5.58-3.96-9.27ZM306.29,110.7c-3.54-1.3-5.51-3.48-6.66-6-2.01-4.41-1.3-9.59,1.65-13.44,3.01-3.94,6.49-7.19,6.49-7.19,0,0,11.62,4.57,16.13,8.42,4.51,3.86,3.96,8.68,4.11,9.49-2.95,5.63-13.36,11.78-21.72,8.72Z"/>
      </g>
    </g>
  </g>
</svg>