<?xml version="1.0" encoding="UTF-8"?>
<svg id="Layer_2" xmlns="http://www.w3.org/2000/svg" viewBox="0 0 52.52 1470.5">
  <defs>
    <style>
      .cls-1 {
        fill: none;
        stroke: #ebdebe;
        stroke-miterlimit: 10;
      }

      .cls-2 {
        fill: #ebdebe;
      }
    </style>
  </defs>
  <g id="Layer_1-2" data-name="Layer_1">
    <g>
      <line class="cls-1" x1="48" x2="48" y2="100"/>
      <line class="cls-1" x1="4.5" y1="100" x2="4.5" y2="100.5"/>
      <g>
        <path class="cls-2" d="M39.42,1107.22s1.93-1.55,3.47-2.35c1.7-.87,2.94-1.2,4.36-.65,1.29.5,1.29,2.21,1.29,2.21.17-.06,1.46-1.35,1.89-1.79,3.75-3.85,1.53-5.22.35-5.38-.63-.1-1.28-.12-1.91-.1-1.98.06-3.5.37-5.93.24-2.27-.12-2.61-.32-2.61-.32,0,0,4.79-4.62,4.52-10.73.05-1.06-.42-7.05-4.42-4.3-2.3,1.46-7.46,6.31-7.54,11.16-.26,4.9,4.71,7.77,5.23,8.07-1.07.85-1.92,1.71-1.92,1.71l-1.51-1.13c-5.15-3.88-5.88-11.34-1.56-16.13,3.58-3.98,11.53-11.37,14.48-15.01,3.87-4.76.72-11.33.38-11.72-.02-.02.08,1.54-.24,3.71-.19,1.29-1.78,3.77-2.6,4.79-1.41,1.74-10.47,10.33-15.46,15.89-5.74,6.4-4.8,16.34,2.05,21.55l1.48,1.13s-7.73,7.24-7.73,15.28c0,8.92,7.36,12.1,8.21,12.49,4.8,1.91,8.93,1.32,12.03-1.33,5.94-4.6,7.15-13.42,3.96-18.16-2.99-4.45-10.26-9.12-10.26-9.12ZM36.82,1091.9c.81-3.73,5.39-6.16,5.39-6.16,0,0,2.72,5.01-.34,10.09-.7,1.25-2.05,2.91-2.11,2.95-2.81-1.74-3.53-4.14-2.94-6.88ZM45.09,1130.17c-5.36,4.35-12.49.29-14.47-5.62-2.09-7.59,5.41-14.2,5.41-14.2,0,0,5.82,3.75,9.36,7.53,3.71,3.95,3.54,8.47-.31,12.29Z"/>
        <path class="cls-2" d="M13.1,1096.72s-1.93,1.55-3.47,2.35c-1.7.87-2.94,1.2-4.36.65-1.29-.5-1.29-2.21-1.29-2.21-.17.06-1.46,1.35-1.89,1.79-3.75,3.85-1.53,5.22-.35,5.38.63.1,1.28.12,1.91.1,1.98-.06,3.5-.37,5.93-.24,2.27.12,2.61.32,2.61.32,0,0-4.79,4.62-4.52,10.73-.05,1.06.42,7.05,4.42,4.3,2.3-1.46,7.46-6.31,7.54-11.16.26-4.9-4.71-7.77-5.23-8.07,1.07-.85,1.92-1.71,1.92-1.71l1.51,1.13c5.15,3.88,5.88,11.34,1.56,16.13-3.58,3.98-11.53,11.37-14.48,15.01-3.87,4.76.03,11.55.36,11.94.02.02-.83-1.76-.5-3.93.19-1.29,1.78-3.77,2.6-4.79,1.41-1.74,10.47-10.33,15.46-15.89,5.74-6.4,4.8-16.34-2.05-21.55l-1.48-1.13s7.73-7.24,7.73-15.28c0-8.92-7.36-12.1-8.21-12.49-4.8-1.91-8.93-1.32-12.03,1.33-5.94,4.6-7.15,13.42-3.96,18.16,2.99,4.45,10.26,9.12,10.26,9.12ZM15.7,1112.05c-.81,3.73-5.39,6.16-5.39,6.16,0,0-2.72-5.01.34-10.09.7-1.25,2.05-2.91,2.11-2.95,2.81,1.74,3.53,4.14,2.94,6.88ZM7.43,1073.78c5.36-4.35,12.49-.29,14.47,5.62,2.09,7.59-5.41,14.2-5.41,14.2,0,0-5.82-3.75-9.36-7.53-3.71-3.95-3.54-8.47.31-12.29Z"/>
        <path class="cls-2" d="M39.42,1180.74s1.93-1.55,3.47-2.35c1.7-.87,2.94-1.2,4.36-.65,1.29.5,1.29,2.21,1.29,2.21.17-.06,1.46-1.35,1.89-1.79,3.75-3.85,1.53-5.22.35-5.38-.63-.1-1.28-.12-1.91-.1-1.98.06-3.5.37-5.93.24-2.27-.12-2.61-.32-2.61-.32,0,0,4.79-4.62,4.52-10.73.05-1.06-.42-7.05-4.42-4.3-2.3,1.46-7.46,6.31-7.54,11.16-.26,4.9,4.71,7.77,5.23,8.07-1.07.85-1.92,1.71-1.92,1.71l-1.51-1.13c-5.15-3.88-5.88-11.34-1.56-16.13,3.58-3.98,11.53-11.37,14.48-15.01,3.87-4.76-.03-11.55-.36-11.94-.02-.02.83,1.76.5,3.93-.19,1.29-1.78,3.77-2.6,4.79-1.41,1.74-10.47,10.33-15.46,15.89-5.74,6.4-4.8,16.34,2.05,21.55l1.48,1.13s-7.73,7.24-7.73,15.28c0,8.92,7.36,12.1,8.21,12.49,4.8,1.91,8.93,1.32,12.03-1.33,5.94-4.6,7.15-13.42,3.96-18.16-2.99-4.45-10.26-9.12-10.26-9.12ZM36.82,1165.42c.81-3.73,5.39-6.16,5.39-6.16,0,0,2.72,5.01-.34,10.09-.7,1.25-2.05,2.91-2.11,2.95-2.81-1.74-3.53-4.14-2.94-6.88ZM45.09,1203.69c-5.36,4.35-12.49.29-14.47-5.62-2.09-7.59,5.41-14.2,5.41-14.2,0,0,5.82,3.75,9.36,7.53,3.71,3.95,3.54,8.47-.31,12.29Z"/>
        <path class="cls-2" d="M13.1,1170.24s-1.93,1.55-3.47,2.35c-1.7.87-2.94,1.2-4.36.65-1.29-.5-1.29-2.21-1.29-2.21-.17.06-1.46,1.35-1.89,1.79-3.75,3.85-1.53,5.22-.35,5.38.63.1,1.28.12,1.91.1,1.98-.06,3.5-.37,5.93-.24,2.27.12,2.61.32,2.61.32,0,0-4.79,4.62-4.52,10.73-.05,1.06.42,7.05,4.42,4.3,2.3-1.46,7.46-6.31,7.54-11.16.26-4.9-4.71-7.77-5.23-8.07,1.07-.85,1.92-1.71,1.92-1.71l1.51,1.13c5.15,3.88,5.88,11.34,1.56,16.13-3.58,3.98-11.53,11.37-14.48,15.01-3.87,4.76-.24,11.86.1,12.26.02.02-.56-2.08-.24-4.25.19-1.29,1.78-3.77,2.6-4.79,1.41-1.74,10.47-10.33,15.46-15.89,5.74-6.4,4.8-16.34-2.05-21.55l-1.48-1.13s7.73-7.24,7.73-15.28c0-8.92-7.36-12.1-8.21-12.49-4.8-1.91-8.93-1.32-12.03,1.33-5.94,4.6-7.15,13.42-3.96,18.16,2.99,4.45,10.26,9.12,10.26,9.12ZM15.7,1185.57c-.81,3.73-5.39,6.16-5.39,6.16,0,0-2.72-5.01.34-10.09.7-1.25,2.05-2.91,2.11-2.95,2.81,1.74,3.53,4.14,2.94,6.88ZM7.43,1147.3c5.36-4.35,12.49-.29,14.47,5.62,2.09,7.59-5.41,14.2-5.41,14.2,0,0-5.82-3.75-9.36-7.53-3.71-3.95-3.54-8.47.31-12.29Z"/>
      </g>
    </g>
  </g>
</svg>