<?xml version="1.0" encoding="UTF-8"?>
<svg id="Layer_2" xmlns="http://www.w3.org/2000/svg" viewBox="0 0 124.91 369.16">
  <defs>
    <style>
      .cls-1 {
        fill: #fff;
      }

      .cls-2 {
        fill: #67a9a8;
      }
    </style>
  </defs>
  <g id="Layer_1-2" data-name="Layer_1">
    <g>
      <rect class="cls-2" x="11.53" y="0" width="100.95" height="364.2" rx="50.48" ry="50.48"/>
      <path class="cls-1" d="M69.15,244.57c2.18-1.84,7.9-6.69,13.51-9.37,7.23-3.44,14.41-4.76,20.14-1.88,5.28,2.65,5.4,9.26,5.4,9.26.69-.23,6.13-5.69,7.95-7.53,15.74-16.16,6.41-21.9,1.48-22.6-2.63-.43-5.36-.5-8.04-.42-8.3.26-14.7,1.55-24.9,1-9.53-.52-10.96-1.32-10.96-1.32,0,0,20.1-19.39,18.99-45.06-1.28-13.33-6.41-23.73-6.41-23.73,0,0-6.32,1.67-12.15,5.69-9.65,6.11-34.38,33.2-34.72,53.55-1.09,20.58,22.86,25.9,25.03,27.19-3.51,2.8-6.45,5.75-7.56,6.85h0s-1.06.98-1.06.98h0s-43.03-24.53-43.03-44.53c6.36-5.87,49.29-53.15,73.68-88.85,16.34-23.92-5.36-49.96-5.36-49.96,0,0,4.31,16.93-2.79,27.81-14.26,21.85-25.8,34.18-37.65,48.4-8.83,10.59-33.55,38.07-38.03,51.11-5.58,16.25-1.45,35.93,3.61,43.82,5.02,7.83,11.37,14.74,18.77,20.39,7.09,5.41,13.18,8.66,13.18,8.66,0,0-30.72,25.89-32.93,62.14-2.51,41.13,31.14,50.2,31.14,50.2,0,0,45.45,15.06,70.98-24.51,25.53-39.57,11.23-62.04.51-73.79-10.58-11.59-38.06-23.17-38.77-23.48ZM59.01,181.56c3.39-15.64,22.63-25.86,22.63-25.86,0,0,11.43,21.03-1.44,42.36-2.93,5.24-8.62,12.21-8.87,12.37-11.81-7.31-14.81-17.38-12.33-28.87ZM44.87,344.56c-11.02-4.03-17.16-10.82-20.73-18.67-6.25-13.73-4.04-29.85,5.12-41.84,9.37-12.26,20.21-22.39,20.21-22.39,0,0,36.17,14.21,50.21,26.21,14.04,12,12.33,27,12.81,29.54-9.18,17.53-41.57,36.67-67.62,27.14Z"/>
    </g>
  </g>
</svg>