<?xml version="1.0" encoding="UTF-8"?>
<svg id="Layer_2" xmlns="http://www.w3.org/2000/svg" viewBox="0 0 82.09 288.78">
  <defs>
    <style>
      .cls-1 {
        fill: #fff;
      }

      .cls-2 {
        fill: #67a9a8;
      }
    </style>
  </defs>
  <g id="Layer_1-2" data-name="Layer_1">
    <g>
      <rect class="cls-2" x="7.58" y="0" width="66.35" height="285.52" rx="33.17" ry="33.17"/>
      <path class="cls-1" d="M45.45,206.9c1.43-1.21,5.19-4.4,8.88-6.16,4.75-2.26,9.47-3.13,13.24-1.24,3.47,1.74,3.55,6.09,3.55,6.09.46-.15,4.03-3.74,5.23-4.95,10.35-10.62,4.21-14.4.97-14.85-1.73-.28-3.52-.33-5.28-.27-5.46.17-9.66,1.02-16.36.66-6.27-.34-7.21-.87-7.21-.87,0,0,13.21-12.74,12.48-29.61-.84-8.76-4.21-15.6-4.21-15.6,0,0-4.15,1.1-7.98,3.74-6.34,4.02-22.59,21.82-22.82,35.19-.72,13.53,15.03,17.02,16.45,17.87-2.31,1.84-4.24,3.78-4.97,4.5h0s-.7.64-.7.64h0s-28.28-16.12-28.28-29.27c4.18-3.86,32.39-34.93,48.42-58.39,10.74-15.72-3.52-32.84-3.52-32.84,0,0,2.83,11.13-1.83,18.28-9.37,14.36-16.95,22.46-24.75,31.81-5.8,6.96-22.05,25.02-24.99,33.59-3.67,10.68-.95,23.61,2.37,28.8,3.3,5.15,7.47,9.69,12.34,13.4,4.66,3.56,8.66,5.69,8.66,5.69,0,0-20.19,17.01-21.64,40.84-1.65,27.03,20.47,32.99,20.47,32.99,0,0,29.87,9.9,46.65-16.11,16.78-26.01,7.38-40.78.34-48.49-6.96-7.62-25.01-15.23-25.48-15.43ZM38.78,165.49c2.23-10.28,14.87-17,14.87-17,0,0,7.51,13.82-.94,27.84-1.92,3.44-5.66,8.02-5.83,8.13-7.76-4.8-9.74-11.42-8.1-18.97ZM29.49,272.61c-7.24-2.65-11.28-7.11-13.63-12.27-4.11-9.02-2.65-19.62,3.37-27.5,6.16-8.06,13.28-14.71,13.28-14.71,0,0,23.77,9.34,33,17.23,9.23,7.89,8.1,17.75,8.42,19.41-6.03,11.52-27.32,24.1-44.44,17.84Z"/>
    </g>
  </g>
</svg>