<svg width="58" height="41" viewBox="0 0 58 41" fill="none" xmlns="http://www.w3.org/2000/svg">
<path d="M56.22 6.32C55.56 3.83 53.61 1.88 51.14 1.21C46.66 0 28.71 0 28.71 0C28.71 0 10.76 0 6.28 1.21C3.81 1.87 1.87 3.83 1.2 6.32C2.38419e-07 10.83 0 20.23 0 20.23C0 20.23 2.38419e-07 29.63 1.2 34.14C1.86 36.63 3.81 38.58 6.28 39.25C10.76 40.46 28.71 40.46 28.71 40.46C28.71 40.46 46.66 40.46 51.14 39.25C53.61 38.59 55.55 36.63 56.22 34.14C57.42 29.63 57.42 20.23 57.42 20.23C57.42 20.23 57.42 10.83 56.22 6.32Z" fill="white"/>
<path d="M22.84 28.76V11.69L37.85 20.22L22.84 28.76Z" fill="#E86B6B"/>
</svg>
